<mxfile host="app.diagrams.net" modified="2024-06-07T14:10:47.250Z" agent="Mozilla/5.0 (Windows NT 10.0; Win64; x64; rv:127.0) Gecko/20100101 Firefox/127.0" etag="My-b9o6v_ouqbPyZ2V6_" version="24.5.2" type="device">
  <diagram name="Page-1" id="MfUOGNd7HAg16Wjgi4I1">
    <mxGraphModel dx="8700" dy="5133" grid="0" gridSize="10" guides="1" tooltips="1" connect="1" arrows="1" fold="1" page="0" pageScale="1" pageWidth="850" pageHeight="1100" math="0" shadow="0">
      <root>
        <mxCell id="0" />
        <mxCell id="1" parent="0" />
        <mxCell id="duBOL_cTbDVCa7UtEUWw-4" value="" style="shape=image;imageAspect=0;aspect=fixed;verticalLabelPosition=bottom;verticalAlign=top;image=data:image/png,iVBORw0KGgoAAAANSUhEUgAABLAAAAShCAYAAAAjq2LxAAAgAElEQVR4Xuzdd6AcZaHw/+eUJECQ3lGkKLariNeKqFexiyJ2LBB67+D7+/f94zaFJHSEFEBR8CrgxWt57QULCIjotYsoFqQHAiQ5Z/f3PLPZ5CQnZWbOzpwtn/Vy0WRmn53PTJLJd5+ZGWrGV/AiQIAAAQIECBAgQIAAAQIECBAg0KUCQwJWl+4ZH4sAAQIECBAgQIAAAQIECBAgQCATELAcCAQIECBAgAABAgQIECBAgAABAl0tIGB19e7x4QgQIECAAAECBAgQIECAAAECBAQsxwABAgQIECBAgAABAgQIECBAgEBXCwhYXb17fDgCBAgQIECAAAECBAgQIECAAAEByzFAgAABAgQIECBAgAABAgQIECDQ1QICVlfvHh+OAAECBAgQIECAAAECBAgQIEBAwHIMECBAgAABAgQIECBAgAABAgQIdLWAgNXVu8eHI0CAAAECBAgQIECAAAECBAgQELAcAwQIECBAgAABAgQIECBAgAABAl0tIGB19e7x4QgQIECAAAECBAgQIECAAAECBAQsxwABAgMg0IzbOJRjO/Mul+OtJizSjG/bbDbC0FDrM2T/Tj+46iPl+WzFxrQ0AQIECBAg0EcC8byhEf9pnUu0zlfa5xWd28rW+6ZTlNYYK89ZOjeAdyJAgMCUBASsKfFZmQCBbhdonYSleDS8wY/azBZMJ4YbXq7M9qb3Tv80YsT629/uDUPDQ2HXnXdedQLqBLGMqnUIECBAgEC/C7TOTZYtHw//uO/+bGN33nGHMDIcz1WG0rnNSIcBWucrDzz0SFj62ONhq623DE+ZvUkcZzT+0+GhvB0BAgRKCAhYJdCsQoBA7wg0mivCuRcsDsMbOPNqTYgaDqeffEQYzjVTq9j2p5PBBVd8Ojy69Ml4AtiIp6LxxDOek+6847bhfe96exiOJ6Kd/xa12Ge0NAECBAgQINA9Aunc4e4//zX813U3htHRmTFYteJSOl947zsPDLvsvH12/tDJ19LHnwgXX3ZlGBkZDcMjQ6HRaIblK8bC6SccHmbOjJ8hvpyvdFLcexEgUFRAwCoqZnkCBHpKIJ3snXvB5emMK6xYvnzSt5UpXmUnavEc8IyTjurotrVndS1Y/JmwdNmysPzJZeHIww4Jy5atCJ/6zHVhdOZInIm1Y3j/u9/e0XG9GQECBAgQINCbAo1GmlnVCB8797IwY9PRGK2GwrZbbxPe+bY3hGXj42FxPKf4P2edEL9ua8QN7FDAiqGqGQPZ/IsWhebwSNjnuc8Kr37Vi8PnvvDV8Pe//iM042c64+TDw3gcMp0zeREgQGC6BASsmuRbf5FNszzGs28uOj/lt6YNMQyBHhRIAWvLLbYIR3zkvZO+rUy/NufHn2/GgnV6DFidnCHfGBsPT8RY9YkrPhl/8Q/FQHbEym9PR+K3mmPhnPMWhpEZo+HMk47sQVUfmQABAgQIEOi8QCOce/6C7HYDaYbVqcfHc4d0v6ssWKXv44bjOUSjo7Ov0t9S5qUxR4fCcUd+OGw6K822ap0R3f/AI+Gqaz4fdthu6/Dh9x/UuWjWeTjvSIDAAAgIWDXt5PQHzWPxWvL7Hngw7LXHbjWNahgCBNKvvSWPLo0Ba7PspGvtqe+NGJXnX3hF9uOnnTino/fAine9Cpdc/unw5LInwmknHLnqZLMdtO/9x/3h6s99Iewe74f17ne9OX6+yfeyaM/iym7Wmk4mVxa27L5aK08vTed3nBMg0A0Cf7jrT2GH7bcNm28+uxs+js9AoKcEWvfLbIRvfOum8PNf/iZss81WMRgdXMttBtLYcy9ZFGaNzAgnHP3h1m0XVt56odlYEc45f1EYHo1f9E04l1kXbvqivj0rrP28mvQ+nfxysKd2qg/blQIrVqwIf77n72HPPZ7WlZ/Ph9qwgIBV4xFy609/Hr753ZvC2Scfs+oPhRqHNxSBgRRIJ4OtcNWaBbn20wjvuuvP4fovfTW89tWvDC/8p2d39N4O6YTwnAsui1PvQzjr1GPjCeHqXdCOWOeeny5vbIYzT06XL7YuBZgYpJqN8fCjW+4I9973QHjtq14etthi8+znf/u7P8YT3F+HZ+y5e3jec54RT3A7fSPXgTxcbDQBAlMQ+Ph5nwjveMsbwrP23nMK72JVAoMpkOJPulxw7oULs5B19ilHt2Ze1XD39B/86CfhRz+5PXzg3e8Iu+y0w8pTpdUnLd/+3o/D7XfeGT74voPDjtttm+2g9nlM+/Pd+4/7wvd/+JN4b64dwstfsm+2zHi8NPHrMcilLxPfdMCraolxg3n02OoiAg89/GhYdOU14cxTjy6ymmW7REDAqnFH3HrHz8M3vn1T+Gj8i6wXAQLTL5BOEC9b9Jnw+BNPhtPi5X2tU7XOfU/YjCdu8y5ZGLbbeutw6AffNfm9Y1P72HmXxpuzjmb330ong7/745/DF7/0tfjgxHQ/itYJYnbuunLy1b/s/8rwla99O2yy6azsBDddShDvsxpOOSFdnujmqtN/VPkEBAZX4OPnXRYD1usFrME9BGz5FATG4/2tfp/OAb789fCuA98Udt9915V/rqeZWa2QVdWf8xddflVYvjzerP3EIyZtQYpPY+PNcOEnFod9nv+8cMBrXpEtc875l4WhdA/RONs8fa7heD6S5oanc5ZlTy4PB7/jTeGL/+8b8Tu6uEQ8X0k/f3S8D+js7KmGHbp31xS8rTq4Ag8/8mhYcOVnwlmnxEklXj0nIGDVuMsErBqxDUVgIwKtm6TGbzrjDKlUh86s6A+xeRctiH+Ze2Z4y+tfPflb1PR0wqs+Gy9xXBLOODF909p6XPYN//PV8Ic/3NN6AlA86XvvO98Znrbr9tnN6LMnFsb/7ByfPvS+g98aFl3x2fDosifDB+LTDHfaYbtavql1cBEgQGBdAgKW44LA1AQuW/zp8NjSpfFLtSNDuo/mtZ//UvjTn/+S3Q/r5S99UXj1fi/p6L2v2p/23Ata99w648TD4w+tHZeyLBVvt7AgPO1pu4b3HPSWbLVf/eq34Wc//234y71/z27yPnM0Xn547IfC175xU/jfX/8mfgkXz2HGGtkXbMNxpvkFl8VIFsPWR08/VsCa2mFi7SkKCFhTBJzm1QWsGneAgFUjtqEIbFRgPDy6dFlYsPjqsO8LXxD+Zf+XbXSNogukHDU/Bqxn7713eMsbXj1p9TS7atEn/ys8/Mgj8RLCo7Mp9q1XvPQwfrOZHll9Srx5azrxa8RvX7/3g5vDrbffGbbeYssw5yPvaj0MIg4y9+LLw3PjGG96/aucFBbdSZYnQKBjAgJWxyi90YAKzL94UZwJtTwc+qF3hs989ovZeUEj3X8ghqDR0ZGwfNlY+D+npy+84pdZaZp2hyYypYCVTijSucj6XvMuWhi/TNs5vOedb111rvKP+x8Kn7rmhtAYH4tPKTw6m32VbtlwTgpicalsdns2O3wkng8tjpcUjsdZLy7bGtDDu2s2W8Dqml1R6oMIWKXYyq0kYJVzsxaBqgSuvPq68MDDD8Un/BweRuLMpk6/4lWA8YRtYXjOs+IMrPUErIUxYD2yMmBNHP8/510av2WN985K98BIU/Pj//jeD34SfnL7HfGG8GmK/+pLHefHyxSf+6y9wxtflwJW5y6B7LSH9yNAoL8FBKz+3r+2rnqBcy9YGGdCtWY8xb+khaPmfCBsMXvTOPBw+MGPbw0/vPXOeGOpZXHW+HErbzHQmT/z58bZVelLtQ0FrLTM03bdJbw3zv5uv/5x/wMxYF0fDnrrG8Nee658SFU8+Tk3nvvMjE9ZPum4w7LzlfQpUwAbHxvL7gnqRWA6BQSs6dSf+tgC1tQNc7+DgJWbyoIEqhfIbrC+KPvW8OzT0nT2aoacd9GisPcz9wpvjQFrXXFpYbyEsD0Da+In+Ni8T2TT+c8+dfX1+d9dGbDOOPHINT7suRddHp7/7GeHN7zulWZgVbMbvSsBAjkEBKwcSBYhsAGB+fGcIc65yoLPUXMOCZttOiPOwp6x8v5XzfD5L3w53P2Xv2b3qkozsDr1pdXcOGMqZbPWA2XWfUKUAtbT4yWE7155CWHajPvuezB88trrwkFviwFrwlPWV80iP3bOqrdL50ONOANrQ5HMwUGgDgEBqw7l6sYQsKqznfTOAlaN2IYisBGBRgxY5128MDzrGXuFt7zxNZWEnzT1f168HCDdm+qD7z1o0olm+rZz/sWLs3tHnHFyilKrTxoFLIcwAQK9JiBg9doe83m7SSDddmDxJ9OXWkvCzjvtGJ8I+Lb4I+lHVz+h+MllK8JFC64IL91337D/K/65YwHrvEsWZ3HptBOPmpSv2k8bTJc3PvfZz4xPE1x9SwQBq5uOIJ8lr4CAlVeqO5cTsGrcLwJWjdiGIrARgauvvSHce9994cRj5mTT3PN+i9l6KmB6ElDr3xt8xUdin3thmuXViFPmj1lnwEp/4RuOM63OOjnOtJrwdh+bv3IG1inp29DWyevGZmC98YD914hgDgICBAjUKSBg1altrH4TSF+s/fLXfwhf/ca3wrve/uZsttPa5xnNGJnmxXtJ7bXnHnHW0wHrJUhPKU7pKz3tr9kYi+cZoxtYthm+8vXvhV/99rfhIx94V9h2q62yGeDtVzqH+cWvfxe+9q3vhgPf+Lo4q3zP7KfS+9+/nhlY6feCWbPifTzXmoE1Hme9e/Jbvx25vbc9Albv7bOJn1jAqnH/CVg1YhuKwEYEPj7/0myJs0+L4Sg7y9vYPbDijdTjieOKsWZ44MEH44nZrLDNVltmISvdn2pdr/RzF1x6ZXz8dHo09ZGTTkSXr1gRLrzsyrDJzFnhhKM/ssZbfGzeJfF9R2L4WjNg3RrvgdV6zPXqk8vWJYTPCq2AtbHtcGgQIECgGgEBqxpX7zoYAqtmOsV7RW266abh2CM+OOm84YEHHg5Xfua68NY3HhBD0tPi5YXrO/9ohPvufzCMx/i00047rOeiwJZr+wu5dI+q7bbZJnz4Awdneaodz5rxy7gLPnFVGIs3ks8uXVz55V0WsOIYn4qXEL7jLRPugRV/fF2XEKbLI9NN3F1COBjHczdvpYDVzXtn459NwNq4UceWELA6RumNCJQWaD3prxHmx+nyO267Q/jQBw7K/V5j8ZHWF3ziilXLb7PFFuHQD747DI2sPxrde//9Ic322nG7HcOH3ndgfJpgPOXLnsgTYty6Ij5YaDycnG4iH09CUwdrpqcKxVc2M2skPdI6hq/4E+lHv/uDW+NTCH8aTjv+yOxeFelJP+lEMt0s9Z/2jgHr9ekeWPHJhF4ECBCYBgEBaxrQDdlXAtkXX5e0zg1OPS6eG4wOxQg1HrdxOHvYTOseWfHn4nlA+vN/7S/Q0jlO+vG58UuwoU1mZTeCb8Qbp59x8rHZecP6vnBLiOecFx8eMzISTj8hnmMMpftwjWRxqxHHP+8TV4Zm/He63UF7Ntf4+Irw4INLwqc+e314+1vesPIeWOm+XClgXR5nt88MJx37wbj8jGwfte6B1QhnnnRkDFmNMJKdO1V0A9K+OipsTKcFBKxOi9b7fgJWjd4CVo3YhiKwHoFmfDrON777g/DzX/wyfOSD7w3bbr1lbqurPvP5cP8DD2XfeDbi9Px0gvnReFK43vOvOFYznsl9LD5RcMas0bD3XruHt73pgOyEcHF6+uBjj4bR+F4pYLW/0Uwndzf96JZw8y0/C/HcMbzw+c8Lr3v1y7KT1+/9MD6F8LY7wj/v8/zwqv1fGj9HupQxxrh4X4rtt9sm7Pv854fnPfeZubfHggQIEOikgIDVSU3vNWgC6dwgzXZKTzBO96RKJxeHvO+dYZftt4vnEs1w4SWL4nlHnFG13U7hA9kXYstj1Jq1BlPrPZph7sUL4vnFjDAe3284rvuW178mPDs+rXhDr4cfXhKuuPq/wop024P4BOSUlhpx1vn8SxfF/9YMp8QnCg6PjsSzkdaXdg8+tCTccuvPwi9/++uw19N3Cy9+0b5hxx22ySJZmoE1OjIjvOIl+4SXvfRF2fIpYKUY95J9nx9e86qXZuc1XgSmQ0DAmg71zo0pYHXOcqPvJGBtlMgCBCoXSIHoP869MMyctWmcxp6mwuecsRRPKP94z1/D9Td+OZ7RxdO64TiTK34penr2xJ4Nv1bEmVtz08lcvNdWOiNM306mh0ovX74ifPS04yZM02+E3/z2j+F/vv6NeK7Y+lYyfd43vO414fnPeUb43g9uiTOwfp6dVI4tjzd+Py19A7vyRDdFtXjWe0b8ZtP3mRvbI36eAIEqBASsKlS956AJpC/IHnn4sbDwU9dks67SxO3sFe9LNdqIX3qdcFg2M3tdr9ZliI3w8XnxnGNWPL/JziWGwqknHJG914ZeaYbW1795U7jzl7/KzlGygbMTiqE4w+qAOMPq6atWT1+6nRNnio+Mtt4zm1weT4tOP+mILHDNjbc2GIqzyFONO3XljeHPz2aPtT7SrvHhNu97z4H5z8EG7SCwvZUKCFiV8lb+5gJW5cSrBxCwasQ2FIH1CKRL+NJNUNP0pqHhOJ1+o/e+Wv1GafbW7+66O9z0w1vDLjtvH8PSK7Of3FgEa8RvQNM54O9+/+dw20/vTBf/hVe8/EXh6U/dMbtkMN1ktfVKny2Ex598MjsbTHEqLZseo51Nx4o/9vgTy7Jbds3ebJP4/8fij42EpY8/nq29SbxcYHS0NVXfiwABAnULCFh1ixuvHwVSwIoXB8ZNGw8//+Xvwh0/+2XYZNaMsP8rXxpvR7Btdm6woft2tmZhNcL1X/h6eHzZY/F+Wa8N28Z7W2W3+9wAWLO5Iq43Eu/1ORa+8/2bw9/+dm94+m67hlft9+LsPCc9cKb9yi4tjP88Ec8/huIN4tP/3nTTmdn7p7j1xOPLYqxqxssER+Jnn5mtFueMh8fij6dlNovnMFkk841bPx7CXb9NAlbX76INfkABq8b9J2DViG0oAgQIECBAoFYBAatWboMRIECAQAkBAasEWhetImDVuDMErBqxDUWAAAECBAjUKiBg1cptMAIECBAoISBglUDrolUErBp3RrGAla4Sb10+lC4YH5owbbfGj2woAgQIECBAYIAE2jeBzh4ssfJ+fXk3P2/ASjeqbl16HS8yasanrA7Fy6GzS6bc1DmvteUIECBAIN1do/XkzdYlsu1/b1hGwOrtI0fAqnH/FQlY6QQynTs+Gq8t/9TVnwvHH31YjZ/UUAQIECBAgMAgCrTOP4bCwvik1MM/9K6V973JF5byBqwUrhopXMV7/DRitLr2mv8Oh3zgHaseaDGI7raZAAECBIoL/O6PfwpLH3syPuzomWE4PTggvtp/jq3v3QSs4s7dtIaAVePeSAHrm9++KT6a9phs1KF48+b0WNzWPKv0BLFGePjRR8MXvvj/wv0PPhCfFjIjjMaZV6ccd3j25BEvAgQIECBAgEAdAulb7f+cd2mYMSM+GCI+wOLpT9s1vP3AN4VZM+PTVLO/ILRuNN0YSgmq9aSztQNWOq9JT0tLP5uWT8ukp6XeEM9z7rr7z9kXdePxhtFnx6exZudF2d2pvQgQIECAQE6B+Ffpu/98T/j8jf8vNMbH4p9Rm4RXvGSf8KJ9n7/6z5X0lMz4n/TgpvTvR5Y8FhZc+ZlVfyfPOZLFukRAwKpxR7QD1tmnHps9TSylq3vveyB887s/CH/9y99jNY7fcMaTt5XtOGw6a5Nw7BEfzCLXcDbV3osAAQIECBAgUL1Aik/plH/eRYviLKw0AyudtcTgNN66XGOvPfcIr3vVy8IWT3lK9heC9Drn/MvDO97y+rD33nuuerjYkqVLw3e++6Pwm9/dlS03ms514hd4cQ5WaI41whknH5VFLi8CBAgQIFBcoDUZ5J57/hE++4UvxT+f0qXp6V3inzPxz6vZm20WXvrifcI/v+Cfsj930p9nZmAVV+6mNQSsGvdG+xLCQ99/ULj2818Ky5avCDNmxjAVT+TidKzsF1o2Iyvd8yqeHKbH6LYu6F194ljjxzUUAQIECBAgMKAC2QyreA7SjkvZPUZWXl6YnZqkb9vibKrlY+Nhi802DXMOe1+48NKrsoC1++5PC1dcdW14OH7LPXNWe8ZW69wmvW/6y0XrHlvxf8f3WFW7BtTaZhMgQIBAOYHsvleN8exqpeHhkezvz8Pxz5VmmhQS/5jJ/pqd3Vp6KCxftjw859nPDK/e/2VmYJXj7oq1BKwad0M7YJ298hLClXUqfP9Ht4Y7fvaL8OSyZfGywZHWVPs0rX58PJwZv5lMJ4ppyqMXAQIECBAgQKAOgRSa0l8E5l24KIyMjKyKV+PxEo3Zm20eXh4v0XjhC57XmnvVukYwnHv+gtYMrGfuscblgD/7+S/DD2/+aVjy6JIwOjqavVf2n3iyc/qJh2fnPl4ECBAgQKCoQDPeSzHEeyrecef/hm99/8fxi5X4JUn6Iyn9Z7wZdttt1/D617wybLX1Fq1LCOOfPy4hLKrcXcsLWDXuj4k3cW9/A9malt+62Vz79d3v3xJuu+PO7MQx3RvirFOPjkW59Q2mFwECBAgQIECgaoH0l4Jz5l+ezcCaOWNmeNUrXxxe+Px/aj3jaeVMqvQZhlZ+wZbOYs4577IJASu740gWttr3tmrN4GqGO//3N+Hb37klzkRfGtcaDmeccmT8i0WqYL6sq3q/en8CBAj0k0D6k+aW2+4M3/vBzfGy9PGww047hHcd+MYwe/bs1gysCX8GtbfbJYS9fQQIWDXuv409hXBixGpHrTQt8qvfuim8+YD9a/ykhiJAgAABAgQGVSCdj9zx81+HFzxvr/gXgPgFWrwcYyjdu2ojr/xPIWy9UTN9Ux4D2a9+/ZvwnGfFWVsh3jDeiwABAgQI5BT41W9+H/bc42lhRpzd2/pCJV2mni4fXP9DQQSsnLhdupiAVeOO2VjAWhWt1vgFl6bYp28sN37iWOOmGIoAAQIECBDoQ4H2l2nt+1UVOf/IG7Aa8bwmzbjK7oWVDLP/17oXqBcBAgQIEMgr0PozKwWrlfeTbt+rcR0zr9rvKWDl1e3O5QSsGvdLnoBV48cxFAECBAgQIECgYwJ5A1bHBvRGBAgQIECgoICAVRCsyxYXsGrcIQJWjdiGIkCAAAECBGoVELBq5TYYAQIECJQQELBKoHXRKgJWjTtDwKoR21AECBAgQIBArQICVq3cBiNAgACBEgICVgm0LlpFwKpxZwhYNWIbigABAgQIEKhVQMCqldtgBAgQIFBCQMAqgdZFqwhYNe4MAatGbEMRIECAAAECtQoIWLVyG4wAAQIESggIWCXQumgVAavGnSFg1YhtKAIECBAgQKBWAQGrVm6DESBAgEAJAQGrBFoXrSJg1bgzBKwasQ1FgAABAgQI1CogYNXKbTACBAgQKCEgYJVA66JVBKwad4aAVSO2oQgQIECAAIFaBQSsWrkNRoAAAQIlBASsEmhdtIqAVePOELBqxDYUAQIECBAgUKuAgFUrt8EIECBAoISAgFUCrYtWEbBq3BkCVo3YhiJAgAABAgRqFRCwauU2GAECBAiUEBCwSqB10SoCVo07Q8CqEdtQBAgQIECAQK0CAlat3AYjQIAAgRICAlYJtC5aRcCqcWcIWDViG4oAAQIECBCoVUDAqpXbYAQIECBQQkDAKoHWRasIWDXuDAGrRmxDESBAgAABArUKCFi1chuMAAECBEoICFgl0LpoFQGrxp0hYNWIbSgCBAgQIECgVgEBq1ZugxEgQIBACQEBqwRaF60iYNW4MwSsGrENRYAAAQIECNQqIGDVym0wAgQIECghIGCVQOuiVQSsGneGgFUjtqEIECBAgACBWgUErFq5DUaAAAECJQQErBJoXbSKgFXbzmiEW+/43/CNb98UPnrqsbWNaiACBAgQIECAQB0CAlYdysYgQIAAgakIPPzwkrDgqmvCWaccM5W3se40CQhYNcLfdsfPwze+c1M4+xQBq0Z2QxEgQIAAAQI1CAhYNSAbggABAgSmJCBgTYlv2lcWsGraBc3meLj9Z7/KAtZZJx8dhoaGahrZMAQIECBAgACB6gXOOe+y8La3HBCes/de1Q9mBAIECBAgUELgoTgDa+GVcQbWqWZgleCb9lUErBp3wSNLHg33P/BQ2HP3p8aANVzjyIYiQIAAAQIECFQr8Ie7/hS232Hb8JTZs6sdyLsTIECAAIGSAitWLA/3/OXvYY/ddyv5DlabTgEBq1b95srR0r8FrFrpDUaAAAECBAhUKtAMzTAU/+NFgAABAgS6WaAZGvFPK38f7+Z9tL7PJmD14l7zmQkQIECAAAECBAgQIECAAAECAyQgYA3QzrapBAgQIECAAAECBAgQIECAAIFeFBCwenGv+cwECBAgQIAAAQIECBAgQIAAgQESELAGaGfbVAIECBAgQIAAAQIECBAgQIBALwoIWL2413xmAgQIECBAgAABAgQIECBAgMAACQhYA7SzbSoBAgQIECBAgAABAgQIECBAoBcFBKxe3Gs+MwECBAgQIECAAAECBAgQIEBggAQErAHa2TaVAAECBAgQIECAAAECBAgQINCLAgJWL+41n5kAAQIECBAgQIAAAQIECBAgMEACAtYA7WybSoAAAQIECBAgQIAAAQIECBDoRQEBqxf3ms9MgAABAgQIECBAgAABAgQIEBggAQFrgHa2TSVAgAABAgQIECBAgAABAgQI9KKAgNWLe81nJkCAAAECBAgQIECAAAECBAgMkICANUA726YSIECAAAECBAgQIECAAAECBHpRQMDqxb3mMxMgQIAAAQIECBAgQIAAAQIEBkhAwBqgnW1TCRAgQIAAAQIECBAgQIAAAQK9KCBg9eJe85kJECBAgAABAgQIECBAgAABAgMkIGAN0M62qQQIECBAgAABAgQIECBAgPnIRR8AACAASURBVACBXhQQsHpxr/nMBAgQIECAAAECBAgQIECAAIEBEhCwBmhn21QCBAgQIECAAAECBAgQIECAQC8KCFi9uNd8ZgIECBAgQIAAAQIECBAgQIDAAAkIWB3a2c1mMwwNDXXo3bwNAQIECBAgQIAAgcERcC49OPu617fUsdrre9Dn72UBAatDe89vZB2C9DYECBAgQIAAAQIDKeB8eiB3u40m0DMCfo+a/l0lYHVgH5x77rnhrLPO6sA7eYtBENhnn33CT3/600HYVNvYwwJmlPbwzvPRCRAg0KMC99xzT9h111179NP72IMikM6R0j8pZngNnsCNN94YDjzwwMHb8C7ZYgGrAztCwOoA4gC9xb777htuu+22Adpim9qLAgJWL+41n5kAAQK9LfCXv/wl7LLLLr29ET593ws4R+r7XTxpAycGSwFreve/gNUB/7lz54Yzzzwze6eLL720A+/oLfpLIN0fbTgcf+yx2Wa98IUvDLfffnt/baKt6TuB9snZM/feO5xxxunZ9sUjue+20wYRIECAwHQKNMPw8HA47pjWOZKANZ37wth5BdrnSOdfcEEYnTEj72qW62GB4eGhVb9PCVjTuyMFrA74TwxYDzzycPYHsReBiQJpivE2W2wpYDksekagPT1+v/32C1/8ypezdGWifM/sPh+UAAECPSPQaDbCtltsJWD1zB7zQdsB6/d33x223norD/Lq80Mi/c1+LP5dbrstt8ouGxWwpneHC1gd8J8YsB58dEn8W56/5nWAta/eIv1Bt/VTthCw+mqv9vfGtE/O9t9//3Djl7+Ubax7PfT3Prd1BAgQqFugfVlO+0s+M7Dq3gPGKyPQPkf63d1/DNtus43zozKIPbTO2r9PCVjTu/MErA74rxGwHlsShvSrDqj2z1u0n1YhYPXPPh2ELWmfnL0yBqwvrgxYg7DdtpEAAQIE6hNofzEiYNVnbqSpC6wOWHfFgLXt1N/QO3S9wMSraQSs6d1dAlYH/AWsDiAOwFsIWAOwk/toEwWsPtqZNoUAAQJdLDDxL4ZmYHXxjvLRVgmsPQMLTf8LCFjds48FrA7sCwGrA4gD8BYC1gDs5D7aRAGrj3amTSFAgEAXCwhYXbxzfLR1CghYg3dgCFjds88FrA7sCwGrA4gD8BYC1gDs5D7aRAGrj3amTSFAgEAXCwhYXbxzfDQByzGQCQhY3XMgCFgd2BcCVgcQB+AtBKwB2Ml9tIkCVh/tTJtCgACBLhYQsLp45/hoApZjQMDqsmNAwOrADhGwOoA4AG/RDlj77rtvuPXWWz1ydwD2ea9uYvrLxPBwemhwCG7i3qt70ecmQIBAbwi0A1b64uSee+4Ju+yyS298cJ9yYAXa50i//WO6ifs2A+swSBvebTOwGo1G+Pi8S8NQOl9fec5eZn80m43QTG+R/l+nX434ZLv4+/puu+4Y3v+ed3Ts774CVgd2lIDVAcQBeIt2wJo5c2bYfvvtB2CLbWKvCrT/EiFg9eoe9LkJECDQOwITA9ZOO+206guU3tkCn3TQBNLDBtLrd3f/UcAakJ3fbQErfZ4v3PiVMDQyI+6B8eJ7IYalZcvHwvh4M2y2SXqPGJsqeKXPucO224b9Xv6SGLM6M0BHAtaKsWXhgYceieVupNSnSlzLli0Lm8yaVWr9PCs1wlhcbDjsuP12Hat/7XEFrDx7wDLtgNW+NKv96GgyBLpZwAysbt47PhsBAgR6X2DiXwx7f2tswSAJCFiDs7e7MWC1/05ZZi+k7bni6v8KWz5ly3DwO97Y8T5S5jPlXacjAeuhRx4JCxZfk3fMyctFwJGZM8LYirFOhblJYwzFSpZmxp196jHx5zqU/1aOImCV3/WDtGY7YKVtTr/hCFiDtPd7d1sFrN7ddz45AQIEekFg4gws50a9sMd8xvZ5vIA1OMdCtwWsTsifc95lYSxeivj/nXZsdqlfr7w6ErDSDm1tc9kNb4Zzzr88nHXK0VN4jw2Tt/9AnNrnXPcYAlavHO7T+zndA2t6/Y1eTCDd3yH9vilgFXOzNAECBAgUE5j4F8O//e1vIV1G6EWgmwXa50gCVjfvpc5+tn4LWGl75l68MKRJPmecdEQ85x/qmVlYHQlYrcMjXQhYLmA9+eQT4aKFV4eTjz4szIwzsap4tSJbuc+3sc8jYG1MyM8ngYkB67bbboNCoKsFPIWwq3ePD0eAAIG+EZj4F8O//vWvYeedd+6bbbMh/SnQPkcSsPpz/65rq/opYKVteXL58nDpgk9lm/r+d7897Lzj9pW1kk4fJR0MWGU+WjM04t3pb/zy18Pvfn93ePMbXhOe++xn9gxee4sFrDL7fvDWaQesF77wheH2228fPABb3FMCAlZP7S4flgABAj0rMPEvhunm2J5C2LO7cmA+uIA1MLt61Yb2U8BKG/WJxZ8OSx9dmj0046m77hzeffCbsvstVTXhp5NHzLQGrGxWVPznP+IjIGdtMjOLWWeeHC8jjI9zjM+E7OR2VvpeAlalvH3z5gJW3+zKgdgQAWsgdrONJECAwLQLCFjTvgt8gIICAlZBsD5YvN8C1n+ce1HsL5tktwtZMTYePnrKUVl/EbA2crC270s1/+JFGd74eCO7D1YvwE3cNAGrD35XqmETBKwakA3RMQEBq2OU3ogAAQIENiAgYDk8ek1AwOq1PTb1z9s/ASvd9imEuRctym7+1O4xp55weBgZHpk6VA3vMO0zsB5e8mi44lP/FWdfNbJJVycffXiYMXO0hk3v3BACVucs+/mdBKx+3rv9t20CVv/tU1tEgACBbhQQsLpxr/hMGxIQsAbv+OiXgJW24+FHloQrrv5cdgP39CS+Rrz67UPvPSjsuMN2PfE0wmkPWF/66rfCb35/V/arIN4RK7z2VfuFfZ//3J7Aa//SFbAG7zexMlssYJVRs850CbRPzvbff/94n8IvTdfHMC4BAl0ssPoJz517SE6VD93pYsqB/WjtY2ibLbbMDNwDa2APhZ7a8NUB666w7Tbb9tRnH4QPW8WfI/0UsD557Q3hvvvuD095yuywxRZbhHv+/Nfw1KftEj7wrrfGw6P7b+M0rQErzlkLH5t3WZgxqzXjKh0YwyPD4bTjj+ipX1tVBqwqfgH2FG4ffVgBq4925gBsytoBy+9FA7DTbSKBggLZ7Pn47W2v3fqh4GZavEKBLGDF/rnNUwSsCpm9dYcF2r/n/f7uP4att97a74Ed9p3q2zXitJh0c/I4tWiqb7Vq/X4KWB8755Jw1pnHhMsWfSZstvnm4dD3vyNrMh89/bieOJanNWCNN8fC+RdeEcbGm2F0ZrzmcqwR/3sjnHnqUa2DrkdeVQas8fHxMB6n9XXuu80eQe3Dj7nD1ttmvymkpxDedtttfbiFNqmfBNp/Kf2Xf/mXcO11n+unTbMtBAh0SGB0xozQjOdtHTtnGx4Ky+OjvZ3zdGgH9cLbpMtX4g2Ed9pu++zTmoHVCzvNZ2wHrL//497QnDEaeuPOQYOz3xoxjI+Oxv0Sf3/JCnkHXv0QsNI2pC+ehofTl08zwiULrg6bz94sfOSQg2PyG4/P0Us3cU8XwnXGrAPs63yLaQ1Y9z3wYFh41WfDR089Jpx36eJw6vGHhnPPXxhv5J7qX1Wb3Pn3rTJgHXnYnHDdddd1/kN7x2kTeNGLXhRuvfXWaRvfwATyCLT/8Er/bl/ikWc9yxAgMDgCDzzycBiKM+ez+2h04JVOrLffepvsBNtrMATaf9a0/5wRsAZjv/f6VqZoP3FmuvOk7tuj//pv/xpOOPkkAWutXdPIZqU1s0h16cJPrwpYjTixKDRbTyEUsDZwPH/+hi+Fdx/05niiEsL8SxaFM044MjTjWdB3b/pJeM3+L+2+Xwnr+URVBqwjYsC6XsDqmWMhzwfdd999s4DV7b855NkWy/SvgOOzf/etLSPQKYEHH12SfbndyYC17ZZbderjeZ8eFBCwenCnDehHdp7UnTu+/cXrv/77v4UTTkoBqzOvfpiBtbbExBlYnVGq512mdQZWVqvjP6kDzr94UTj9xMNTEIxPI0zf+LemYPXCbw51BKzk8K1vfaueo8IolQrMnj07vPjFL650DG9OYCoC6ffmb3/72527LGgqH8a6BAh0lUD6/eG1r31t9pkeigErna51KmBN/AtCOufphXPArto5Pf5h0v7fb7/9wsyZM3t8S3z8fhdIx+p3vvMdv0d14Y5Ofz6l/fOv//7vMWCd2LFPKGB1jHLKbzStAav16dO1mM0sYJ1x0lGtH0lhK7565cSlroCV7ofVKyZTPjL7+A3cDLuPd65NI0CAwAAItM9FqgxYTzzxRNhkk00GQNMmEiBAgEAnBLIHwq28j7aAtXFRM7A2brTeJdK9DiYGrCm81bSsWkfAmhj2pmUjDUqAAAECBAgQmPAFo4DlcCBAgACBbhJof8EiYG18rwhYGzcSsEoYTbwHlhsElgC0CgECBAgQINBRATOwOsrpzQgQIECgQwICVn5IASu/1aQlzcBaP56ANYUDy6oECBAgQIBAxwUErI6TekMCBAgQ6ICAgJUfUcDKbyVgFbASsApgWZQAAQIECBCoXEDAqpzYAAQIECBQQkDAyo8mYOW3ErAKWAlYBbAsSoAAAQIECFQuIGBVTmwAAgQIECghIGDlRxOw8lsJWAWsBKwCWBYlQIAAAQIEKhcQsConNgABAgQIlBAQsPKjCVj5rQSsAlYCVgEsixIgQIAAAQKVCwhYlRMbgAABAgRKCAhY+dEErPxWAlYBKwGrAJZFCRAgQIAAgcoFBKzKiQ1AgAABAiUEBKz8aAJWfisBq4CVgFUAy6IECBAgQIBA5QICVuXEBiBAgACBEgICVn40ASu/lYBVwErAKoBlUQIECBAgQKByAQGrcmIDECBAgEAJAQErP5qAld9KwCpgJWAVwLIoAQIECBAgULmAgFU5sQEIECBAoISAgJUfTcDKbyVgFbASsApgWZQAAQIECBCoXEDAqpzYAAQIECBQQkDAyo8mYOW3ErAKWAlYBbAsSoAAAQIECFQuIGBVTmwAAgQIECghIGDlRxOw8lsJWAWsBKwCWBYlQIAAAQIEKhcQsConNgABAgQIlBAQsPKjCVj5rQSsAlYCVgEsixIgQIAAAQKVCwhYlRMbgAABAgRKCAhY+dEErPxWAlYBKwGrAJZFCRAgQIAAgcoFBKzKiQ1AgAABAiUEBKz8aAJWfisBq4CVgFUAy6IECBAgQIBA5QICVuXEBiBAgACBEgICVn40ASu/lYBVwErAKoBlUQIECBAgQKByAQGrcmIDECBAgEAJAQErP5qAld9KwCpgJWAVwLIoAQIECBAgULmAgFU5sQEIECBAoISAgJUfTcDKbyVgFbASsApgWZQAAQIECBCoXEDAqpzYAAQIECBQQkDAyo8mYOW3ErAKWAlYBbAsSoAAAQIECFQuIGBVTmwAAgQIECghIGDlRxOw8lsJWAWsBKwCWBYlQIAAAQIEKhcQsConNgABAgQIlBAQsPKjCVj5rQSsAlYCVgEsixIgQIAAAQKVCwhYlRMbgAABAgRKCAhY+dEErPxWAlYBKwGrAJZFCRAgQIAAgcoFBKzKiQ1AgAABAiUEBKz8aAJWfisBq4CVgFUAy6IECBAgQIBA5QICVuXEBiBAgACBEgICVn40ASu/lYBVwErAKoBlUQIECBAgQKByAQGrcmIDECBAgEAJAQErP5qAld9KwCpgJWAVwLIoAQIECBAgULmAgFU5sQEIECBAoISAgJUfTcDKbyVgFbASsApgWZQAAQIECBCoXEDAqpzYAAQIECBQQkDAyo8mYOW3ErAKWAlYBbAsSoAAAQIECFQuIGBVTmwAAgQIECghIGDlRxOw8lsJWAWsBKwCWBYlQIAAAQIEKhcQsConNgABAgQIlBAQsPKjCVj5rQSsAlYCVgEsixIgQIAAAQKVCwhYlRMbgAABAgRKCAhY+dEErPxWAlYBKwGrAJZFCRAgQIAAgcoFBKzKiQ1AgAABAiUEBKz8aAJWfisBq4CVgFUAy6IECBAgQIBA5QICVuXEBiBAgACBEgICVn40ASu/lYBVwErAKoBlUQIECBAgQKByAQGrcmIDECBAgEAJAQErP5qAld9KwCpgJWAVwLIoAQIECBAgULmAgFU5sQEIECBAoISAgJUfTcDKbyVgFbASsApgWZQAAQIECBCoXEDAqpzYAAQIECBQQkDAyo8mYOW3ErAKWAlYBbAsSoAAAQIECFQuIGBVTmwAAgQIECghIGDlRxOw8lsJWAWsBKwCWBYlQIAAAQIEKhcQsConNgABAgQIlBAQsPKjCVj5rQSsAlYCVgEsixIgQIAAAQKVCwhYlRMbgAABAgRKCAhY+dEErPxWAlYBKwGrAJZFCRAgQIAAgcoFBKzKiQ1AgAABAiUEBKz8aAJWfisBq4CVgFUAy6IECBAgQIBA5QICVuXEBiBAgACBEgICVn40ASu/lYBVwErAKoBlUQIECBAgQKByAQGrcmIDECBAgEAJAQErP5qAld9KwCpgJWAVwLIoAQIECBAgULmAgFU5sQEIECBAoISAgJUfTcDKbyVgFbASsApgWZQAAQIECBCoXEDAqpzYAAQIECBQQkDAyo8mYOW3ErAKWAlYBbAsSoAAAQIECFQuIGBVTmwAAgQIECghIGDlRxOw8lsJWAWsBKwCWBYlQIAAAQIEKhcQsConNgABAgQIlBAQsPKjCVj5rQSsAlYCVgEsixIgQIAAAQKVCwhYlRMbgAABAgRKCAhY+dEErPxWAlYBKwGrAJZFCRAgQIAAgcoFBKzKiQ1AgAABAiUEBKz8aAJWfisBq4CVgFUAy6IECBAgQIBA5QICVuXEBiBAgACBEgICVn40ASu/lYBVwErAKoBlUQIECBAgQKByAQGrcmIDECBAgEAJAQErP5qAld9KwCpgJWAVwLIoAQIECBAgULmAgFU5sQEIECBAoISAgJUfTcDKbyVgFbASsApgWZQAAQIECBCoXEDAqpzYAAQIECBQQkDAyo8mYOW3ErAKWAlYBbAsSoAAAQIECFQuIGBVTmwAAgQIECghIGDlRxOw8lsJWAWsBKwCWBYlQIAAAQIEKhcQsConNgABAgQIlBAQsPKjCVj5rQSsAlYCVgEsixIgQIAAAQKVCwhYlRMbgAABAgRKCAhY+dEErPxWAlYBKwGrAJZFCRAgQIAAgcoFBKzKiQ1AgAABAiUEBKz8aAJWfisBq4CVgFUAy6IECBAgQIBA5QICVuXEBiBAgACBEgICVn40ASu/lYBVwErAKoBlUQIECBAgQKByAQGrcmIDECBAgEAJAQErP5qAld9KwCpgJWAVwLIoAQIECBAgULmAgFU5sQEIECBAoISAgJUfTcDKbyVgFbASsApgWZQAAQIECBCoXEDAqpzYAAQIECBQQkDAyo8mYOW3ErAKWAlYBbAsSoAAAQIECFQuIGBVTmwAAgQIECghIGDlRxOw8lsJWAWsBKwCWBYlQIAAAQIEKhcQsConNgABAgQIlBAQsPKjCVj5rQSsAlYCVgEsixIgQIAAAQKVCwhYlRMbgAABAgRKCAhY+dEErPxWAlYBKwGrAJZFCRAgQIAAgcoFBKzKiQ1AgAABAiUEBKz8aAJWfisBq4CVgFUAy6IECBAgQIBA5QICVuXEBiBAgACBEgICVn40ASu/lYBVwErAKoBlUQIECBAgQKByAQGrcmIDECBAgEAJAQErP5qAld9KwCpgJWAVwLIoAQIECBAgULmAgFU5sQEIECBAoISAgJUfTcDKbyVgFbASsApgWZQAAQIECBCoXEDAqpzYAAQIECBQQkDAyo8mYOW3ErAKWAlYBbAsSoAAAQIECFQuIGBVTmwAAgQIECghIGDlRxOw8lsJWAWsBKwCWBYlQIAAAQIEKhcQsConNgABAgQIlBAQsPKjCVj5rQSsAlYCVgEsixIgQIAAAQKVCwhYlRMbgAABAgRKCAhY+dEErPxWAlYBKwGrAJZFCRAgQIAAgcoFBKzKiQ1AgAABAiUEBKz8aAJWfisBq4CVgFUAy6IECBAgQIBA5QICVuXEBiBAgACBEgKrA9a/heNPOikMlXiPtVdpxh9oNpth2y22zH7qxhtvDAceeGAH3nl630LAmoJ/o9EI8y9eFM446agpvMv0rTp37txw5plnZh/gwceWhKF0lHfoJWB1CNLbECBAgAABAh0RELA6wuhNCBAgQKDDAunPp/RPCk5VvQSsqmTzve9Q3LnV7d18nyEIWOuHErByHkQWI0CAAAECBGoRELBqYTYIAQIECBQUaP/5VHC1QosLWIW4Or6wgNUBUjOwOoDoLQgQIECAAIGeEBCwemI3+ZAECBAYOIE3v/nNYf/9989mYG0sZv3qV78Kn/70p7Pl/u///b+5rJYvXx7e9ra3hZe97GW5lu/mhVxCOIW9YwbW+vHMwJrCgWVVAgQIECBAoOMCAlbHSb0hAQIECHRAoH1x2cbiVRrqmmuuCYccckgWsFKPGLSXgDWFPS5gCVhTOHysSoAAAQIECNQoIGDViG0oAgQIEKhEoB2w0pt3wV2VKtnGDb2pgDUFcgFLwJrC4WNVAgQIECBAoEYBAatGbEMRIECAQCUCAtbVYfPZm4WPHHJwJb5Vval7YHVA1j2wOoDoLQgQIECAAIGeEBCwemI3+ZAECBAgsAEBAUvAKv0LxAys9dO5B1bpw8qKBAgQIECAQAUCAlYFqN6SAAECBGoVELAErNIHnIAlYJU+eKxIgAABAgQI1CogYNXKbTACBAgQqEBAwBKwSh9WApaAVfrgsSIBAgQIECBQq4CAVSu3wQgQIECgAgEBS8AqfVgJWAJW6YPHigQIECBAgECtAgJWrdwGI0CAAIEKBAQsAav0YSVgCVilDx4rEiBAgAABArUKCFi1chuMAAECBCoQELAErNKHlYAlYJU+eKxIgAABAgQI1CogYNXKbTACBAgQqEBAwBKwSh9WApaAVfrgsSIBAgQIECBQq4CAVSu3wQgQIECgAgEBS8AqfVgJWAJW6YPHigQIECBAgECtAgJWrdwGI0CAAIEKBAQsAav0YSVgCVilDx4rEiBAgAABArUKCFi1chuMAAECBCoQELAErNKHlYAlYJU+eKxIgAABAgQI1CogYNXKbTACBAgQqEBAwBKwSh9WApaAVfrgsSIBAgQIECBQq4CAVSu3wQgQIECgAgEBS8AqfVgJWAJW6YPHigQIECBAgECtAgJWrdwGI0CAAIEKBAQsAav0YSVgCVilDx4rEiBAgAABArUKCFi1chuMAAECBCoQELAErNKHlYAlYJU+eKxIgAABAgQI1CogYNXKbTACBAgQqEBAwBKwSh9WApaAVfrgsSIBAgQIECBQq4CAVSu3wQgQIECgAgEBS8AqfVgJWAJW6YPHigQIECBAgECtAgJWrdwGI0CAAIEKBAQsAav0YSVgCVilDx4rEiBAgAABArUKCFi1chuMAAECBCoQELAErNKHVV8FrEeXhKHSEpNXPOKwOeH6667LfqLZbHbwnb0VAQIECBAgQKC4gIBV3MwaBAgQINBdAgKWgFX6iOyngPVQDFideLVj1ZGHHx6u/7yA1QlT70GAAAECBAhMXUDAmrqhdyBAgACB6RUQsASs0kdgPwWsB5Y8EtondqVBshXjbKv4f8cedXT4r89+tvUjZmBNjdTaBAgQIECAwJQFBKwpE3oDAgQIEJhmAQFLwCp9CPZTwCqNsJEV08licvIiQIAAAQIECEyngIA1nfrGJkCAAIFOCAhYAlbp46ifAlY6qatqplRV71t6x1mRAAECBAgQGDgBAWvgdrkNJkCAQN8JCFgCVumDutcD1vXXXx+uuOKKXNs/Ojoarlt5U/anP/3pYZ999sm1Xlrohhtu6NDlibmHtCABAgQIECBAYA0BAcsBQYAAAQK9LiBgCVilj+FeD1hpZlSR+14NDw9nVoceemju8FUa14oECBAgQIAAgQ4KCFgdxPRWBAgQIDAtAgKWgFX6wOv1gFV0w9snfnPmzAmLFy8uurrlCRAgQIAAAQLTJiBgTRu9gQkQIECgQwICloBV+lASsErTWZEAAQIECBAgUKuAgFUrt8EIECBAoAIBAUvAKn1YCVil6axIgAABAgQIEKhVQMCqldtgBAgQIFCBgIAlYJU+rASs0nRWJECAAAECBAjUKiBg1cptMAIECBCoQEDAErBKH1YCVmk6KxIgQIAAAQIEahUQsGrlNhgBAgQIVCAgYAlYpQ8rAas0nRUJECBAgAABArUKCFi1chuMAAECBCoQELAErNKHlYBVms6KBAgQIECAAIFaBQSsWrkNRoAAAQIVCAhYAlbpw0rAKk1nRQIECBAgQIBArQICVq3cBiNAgACBCgQELAGr9GElYJWmsyIBAgQIECBAoFYBAatWboMRIECAQAUCApaAVfqwErBK01mRAAECBAgQIFCrgIBVK7fBCBAgQKACAQFLwCp9WAlYpemsSIAAAQIECBCoVUDAqpXbYAQIECBQgYCAJWCVPqwErNJ0ViRAgAABAgQI1CogYNXKbTACBAgQqEBAwBKwSh9WAlZpOisSIECAAAECBGoVELBq5TYYAQIECFQg0O8Bq9lohObQeBgKo6H95/ZExksWCFilDysBqzSdFQkQIECAAAECtQoIWLVyG4wAAQIEKhDo5YDVbDbXGaUmMo2Pj4Uf3fzTsN/L/zn74bUjloC1gYOqGRoh/V9US/+X/ssaSwtYFfyK9JYECBAgQIAAgQoEBKwKUL0lAQIECNQq0KsBq9kcX9lTmiE0h8PQ8FBIQWvt1w1f/Er445/+Fk45fk4YGR6e9PMC1oYCVjNOX4v/pHA1NBSRWxVr1UvAqvXXqsEIECBAgAABAqUFBKzSdFYkQIAAgS4RsXBzwAAAIABJREFU6NWAlWYGPf7EsnDhJVeE5kjsK8lzYr9aOWEoRavh+M8pxx0eRkYErDUOu6z4xUA1NDyyzsOxESvhvIuuCFs8ZbNw5KEfCMMCVuY0Z86csHjx4i75JexjECBAgAABAgQ2LiBgbdzIEgQIECDQ3QK9GrAajWY47+IrIm4jLF8xtta1bRPN4ySiMBLOOuWIGLBGJ+2MgZ6BlWZQXfeFr4Ynli9b51E6GnH/fv9DYcaM0XDCUR/JSuAatHH9+RcvCmecdFR3H+Ud+nTtEz8Bq0Og3oYAAQIECBCoTUDAqo3aQAQIECBQkUCvBqyrPn19eOChB8IJR38kzBqdFcLkyVWrxNr3ykq9Zu0GM5ABK4Hc8pOfhu//6NYJ97da/xGWZl6dctxhk2ZquYSwol+V3pYAAQIECBAg0GEBAavDoN6OAAECBGoX6NWAtfDKa8OSRx8Lp5wYZ1at4/7ibchmnKkVhtNTCEeye2SlWzlNfA1gwGrGqwab4dyLFobmeCOccOyhYfamm27wwEv3wUpXG5qB1boHmBlYtf8+ZUACBAgQIEBgigIC1hQBrU6AAAEC0y7QmwGrER5d+mS4/IrPhBlDI+Gk4+PkoLVuz9SCbYZvfvdH4ac/+3k4/cSj1rnMAAasxDIe5l94Rfin5z07vP61+628/nLNG7RPPDKbjbE4U2vETdxXHmQC1rT/vuUDECBAgAABAgUFBKyCYBYnQIAAga4T6M2AFScRxQlBN9wYnzD457+GsRUrwh5P3y27Gm7N11C4//77w5PLloWT3cR9NU2ainbuhXEGVnMsnHXy0dGtPT1tTcC03H+cc2F477sOCnvtuWu23MSXSwi77tezD0SAAAECBAgQWKeAgOXAIECAAIFeF+jNgBUnEcW28rF5l4QZm8T7X2XP0osP01vfpYTxssFT4y2cRkYmP2xvIGdgNeKMqp//8vfha9/+XhhbviKcesKRYWR4aI2nOKYDO1XCixd8KswcHcluNrb2NDcBq9d/+fv8BAgQIECAwKAICFiDsqdtJwECBPpXoFcD1le+9p3wi1//Nuz+9KeGdx34xkn3tmrvsfQMwnSrp5GRdO+ryVfJDWTAat/V/twLL8tuDjaUSlWyWWsKWyM+hTD9fHoK4UkC1qqA5xLC/v0N0ZYRIECAAIF+FRCw+nXP2i4CBAgMjkAvBqzUXxZceU149LGl4dTjj4j3Fh9azz2w0iSieAP3ta58m7h3BzNghbFwznmLsqq32667hGfsuXtopLvdDzXWPPKbcVZW/OG99t4jbLX57Em/KszAGpzfKGwpAQIECBAg0NsCAlZv7z+fngABAgRC6MWAlfbbbXf8Inzn+z8Mz37GXuFNb3h1NgNrXTdy/8c/HgqLP/O5cPbJR2a7e+0H6Q1mwIpVat7Fi8Jeuz81vOMtbwhDw2s+mrH9C6ORHtuYXVi47kIoYPkthAABAgQIECDQGwICVm/sJ5+SAAECBNYv0IsBK83ASje+Ovf8BWE43p7pqTvtEN759jfFOLXmPa7SYl/8yjfCH/54d5ypdXgYHR2dBDGQASspzL1gQXYjsTNOXvfjGdMy6cZiP73zl+GFL3juOuuggOW3FgIECBAgQIBAbwgIWL2xn3xKAgQIEOivgJW2ZmxsPFxw6eLWbZuGWk8lXPPVut9V6/83winHHeEm7i2giBWvFFz8yWvDI/EazO223SZ8+P3vCI3xeLer0TVnYjXigvMvWRxmjMR7YB1zqJu4r7xHmHtg+S2VAAECBAgQ6DUBAavX9pjPS4AAAQJrC/TiDKy0DePxxuznX7oo7LHbbmGnHbaLpWrtq+BaRes3v/1DeOChR8Ipx89ZeSP3NQUGbgZWzFfZYxs/Pu8TYeasWfG/NmINHMvugbW24VBzOIzEG7jPnDEcTjz6MAFLwPI7KAECBAgQINCjAgJWj+44H5sAAQIEVgn0asBKHWbehYvCwfHSwd1323W9N3G/+bY7w00/uDmcflLrHlhrvwYuYLUBzjnv8jAa49QTjy9d/13u4wysTTbbNLtO8+SjzcBqn/iZgeV3UAIECBAgQKDXBASsXttjPi8BAgQIrC3QswFr5X2w0r/WvjH7xG1Mt2lKlxDGpda53EAGrIQy94LL46yrRjj7tGPWG7DSIxznXbQ4bLLJzHDcER+eBOgeWH5DIUCAAAECBAj0hoCA1Rv7yackQIAAgfUL9FrASvcdX/20wdYD8jb0asZJRK3l173cQAashLhs+Vh26eDszTZZ7/S1tNzf7/1H2GmnHbMbvg+vvISuDS5g+a2FAAECBAgQINAbAgJWb+wnn5IAAQIEejtgZU8dbPen9F8ndJTWLZ2Gwje//f3ws//9ddZk0qI77rBDeP+73xpmzJiZ3eB9eHjgA9bq2td6jGPrlYWp4bVvINb+uTR1bbX80Fo3yRKw/NZCgAABAgQIEOgNAQGrN/aTT0mAAAECvR+w0hVv73z7W8JeezxtjY1Z+vgT4ZLLPxVv0zQcH6Q3Hh+wF5tL7Cyjo6OpzoRddtg2vO8974jRa92Npu9nYLWmoA3HUNVY9ajGicEqm9IW/3PvAw+Eu+76U7w7/nh46q47h6ftuktW/RqN8fjvkXUeQQKW31oIECBAgAABAr0hIGD1xn7yKQkQIECgtwNWuofV3IsWhe222SYcesi7so1pzcpqhnPOvzyMDI+GN7zu1eH5z90r/kxqNc0w3hgL5118ZWxZjbDX7nuGg952QPy5ybOwBiJgrYjT0v5+7/0xSu0cY1aafdWqedklgv+4P3z62uvD0EiMVO3rM1PsirOydt5uu/CB9759vfVPwPJbCwECBAgQIECgNwQErN7YTz4lAQIECPR6wArh3AsvD9tuvXWY86H3ZBsTC0v48Y9vDz/6yW3h1fu9LLzohf+UtZlmvJww/fncmonVDP85b2HYZNZoOOWEwyfdwim9z0AErIVXXBuWLF0azjjpqDWOhMeXLguXLvpkxBwKr3jpi8MrX7ZP9vN//uvfYtT6Qrz+cjQMN5rhtFOOXAU78Q0ELL+1ECBAgAABAgR6Q0DA6o395FMSIECAQO8HrHkXLQzbbLV1OOxDq2dgXbb4mvDY44+FM086er0b+NDDS8Liq64N73/vQWHXnXeYtNwABKzxsOCKz4ZHY8A67YQjsrrXPoH5+HmXx6oXwqnxx4dHhuJ/j9dhZrfHGo/xbzhem3lVeGJseXjPQW8LT3/qjvHH17yUUMDyWwsBAgQIECBAoDcEBKze2E8+JQECBAj0X8BKW3RxvPfV408+Hs46+Zj1bmB62N5Fl10RLy98Vnj9a/ef9MC9vg9YSWbh4mvDw0sfjaVvzRlYcy9aEHbafvvwwfcdtE7AdIlhWmZseSN89PSjJ11KKGD5rYUAAQIECBAg0BsCAlZv7CefkgABAgT6IWAtiDOwto0zsA5ubUycKHT9F78a7vrTPXFiUbo8cPJN2lN/efLJZeGSeJXcq1/+svDPL3pBbDBrWgx0wErT2vZ/xUvCSyLM+l7/Oe/iMDI6K8avwwWslUfPnDlzwuLFi/2+QoAAAQIECBDoGQEBq2d2lQ9KgAABAusRuOaaa8IhhxzSakLpxuhd+lr7EsL0MR948KFw1TXXhZe9aJ+w38tfvMYnb21LM3zvhz8Jt95+Zzj6sA+EzTefPWnrBipgnXHikRlA+wRmbgxYe++5R3jbm187aWpa64AYDx+bf1kYjffCOuPEoyYtYwZWl/5q8bEIECBAgAABAmsJCFgOCQIECBDodYFeCFgpRqWAFW82nj1dMD0sL02lasT7Nc2cNTOMjTXCWaes3VfSDd3jzd8vuDxmrJFwdrwP+bpeAxWw1r6E8Nz4CMfxeLf7syLO0NDIpECV7oR/znmXhXhj/HDWacfGZxeuOX9NwOr1X/4+PwECBAgQIDAoAgLWoOxp20mAAIH+FeiFgJX0Pzb/0jAcbzieolV24/H4Gor/vRmryvBwM5wZ74PV/nM5/VyzORbmX3hFtux7Dn5LeNouO6c1Ju3Ivg9Yqf4tvDI+hfCxpeF5z3pGFqPaEL/7/R/C8rGxcNrxKWCtnpmV1kmYf/nb38Jnr/ufeAP3p4V3vv2ACD26BqCA1b+/MdgyAgQIECBAoL8EBKz+2p+2hgABAoMo0CsBq+i+ad9/fNOR0XDsMR8OIyMz1vkWfR+w0ry1hfFxjUuWPhFrXix7440wNDzhhmExCD77WXuGN73+NatuJJbw0n/mxulrsVqFs9bzmEcBq+hhaXkCBAgQIECAwPQICFjT425UAgQIEOicQK8ErPakoDxb3r6X19DQeFx8NM7aasQMM/km7+m9+j5gZTEq/jM+njCym99Pmog2Y8aadS+BXb7wmrB0+ePhza97XXjuc/ZY6e4SwgThJu55fhlahgABAgQIEOgmAQGrm/aGz0KAAAECZQR6JWCV2bbWOusqNqvfre8DVkaw8u78E6+x3BBoClhPLlsW/vb3e8Neu+++rksvs9XNwCp/WFqTAAECBAgQIFCngIBVp7axCBAgQKAKgf4PWBtWG4iAVcWBI2AtrorV+xIgQIAAAQIEOi4gYHWc1BsSIECAQM0CAtbVYfPZm4WPHHJwzfJTG24ozqpKc8um9WUG1rTyG5wAAQIECBAgkFtAwMpNZUECBAgQ6FIBAUvAKn1oClil6axIgAABAgQIEKhVQMCqldtgBAgQIFCBgIAlYJU+rASs0nRWJECAAAECBAjUKiBg1cptMAIECBCoQEDAErBKH1YCVmk6KxIgQIAAAQIEahUQsGrlNhgBAgQIVCDQnwFr9ZMHn3jiibDJJpuE9T2Az03cp3BQCVhTwLMqAQIECBAgQKBGAQGrRmxDESBAgEAlAv0ZsEJItzg/9/wFYXhkKP73oXDKCYeF0eHhGLKG13AUsKZwWAlYU8CzKgECBAgQIECgRgEBq0ZsQxEgQIBAJQL9GLBSvLrltp+F7//glhCGhzK35z3rGeGNB7xKwMpzFDWaY+HBBx4NC6+8JgxFwKOP+GDYaovZEW9kjdUFrDyaliFAgAABAgQITL+AgDX9+8AnIECAAIGpCfRrwLrtZ78I3/3+j7OZWCE2rBc899nhgH955aRLCc3AWsfx02iMhXPOvzzMmDEzA2w2muGMk46MMWvN6WsC1tR+8VmbAAECBAgQIFCXgIBVl7RxCBAgQKAqgX4MWJlV7C4fm39pGJ0xIzTGG+H0k4+KHasRhodH16AUsNZxZKVoNfeihXH2Wmv6WogR8PQYsNZ+CVhV/bL0vgQIECBAgACBzgoIWJ319G4ECBAgUL9Avwas1FbSfKHs32E0pqv0v9ecQJS0Bax1HHMJbd4F8QZio61LBlc8+WQ467QTshuKTXwJWPX/gjUiAQIECBAgQKCMgIBVRs06BAgQINBNAv0asJrNRna/q0acPRRv3b5ecgFrHTTZdZcR7kc3/zRGq5Hw0hc/P/7PoUnXXwpY3fRL2WchQIAAAQIECKxfQMBydBAgQIBArwv0a8DKu18ErPUErNirwnDsWK2biKUC2Jx0B3wBK+9hZjkCBAgQIECAwPQKCFjT6290AgQIEJi6gIB1ddh89mbhI4ccPHXMGt9hKIalNE1qWl8C1rTyG5wAAQIECBAgkFtAwMpNZUECBAgQ6FIBAUvAKn1oClil6axIgAABAgQIEKhVQMCqldtgBAgQIFCBgIAlYJU+rASs0nRWJECAAAECBAjUKiBg1cptMAIECBCoQEDAErBKH1YCVmk6KxIgQIAAAQIEahUQsGrlNhgBAgQIVCAgYAlYpQ8rAas0nRUJECBAgAABArUKCFi1chuMAAECBCoQ6J2A1YgPxBuKD8JLD8Rbx6vZiA/LC+GHt9wRdtt1l7DLzttny65YsSLccOPXwnsOfus61/UUwikcVALWFPCsSoAAAQIECBCoUUDAqhHbUAQIECBQiUCvBKz0yL31tas2TGO8EeZeuCg0mmPho6cdl/3wDV/8arjr7j+Hk487PIyOjEwyFLAmkkTkJ5cvD5vMGg0pCDbjf2I2DEPDqRoOTyqAAlYlvya9KQECBAgQIECg4wICVsdJvSEBAgQI1CzQKwHrnAsWxJQSW0pMKdm/VzpljSW+sh+PPzo6nCLVUBhvjIVGbDAjI2nWVginHndk/O/DgxewWmjrmba2Fscvfv2b8LVvfi8cM+eDYdOZs6JeCPMuXByeMnvTcMSh742AM9ZYQ8Cq+Ver4QgQIECAAAECJQUErJJwViNAgACBrhHolYA198KF2WSg0aHhEK8kXMd0rJiyGs3QCOOx14yE4Vbpiv8rzSQaCqcef8SABqzGivCDm+8MN//k1qzwpZlVw7Hqpd639mtoeDikaWzJLtW/4Vj8Gs3xMHPGrHDyMYdOWl7A6ppfxz4IAQIECBAgQGCDAgKWA4QAAQIEel2gNwJWI8y/8MrYocbDsieWhbPOOC5dz5Z1lqEYtNqvNNlo7gWXh/H474+eemz2w5//4pfD3X/8ywAHrIix6MrPhiVLH4sxqhFGhuPlgaliZa81I1YqgClitX4q1cBWKJwxY6aAlVm0ZrLNmTMnLF68uNd/7fv8BAgQIECAwAAJCFgDtLNtKgECBPpUoBcCVuotjdRhrvhseOyJpVlUmT1r03DU4e9fFbDafyafc94nsu7SDlg3fumb4Td3/SGcHmdgDbfbzIR9OQD3wGqGBYuvCY8+/niYvenscPSc92d3u281qlawal9gePsd/xu+9b0fhGOP+HDYbNN4CWH8ifkXLwozRmeEk8zAErD69DdBm0WAAAECBAZBQMAahL1sGwkQINDfAr0QsNp7oBmvZlu2fCycd9GiMHPTmWF8rBFe8dIXhf1eum9cpPWEwnPPu6w1A+u01gysdJXbvf+4P+y80w4r76G15u2gBiJgxYlV4dLLPhmWj41ls6/22GO38M63HpBdUjhxCtuPf3JH+P4Pbw7HHfnhMHuzTTOweRcvjNdejoRTjp3jJu5mYPX374a2jgABAgQI9LGAgNXHO9emESBAYEAEeilgtYPU0FAz/PHuv4bP3fCl7L5WjfFmOPRD7wk7bLdVOOf8BXEG1upLCNv3MF/fvcwHIGCtPJJjjHrk0aXhskVXh9GZI2FsRTMc/LY3hL322i2LWAno5lt/Fm760S3h2MM/GGbP3iyLXZ9Y+KnwjgMPDDvvuNUasau9M9IMrTNOOmogfrm4hHAgdrONJECAAAECfSkgYPXlbrVRBAgQGCiBXgtYrds2rZ5F9ZWvfTv84le/bbWV+OTBZvz3eLwPeXsG1sZ25uAErAjXusdVCLfc9vPw3Ztuzu5vtWLFinBynF21abxk8OZb71wrYLUf8bjupxi6ifvGDi8/T4AAAQIECBDoDgEBqzv2g09BgAABAuUFei9grbmt6b7kqa5cvODTYcWyZdkTCsdWjIWzV15CuDGZAQpYKynS9YTDiawRrrjq8+HBRx/JwtaM4ZHw6lftF7753e9PmIEVg1esXOnazfRox7VfAtbGDi8/T4AAAQIECBDoDgEBqzv2g09BgAABAuUFej1gtSZkxclFK5+nd+GlV4an7rxTOPidb86FMngBawJLumxwfHwsnHvBgnij9pkZZGiOhGOOeH92CeG6512tfgMBK9cxZiECBAgQIECAwLQLCFjTvgt8AAIECBCYokDPB6x1bH/qKut64uC6qAY6YKVZWHE6VuZy7733hSs//bl4U7HRcPxRH46XFG4y6abtawMKWFP81Wd1AgQIECBAgEBNAgJWTdCGIUCAAIHKBPoxYBXBGvCAtSZVuml764buKWy1Huu4oZeAVeRQsywBAgQIECBAYPoEBKzpszcyAQIECHRGQMC6Omwer5b7yCEHdwa0pncZipf/rbxqcuojTnxU48R4JWCtaesphFM/1rwDAQIECBAgMD0CAtb0uBuVAAECBDonIGAJWKWPJjOwStNZkQABAgQIECBQq4CAVSu3wQgQIECgAgEBS8AqfVgJWKXprEiAAAECBAgQqFVAwKqV22AECBAgUIGAgCVglT6sBKzSdFYkQIAAAQIECNQqIGDVym0wAgQIEKhAQMASsEofVgJWaTorEiBAgAABAgRqFRCwauU2GAECBAhUICBgCVilDysBqzSdFQkQIECAAAECtQoIWLVyG4wAAQIEcgq0HyqXZ3EBS8DKc5yscxkBqzSdFQkQIECAAAECtQoIWLVyG4wAAQIECgjkjVjXXnttOOSQQ0JaPv0zaK9LFghYpfe5gFWazooECBAgQIAAgVoFBKxauQ1GgAABAjkEUoS68sorw+joaK4g9eMf/zhccskl2bJXXXVVrnXSn3/77bdf2HPPPXN8ou5eRMCawv4RsKaAZ1UCBAgQIECAQI0CAlaN2IYiQIAAgVwCKUSNjIzkClET3zD9mVZkBtZ///d/h7e//e25PlM3LyRgTWHvCFhTwLMqAQIECBAgQKBGAQGrRmxDESBAgEBugfafT0WjVO4B4oI33nhjOPDAA4us0pXLClhT2C0C1hTwrEqAAAECBAgQqFFAwKoR21AECBAgkFug/efTv/77v4XjTzwxtP937jdYx4LxDlmh2WiGbbfcKvtZAWsqmlNfdyhOl5v2O5YJWFPfkd6BAAECBAgQIFCHgIBVh7IxCBAgQKCowOqA9e/hhJNOLLr6epdPyWSbLbYUsDomWv6NBKzydqXXbP/CmjNnTli8eHHp97EiAQIECBAgQKBuAQGrbnHjESBAgEAeAQErj1JrGZcQ5reatKQZWFPAsyoBAgQIECBAoEYBAatGbEMRIECAQG4BASs3lYCVn2rykgLWVPSsS4AAAQIECBCoT0DAqs/aSAQIECCQX0DAym9lBlZ+q0lLClhTwLMqAQIECBAgQKBGAQGrRmxDESBAgEBuAQErN5UZWPmpJi8pYE1Fz7oECBAgQIAAgfoEBKz6rI1EgAABAvkFBKz8VmZg5beatKSANQU8qxIgQIAAAQIEahQQsGrENhQBAgQI5BYQsHJTmYGVn2rykgLWVPSsS4AAAQIECBCoT0DAqs/aSAQIECCQX0DAym9lBlZ+q0lLClhTwLMqAQIECBAgQKBGAQGrRmxDESBAgEBuAQErN5UZWPmpJi8pYE1Fz7oECBAgQIAAgfoEBKz6rI1EgAABAvkFBKz8VmZg5beatKSANQU8qxIgQIAAAQIEahQQsGrENhQBAgQI5BYQsHJTmYGVn2rykgLWVPSsS4AAAQIECBCoT0DAqs/aSAQIECCQX0DAym9lBlZ+q0lLClhTwLMqAQIECBAgQKBGAQGrRmxDESBAgEBuAQErN5UZWPmpJi8pYE1Fz7oECBAgQIAAgfoEBKz6rI1EgAABAvkFBKz8VmZg5beatKSANQU8qxIgQIAAAQIEahQQsGrENhQBAgQI5BYQsHJTmYGVn2rykgLWVPSsS4AAAQIECBCoT0DAqs/aSAQIECCQX0DAym9lBlZ+q0lLClhTwLMqAQIECBAgQKBGAQGrRmxDESBAgEBuAQErN5UZWPmpJi8pYE1Fz7oECBAgQIAAgfoEBKz6rI1EgAABAvkFBKz8VmZg5beatKSANQU8qxIgQIAAAQIEahQQsGrENhQBAgQI5BYQsHJTmYGVn2rykgLWVPSsS4AAAQIECBCoT0DAqs/aSAQIECCQX0DAym9lBlZ+q0lLClhTwLMqAQIECBAgQKBGAQGrRmxDESBAgEBuAQErN5UZWPmpJi8pYE1Fz7oECBAgQIAAgfoEBKz6rI1EgAABAvkFBKz8VmZg5beatKSANQU8qxIgQIAAAQIEahQQsGrENhQBAgQI5BYQsHJTmYGVn2rykr0esJ588smwZMmS0P4FszGLHXfcMVvkkEMOCfPnz9/Y4tnPp/febrvtci1rIQIECBAgQIBAVQICVlWy3pcAAQIEpiIgYOXXMwMrv9WkJXs9YM2dOzecddZZodlsTkFhw6umX4zJyYsAAQIECBAgMJ0CAtZ06hubAAECBNYnIGDlPzYErPxWfRmwzjzzzGy70i+aToes9nt2+n2nsMusSoAAAQIECAyogIA1oDveZhMgQKDLBQSs/DtIwMpv1dcB64FHHs4iVt7LCdfH1gyt2VzHH31MuPaaa7P/LmBN4SCzKgECBAgQINARAQGrI4zehAABAgQ6LCBg5QcVsPJb9XXAejAFrJHhlfmpPMrQyqsRj5xzeLju858XsMpTWpMAAQIECBDooICA1UFMb0WAAAECHRMQsPJTClj5rfo7YC15ZMqzryYCHXHYnHD9ddcJWFM4vqxKgAABAgQIdE5AwOqcpXciQIAAgc4JCFj5LQWs/Fb9HbAei08j7OC93AWsKRxYViVAgAABAgQ6LiBgdZzUGxIgQIBABwQErPyIAlZ+KwGrgJWAVQDLogQIECBAgEDlAgJW5cQGIECAAIESAgJWfjQBK7+VgFXASsAqgGVRAgQIECBAoHIBAatyYgMQIECAQAkBASs/moCV30rAKmAlYBXAsigBAgQIECBQuYCAVTmxAQgQIECghICAlR9NwMpvJWAVsBKwCmBZlAABAgQIEKhcQMCqnNgABAgQIFBCQMDKjyZg5bcSsApYCVgFsCxKgAABAgQIVC4gYFVObAACBAgQKCEgYOVHE7DyWwlYBawErAJYFiVAgAABAgQqFxCwKic2AAECBAiUEBCw8qMJWPmtBKwCVgJWASyLEiBAgAABApULCFiVExuAAAECBEoICFj50QSs/FYCVgErAasAlkUJECBAgACBygUErMqJDUCAAAECJQQErPxoAlZ+KwGrgJWAVQDLogQIECBAgEDlAgJW5cQGIECAAIESAgJWfjQBK7+VgFXASsAqgGVRAgQIECBAoHIBAatyYgMQIECAQAkBASs/moCV30rAKmAlYBXAsijopl7lAAAgAElEQVQBAgQIECBQuYCAVTmxAQgQIECghICAlR9NwMpvJWAVsBKwCmBZlAABAgQIEKhcQMCqnNgABAgQIFBCQMDKjyZg5bcSsApYCVgFsCxKgAABAgQIVC4gYFVObAACBAgQKCEgYOVHE7DyWwlYBawErAJYFiVAgAABAgQqFxCwKic2AAECBAiUEBCw8qMJWPmtBKwCVgJWASyLEiBAgAABApULCFiVExuAAAECBEoICFj50QSs/FYCVgErAasAlkUJECBAgACBygUErMqJDUCAAAECJQQErPxoAlZ+KwGrgJWAVQDLogQIECBAgEDlAgJW5cQGIECAAIESAgJWfjQBK7+VgFXASsAqgGVRAgQIECBAoHIBAatyYgMQIECAQAkBASs/moCV30rAKmAlYBXAsigBAgQIECBQuYCAVTmxAQgQIECghICAlR9NwMpvJWAVsBKwCmBZlAABAgQIEKhcQMCqnNgABAgQIFBCQMDKjyZg5bcSsApYCVgFsCxKgAABAgQIVC4gYFVObAACBAgQKCEgYOVHE7DyWwlYBawErAJYFiVAgAABAgQqFxCwKic2AAECBAiUEBCw8qMJWPmtBKwCVgJWASyLEiBAgAABApULCFiVExuAAAECBEoICFj50QSs/FYCVgErAasAlkUJECBAgACBygUErMqJDUCAAAECJQQErPxoAlZ+KwGrgJWAVQDLogQIECBAgEDlAgJW5cQGIECAAIESAgJWfjQBK7+VgFXASsAqgGVRAgQIECBAoHIBAatyYgMQIECAQAkBASs/moCV30rAKmAlYBXAsigBAgQIECBQuYCAVTmxAQgQIECghICAlR9NwMpvJWAVsBKwCmBZlAABAgQIEKhcQMCqnNgABAgQIFBCQMDKjyZg5bcSsApYCVgFsCxKgAABAgQIVC4gYFVObAACBAgQKCEgYOVHE7DyWwlYBawErAJYFiVAgAABAgQqFxCwKic2AAECBAiUEBCw8qMJWPmtBKwCVgJWASyLEiBAgAABApULCFiVExuAAAECBEoICFj50QSs/FYCVgErAasAlkUJECBAgACBygUErMqJDUCAAAECJQQErPxoAlZ+KwGrgJWAVQDLogQIECBAgEDlAgJW5cQGIECAAIESAgJWfjQBK7+VgFXASsAqgGVRAgQIECBAoHIBAatyYgMQIECAQAkBASs/moCV30rAKmAlYBXAsigBAgQIECBQuYCAVTmxAQgQIECghICAlR9NwMpvJWAVsBKwCmBZlAABAgQIEKhcQMCqnNgABAgQIFBCQMDKjyZg5bcSsApYCVgFsCxKgAABAgQIVC4gYFVObAACBAgQKCEgYOVHE7DyWwlYBawErAJYFiVAgAABAgQqFxCwKic2AAECBAiUEBCw8qMJWPmtBKwCVgJWASyLEiBAgAABApULCFiVExuAAAECBEoICFj50QSs/FYCVgErAasAlkUJECBAgACBygUErMqJDUCAAAECJQQErPxoAlZ+KwGrgJWAVQDLogQIECBAgEDlAgJW5cQGIECAAIESAgJWfjQBK7+VgFXASsAqgGVRAgQIECBAoHIBAatyYgMQIECAQAkBASs/moCV30rAKmAlYBXAsigBAgQIECBQuYCAVTmxAQgQIECghICAlR9NwMpvJWAVsBKwCmBZlAABAgQIEKhcQMCqnNgABAgQIFBCQMDKjyZg5bcSsApYCVgFsCxKgAABAgQIVC4gYFVObAACBAgQKCEgYOVHE7DyWwlYBawErAJYFiVAgAABAgQqFxCwKic2AAECBAiUEBCw8qMJWPmtBKwCVgJWASyLEiBAgAABApULCFiVExuAAAECBEoICFj50QSs/FYCVgErAasAlkUJECBAgACBygUErMqJDUCAAAECJQQErPxoAlZ+KwGrgJWAVQDLogQIECBAgEDlAgJW5cQGIECAAIESAgJWfjQBK7+VgFXASsAqgGVRAgQIECBAoHIBAatyYgMQIECAQAkBASs/moCV30rAKmAlYBXAsigBAgQIECBQuYCAVTmxAQgQIECghICAlR9NwMpvJWAVsBKwCmBZlAABAgQIEKhcQMCqnNgABAgQIFBCQMDKjyZg5bcSsApYCVgFsCxKgAABAgQIVC4gYFVObAACBAgQKCEgYOVHE7DyWwlYBawErAJYFiVAgAABAgQqFxCwKic2AAECBAiUEBCw8qMJWPmtBKwCVgJWASyLEiBAgAABApULCFiVExuAAAECBEoICFj50QSs/FYCVgErAasAlkUJECBAgACBygUErMqJDUCAAAECJQQErPxoAlZ+KwGrgJWAVQDLogQIECBAgEDlAgJW5cQGIECAAIESAgJWfjQBK7+VgFXASsAqgGVRAgQIECBAoHIBAatyYgMQIECAQAkBASs/moCV30rAKmAlYBXAsigBAgQIECBQuYCAVTmxAQgQIECghICAlR9NwMpvJWAVsBKwCmBZlAABAgQIEKhcQMCqnNgABAgQIFBCQMDKjyZg5bcSsApYCVgFsCxKgAABAgQIVC4gYFVObAACBAgQKCEgYOVHE7DyWwlYBawErAJYFiVAgAABAgQqFxCwKic2AAECBAiUEBCw8qMJWPmtBKwCVgJWASyLEiBAgAABApULCFiVExuAAAECBEoICFj50QSs/FYCVgErAasA1v/P3nkASFVdDfhM2QosVUXAXmJsoElsUWNvsWKLLaJiBRtYokmMmqixIYqCFVCTWCIaW6KxG1s02KO/LVYUFVjYhe0z85/73szu7O4szH07b97M7PcQ2Z297X33Dvv49txzKQoBCEAAAhCAgO8EEFi+I6YDCEAAAhDwQACBlT00BFb2rBBYFqwQWBawKAoBCEAAAhCAgO8EEFi+I6YDCEAAAhDwQACBlT00BFb2rBBYFqwQWBawKAoBCEAAAhCAgO8EEFi+I6YDCEAAAhDwQACBlT00BFb2rBBYFqwQWBawKAoBCEAAAhCAgO8EEFi+I6YDCEAAAhDwQACBlT00BFb2rBBYFqwQWBawKAoBCEAAAhCAgO8EEFi+I6YDCEAAAhDwQACBlT00BFb2rBBYFqwQWBawKAoBCEAAAhCAgO8EEFi+I6YDCEAAAhDwQACBlT00BFb2rBBYFqwQWBawKAoBCEAAAhCAgO8EEFi+I6YDCEAAAhDwQACBlT00BFb2rBBYFqwQWBawKAoBCEAAAhCAgO8EEFi+I6YDCEAAAhDwQACBlT00BFb2rBBYFqwQWBawKAoBCEAAAhCAgO8EEFi+I6YDCEAAAhDwQACBlT00BFb2rBBYFqwQWBawKAoBCEAAAhCAgO8EEFi+I6YDCEAAAhDwQACBlT00BFb2rBBYFqwQWBawKAoBCEAAAhCAgO8EEFi+I6YDCEAAAhDwQACBlT00BFb2rBBYFqwQWBawKAoBCEAAAhCAgO8EEFi+I6YDCEAAAhDwQACBlT00BFb2rBBYFqwQWBawKAoBCEAAAhCAgO8EEFi+I6YDCEAAAhDwQACBlT00BFb2rBBYFqwQWBawKAoBCEAAAhCAgO8EEFi+I6YDCEAAAhDwQACBlT00BFb2rBBYFqwQWBawKAoBCEAAAhCAgO8EEFi+I6YDCEAAAhDwQACBlT00BFb2rBBYFqwQWBawKAoBCEAAAhCAgO8EEFi+I6YDCEAAAhDwQACBlT00BFb2rBBYFqwQWBawKAoBCEAAAhCAgO8EEFi+I6YDCEAAAhDwQACBlT00BFb2rBBYFqwQWBawKAoBCEAAAhCAgO8EEFi+I6YDCEAAAhDwQACBlT00BFb2rBBYFqwQWBawKAoBCEAAAhCAgO8EEFi+I6YDCEAAAhDwQACBlT00BFb2rBBYFqwQWBawKAoBCEAAAhCAgO8EEFi+I6YDCEAAAhDwQACBlT00BFb2rBBYFqwQWBawKAoBCEAAAhCAgO8EEFi+I6YDCEAAAhDwQACBlT00BFb2rBBYFqwQWBawKAoBCEAAAhCAgO8EEFi+I6YDCEAAAhDwQACBlT00BFb2rBBYFqwQWBawKAoBCEAAAhCAgO8EEFi+I6YDCEAAAhDwQACBlT00BFb2rBBYFqwQWBawKAoBCEAAAhCAgO8EEFi+I6YDCEAAAhDwQACBlT00BFb2rBBYFqxOP/VUuWP27U6NRCJhUZOiEIAABCAAAQhAIPcEEFi5Z0qLEIAABCDQewIIrOwZIrCyZ4XAypKVEVZnnHa63Hn77Y68QmBlCY5iEIAABCAAAQj4RgCB5RtaGoYABCAAgV4QQGBlDw+BlT0rBJYFKyKwLGBRFAIQgAAEIAAB3wkgsHxHTAcQgAAEIOCBAAIre2gIrOxZIbAsWCGwLGBRFAIQgAAEIAAB3wkgsHxHTAcQgAAEIOCBAAIre2gIrOxZIbAsWCGwLGBRFAIQgAAEIAAB3wkgsHxHTAcQgAAEIOCBAAIre2gIrOxZIbAsWCGwLGBRFAIQgAAEIAAB3wkgsHxHTAcQgAAEIOCBAAIre2gIrOxZIbAsWCGwLGAVSVGTjD/1l2uRDJlhQgACEIAABNoJILBYDBCAAAQgUIgEEFjLm5WEtMViEo1EtVBcZtx2l/SvrpYjf7G/HhYXF/0HqoRD4UKc1k5jCuk/phNBjzIej8vU6TNl0sTxQQ/FU/9TpkyRyZMnO3UXLa2TUA6JIrA8TUnBV0JiFfwUMUAI9EkCqUeC1ANg+t9VXb/WJwFx0w4BBBYLwS8CPB/5RZZ2IdA3CCCwlj/P5u/YP159o/xq8kly48y7pF91hRz1i7FyxTU3yTlnnCChMAJruQTb4jGJqOkzCu266bPk9FPGiXE/MTWDZWXl+npxRKpceeWVcs455/gusPbaa6++8TdPid/laqutJjfeeGOJ3yW3V8wEzN+9e++9dzHfAmOHAAR8JPD3v//dab22vk4SIRVaOfrBnfm7Z0jNQKftPfbYQ8JF8CDtI+Y+2fQdd9whQ4cO7ZP3zk0XD4Gf//znxTPYPjbS1PenSy67TE6ZOCFnd5/+/WnOnDkyduzYnLWd74Zm/fk++X7BAhk0cJAMHNBfvvxynowaNUIOPWgf0W/pBX8FGoH16ty3ZcwmG0g0GnUF1oSjZWHtUvn++0WywfprOfCKYatVviKwCn41McCsCGy22WYyd+7coljbWd0QhUqSQDH83VuS4LkpCBQRAT8FVhFhYKg5JPD111/LqquumsMWaQoCuSfAM1Lumea6RT8F1sMPP1zUP+hdsKhW/vSX+yWuP30KJZXVLw7cW1YdvrKxL7meipy3F6jAam5ukRtuuUNOO/kYue7GmXLMEYfIrDvvkzMnHltU/7hPF1jmYS6X1xmnniq3z749l03SVsAExowZI2+88UbAo6B7CCyfAA9nrBAIQGBFBBbVLRFNmJGzCCx9KJVByQisFfXN10uTwLx582TEiBGleXPcVckQ4Bmp8KfyUo3AOjlHEVgm+sr8HqoRS+YqdoFl7uGaG2bq/zV82tybSqszJxyn/sWEUyOwlru645osbMr1t0goUiZhZ2GItLW2yDlnnlz474q0EaYElpnuhfowl8u/1FJvGMLoi2pJdBpsKm9MalsEAqt457IvjTz199j2228vDz76SF+6de4VAhDIkoAfedGKJX1ElogotgICznOu/hpa4/7DEIHFkikGAs4zkv73yWefyeDBg3P6b79iuP9CH2Ouv4+YfN1mzlP/lit2gWX4XD7lRimvjOoyDktbW5ucdZrmvzLrugiuQCOwEpoD68prb5ay8nIHlQlhqxk0QCOxDi4C99cxu522EKrACuvkF8f0F8EKLYEhpv4yqOk/wLkbBFYJTGofuIXUut12u+3k4b8/6txx4ad17AMTwy1CAAIQKDECbSayIRl5h8Aqsckt0dtJPSN9/PlnMnTIEOvnI1O/AM5RK9HZyf1txR3RLiUlsG6+/S5ZtrTBHDwoo0aOkIP3L55c24EKLNEIrNfffl+ee+GV5EpLyL4/31XWWXON3K88H1v0MweWj8Om6TwRSP0UYPCAGgRWnpjTTe8JpB7OfrrttvLIP9yEzVwQgAAEIACBXBOImwisAW7yfgRWrunSnh8EugosP/qgzcIiYKKwSmULofm3aWtLm0zXVE7m799Dx/5cRo4ontyDwQosXZdNjc0y/bY73RWqBnDShGPdD4oohgmBVVh/wRTqaBBYhTozjCsTAQQW6wICEIAABPJBwMQ2DEFg5QM1feSIAAIrRyCLqJn0UwiLfQuhwW7uZ+oNtybzXx2jkViRopmNQAVWIq7BeJos7OpptzpHJbe2tso5Z5yg8MJFswfTzDQCq2jWe6ADRWAFip/OLQkgsCyBURwCEIAABDwRSP+HIRFYnhBSKc8EEFh5Bl4A3ZWiwLpKHUxC81+dc+ZJ6mSKJwFSsALLZG1XWJdPmSEVFeUyoF8/GT/u0OQSLR6ICKwC+FulCIaAwCqCSWKI7QQQWCwGCEAAAhDIBwEEVj4o00cuCSCwckmzONryTWD1+uA/bw2Y+5l151+lpqZGDtpvd18EllE95qTDXCeHD15g6W298ca78uxL/5bDDt5Phq88LOc36ffbAoHlN+HSaB+BVRrz2FfuAoHVV2aa+4QABCAQLAEEVrD86d2eAALLnlmx1/BLYCU0t5ZuRbNMnqQbr5Peyg35sQ38MRu3Q7KkvkFampbJSisNdU4jzPXlnN5oRqf3l8srUIGVupE2TSJ23a2z5MyTTf6r4to+aO4BgZXLJVm6bSGwSnduS/HOEFilOKvcEwQgAIHCI4DAKrw5YUTLJ4DA6nsrxC+BFZeYTJ0xW0RTK4WsRZT3eXAOGVMJZjI6hY1lcv6X+2unHbeX0Ruul9OGcyKw3FPWzLi83bixc1dMvUl+NenknN5cemOpo0pzHcKGwPJtykquYQRWyU1pSd8QAqukp5ebgwAEIFAwBBBYBTMVDCRLAgisLEGVUDG/BFYiEXOiqUw+cK8upTeYExoA9vhTz8keu/6sN81krGscjxNblmM5lhOB1fu71VlL6M1581+9776XLRCB1UuAfaQ6AquPTHSJ3CYCq0QmktuAAAQgUOAEEFgFPkEMrxsBBFbfWxR+CawOkt5yWfV2JuJqz66ccqOcM+kkV8XkOJm7G+iUW8mTE4HlRjeZwXnf3+jHzaVPaDwe0/2XJjDP2YnZ27nuVB+BlVOcJdsYAqtkp7YkbwyBVZLTyk1BAAIQKDgCCKyCmxIGtAICCKy+t0T8F1jBMDX3NeX622TSxGPTIsGCGUu2veZEYC2uWyo3zfyLCiwn1bz9lYcALEdZaZTX2Wccj8CynyFq5IAAAisHEGkibwQQWHlDTUcQgAAE+jQBBFafnv6ivHkEVlFOW68GXaoC6+X/vCGvvPK6HHf0odK/X3VyK2OvUPleOScCq7m5Wd586331Qx4FlkZE/evFV2TbbbbMddRaB0C1i2Z0W2+xec6hEoGVc6Ql2SACqySntWRvCoFVslPLjUEAAhAoKAIIrIKaDgaTBQEEVhaQSqxIqQqsG26+Q1paWmWdtdaQffbaOefb/fxYBjkRWKntf171VSKm2fdv1FMITzku5/suU9DMEZUmSVokEtWX2ELox2KizeUTQGCxQoqJAAKrmGaLsUIAAhAoXgIIrOKdu746cgRW35v5UhVYV113ixNAFIvF5ezTT+g7AsvrEk6Jr2++WyD33PegHH34QTJoYE1RgEu/ZyKwvK6AvlUPgdW35rvY7xaBVewzyPghAAEIFAcBBFZxzBOj7CCAwOp7q6HUBJbrYRJyzQ2zdJeayeckcsYpx/adLYS9WcIJPbvxmhtmOkcsrr7mKDlg791zHB/Vm9FlVxeBlR2nvl4KgdXXV0Bx3T8Cq7jmi9FCAAIQKFYCCKxinbm+O24EVt+b+1ITWHHdnfbaG+/Iiy+/5hx0Z3KFnzz+SKmsKC/4yc3JFkLPd2nyUqnAumrarRKNRp39l+eeeWKyudxu8/M8xiwqIrCygEQRQWCxCIqJAAKrmGaLsUIAAhAoXgIIrOKdu746cgRW35v5UhNYqmFk6oyZInH9wPgrfWHkiBFy6Ni9Cn5yAxdYbfGYXDdjdjsokwfLsYBFdCGwimiyAhwqAitA+HRtTQCBZY2MChCAAAQg4IEAAssDNKoESgCBFSj+QDovNYEV15xXZhdcKJzEqdsJzWuTJh6v2wjNa6kvBIJ7uZ0GKrDMQvjyq69lzkOPOdbPXIcftL8MHz6s8EgtZ0R+C6xUrrCigsJgOxFI/aVnvuGNHj1a3njjDQhBoKAJpB7Ott12W3nosb+L50NmC/ouGVxvCaS+d6fWS2/bM/X5npcLisXbBvNfvHPneeT6b4DBNQOd6vPmzZMRGgXABYFCJtAhsD6VIYOHFF3+5kJmm4ux+fVsMiT599TDDz8se++9dy6GGlgbcQ0iulaDiA47eF/58z0PyrZb/khefHWu5sEap89hkjz4LrDhLbfjQAWWGdn1N+nRja0t7htff6+9+mqy78/NEY6Fa/26EvVTYPnxBizMpVj6ozJ/6Zn5HDNmDAKr9Ke76O+wPQLrpz+VRx77B1Kh6Ge0eG7A5GUIuz/+4ypwAuZ7mvmdq/lKPfOY286lFC1wjH16eGaezXt+6MBBzlpCYPXp5VA0N08EVmFPlR//fi6tCKyEvPPWezJq9REycOBAufr622TyxOPk5VfmylZbjtEdhSEJR6IFO8mBCiyzEK6aepNEy8va9162trbJOWfoEY4FHLaWT4F18gknysMPP+ScDMBV3AQaGxudh7TNNttMXn/99eK+GUZf8gRSD2eRSEQqKytL/n65QW8EUuvkq2++ztm3KfNs8PRTT8nRRx7lbVDUyhuBr+Z/43xfy5XAMtpyxKoafZOMys/bjdBR4ASWLVvmjAGBFfhUMIAsCKS+91VXVyPbs+CV7yJmfi688EI57sQTctZ1aQkskfkLamWVYQMd53L1tJtl8qkuq08/mydrrTkyZ9z8aChggRXX5GG368mDu+g2wsdlzIY/kLfe+0AmTRjvCK1iufyMwDru6HFy//33FwsKxpkFAQRWFpAoEjgBoh8Cn4KiGsCiuiU5e4g3xzk/9cSTcvDYA4uKQV8crJl30byludpinIrE6Yss+/I9m+83qYgJBFZfXgnFc+8bbrihvP/++8Uz4D440ksvu0xOnjghZ3deagLLfL8NabS7US5XTbtFzjr1eIeVH9FrOZuEZEOBCqwPPv6fNDQ0yyYbryvTbrhTTp84Tp559iXZeOMNZZWVhuT6Xn1rz0+BdawKrAcQWL7NXRANr7vuuvLRRx8F0TV9QiArArncEpRVhxQqOgLp/+A0g8+lwDLtOQLrwAPbH6SKDlCeB2zC/Y34y9eVmv/a+jpz8nbOBFb6PxDydS/0U1gEvvzySxk1alRhDYrRQKALAZ6TCn9JXKIC6xQEVlYTlS6wsqoQcKFgBdaH/5MfrLe2xNQATpsxS04/5RiJK5CPVWytt+7aOQtJ95txPgRWKkeA3/dC+xCAAAQgAIFsCNTX10tNTY1T1A+BddDYsU5Ul/kpod+XkT/3/+1ROWjsvtpVPkPATV824smU7T6+yqp+sqx+kf40NeLkrvD7MlsGzT/g/BRYTU1NUlFR4fet0H4BESiGn/wXEC6GAgEIZCCQ+v6EwMp+eSCwsmfVXtI8nE6dPlOPbRzfKWytWE6iyYfAMrDSk5t6wEyVAiJQLGu7gJAxFAhAoMAI1NXVOck//RRYvn/vS8QdffTu+x/KphtvVCCEbaWWQ0l/6BeVWGuzRkQlfM8jmtpi7KfAMnkjyb9XIEuSYUAAAhAoAgLm31cmd6v5E4GV/YQhsLJnlVFgeageeBUEVuBTwAAgAAEIQCDPBEpBYMUSrRJJaNSSOW3HnIbs6fIinDx15IiqjBFiJum5nt589713ySEHHuQU8TMSC4Hldf6oBwEIQAACfhJIfX9CYGVPGYGVPSsEVhas0nNgEYGVBTCKQAACEIBAXgjkYwuhuRE/v/eZCPBhI9eS2m+/SmOWElnZbu3zIrBSbXuVZma4GfpVkWWkXNg5ybk3bS9/CSGw8vIWoxMIQAACELAkgMCyBKbFEVj2zJz8FqkthB6qB16FCKzAp4ABQAACEIBAngmUgsBSO+bkjeocfeVGOW2z0y5SM2SYq4E6uaJkTi6NeGoPiEpzXXETDWXajZiv659pHimkGc9N0vN4PCH9BwyQhmVLTZHkZbb+pT4xAspcqfxfqc/dV8vLy+XBP9+eNu6OAc6cfbsc88sjfV0NCCxf8dI4BCAAAQh4JIDAsgeHwLJnhsBaDjMisDwsKKpAAAIQgIDvBIpZYCWMGEqE5eVXX5Gfbr1N0lB1INtqu5/JY488JPGwSqVsA7HaNVRHO5lioNzmjOQy/snZ69eex93IL/elFUdPlYVD0r+/m4Ms/TJtxlrbzI5C3y4Elm9oaRgCEIAABHpBAIFlDw+BZc8MgbUcZggsDwuKKhCAAAQg4DuBYhZYjihSg1Q9cGVpWlrbjVVra6MsbdSE6I5QWrFMygy7h3xVxlclw668tu22nJARI9aUxqVLOnevbScSMaeEXxcCyy+ytAsBCEAAAr0hgMCyp4fAsmeGwEJgeVg1VIEABCAAgSAJFLPAcgSPRmCFzTa/LqFK5ZWV8u333+nXU9v37Cl7FVTZ1jP6LaR5rv751ONy6AEHGyXWaZAtehphmUlM79OFwPIJLM1CAAIQgECvCCCw7PEhsOyZIbAQWB5WDVUgAAEIQCBIAsUtsOJOlFIkUp4UWB37+I4cf5JMu+ZSR3AV+lVdWSEV5VXdhnnb7Nly7C+P8m34CCzf0NIwBCAAAQj0ggACyx4eAsueGQILgeVh1VAFAhCAAASCJFDcAstss4urwCrrlsD9pNPOkksv+bXmvipcgZO5K9YAACAASURBVJXa2lhRFpXqqn66DNK3CybkokuukgvOm+Tb8kBg+YaWhiEAAQhAoBcEEFj28BBY9swQWAgsD6uGKhCAAAQgECSBYhdYGoMlUecEws6i6sSJk+SPKrD0GMEg8WbVd3lZWPpVDegisEQuufwaOf/s07Jqw0shBJYXatSBAAQgAAG/CSCw7AkjsOyZIbAQWB5WDVUgAAEIQCBIAsUssEzOKJNHPRzungNr5z33lL/e82cnx1ShX+Wa5qpf9aBuw3z0icdkr5139W34CCzf0NIwBCAAAQj0ggACyx4eAsueGQILgeVh1VAFAhCAAASCJFDMAisW1+2DJhG6k8TdRFp1JEE3Umvh4oWO4DKX15MC/ZybkMT1l8gDD/xNjjv62C5dhSTW1qRyjiTufs4BbUMAAhCAQOERQGDZzwkCy54ZAguB5WHVUAUCEIAABIIkUMwCy+S/MnmjBgxZVZYt+T6JMZXIPSFtra1S39gQJN7l9h0OJaRFpdvKA4fpYYldTktU8xbX10LpabFyfCdEYOUYKM1BAAIQgEBOCCCw7DEisOyZIbAQWB5WDVUgAAEIQCBIAsUtsBJOZNXc/8yVH2+xpWI0EshsGXTDrgYOHCifzPtMIubTREijsdzyQV9mHCZCLK7jevu/b8sOW2/XZUgJTUwfldaWZl/Hi8AKeiXQPwQgAAEIZCKAwLJfFwgse2YILASWh1VDFQhAAAIQCJJAMQusFDfNhCVhk8S9SyJ3I7J22O9g+dsds1RttTnFC0VgmXFUlJXr6YPVadOfih4TuXfOHDlwv/1UdPkn3BBYQb7z6BsCEIAABHoigMCyXxsILHtmCCwElodVQxUIQAACEAiSQCkIrLhuJRx/2pky64brM6I8+fRz5NILz5d4NC7hRJBJ3UNSFtHcVqrT+ldWa5RVmVFq3ces9xOPxYxt81W4IbCCfOfRNwQgAAEIILBytwYQWB5YmlwNU6fPlEkTx3uoHXyVKVOmyOTJk52BLFpaJ5qaImfXsUePkwfuv99pz2wd4IIABCAAAQgUAoFSEFgJ3YtnvrdGy8t7/B475sc/kuefe0Z/2OaWDeLSDYz6EBCT115/S3bfcYfM8kpf/d/nn8gaI9dQgaXCzUlO78+FwPKHK61CAAIQgEDvCBCBZc8PgWXPrKQisGrr69LOMvIAI1nFvPnM1objfonA8k6RmhCAAAQg4BeBUhBYKTbGS5ncUj1lPg/pFsP/ffaxDB4yTFo1DqpMo7HM92g/c2O5+a40Ibvm4Kooq5Qxm28uH73/vpumK0Pw1Vm//a1cceGFviZvT/FCYPn1rqJdCEAAAhDoDQEElj09BJY9s5IRWOYNs3DJYodAb3NlpH7KO/7YY+X+++Y4bQb1k18PU0oVCEAAAhAocQKlJLD0KD95/8MPZMMfbrzcWVt97fXk3XfflBbdphc2JxmqSMpl1HWHUIvoc0SbbhWMyJ/+dJeccsIJPco1U2ed9daXDz9430lDn48LgZUPyvQBAQhAAAK2BBBYtsREEFj2zEpGYCXNlTFNHij0XMWJxtI2EVg5xUpjEIAABCDQCwKlJLBS31+/X/i9rLLycKWynATo+v14vY02lbn/fl5i+u3e2d6nFkuDpTRDlXnBaCSTgypzhFaqr9T39lTEtXsKYtzUlKg2ef9D/5CjD//FcsWVmb7d991P/vGA+4Ou3v7wLNvlgMDKlhTlIAABCEAgnwQQWPa0EVj2zEpLYCUfIHMlm1IPuAZrrtr0MEVUgQAEIAABCHQiUEoCK96mEVXRiCOgltQtkSGDhpnvusnfy5NZcZn0m4vl4vPOlDYVViHNn57QHzppak9XRpkfQHWpbj6NxzRHldmy6FxhZ9tfdUVU3nrrHdliy2003VVrhpMRuy/A3fbcQx57+BE9RNG/EwczLXsEFn8ZQAACEIBAIRJAYNnPCgLLnlnRC6wrrrhCzj33XKs7TxdT2VQ05WO6ZSFfP13NZkyUgQAEIACBvkuglARW+iyaHxY98cxjsvsue69gco00Sou41npVVVWy0RY/lS03/5FceckFUlFZboyWE41l/jRyy1VNcbnzr/fIv1/7P5k9Y4o0NjS4kVydLkd16e8e5JQ5cdA1ZXl/NkBg9d33PXcOAQhAoJAJILDsZweBZc+s6AWW8yiqD5EdP01dPgRTzjwgjxs3TmbNmuWBGFUgAAEIQAACwRIoSYHleCbzP5NAXU/x0+TtPWZNd9VR8uvm41R29R6yrPc4XZnKm1MHTY6tlLzqIsu0rc+++FzWGDUqkEWAwAoEO51CAAIQgMAKCCCw7JcIAsueWUkILJvbTr2xEFg21CgLAQhAAAKFRKAkBVY74ITstNeB8sxjD3ZDfuU1U+TsM85QuaSCKyfnDmcSWE5yLVlj3R9IY1OTfDfvi87jUMEWj7eq3zJjyP+FwMo/c3qEAAQgAIEVE0BgrZhR1xIILHtmCCwPzKgCAQhAAAIQCJJAaQss0W37bRItq+wmqWKtrbK4uV7Ko2E57Bfj5JEHHkiLlLKNvuoygyqm1t94Ezn/vN/IIQftIy0tbTJoQE23RO6RsgppaVoqYSdCLP8XAiv/zOkRAhCAAARWTACBtWJGCCx7Rt1qmO13U6fPlEkTx+egtcJvggiswp8jRggBCEAAAssnUOoC64OvP5ENRq3f1TBJvK1NljTU6S5Dk3zdnEAoUllRKfUN9fKHP14rTzz8oHz4f+85P5xLxDWre/s2QNNUaiugyYsVklVGjJQNfriBHD3uWDnykAOlsbUlmdfKJIKPiYmvGjxkmCZ913bSrlC4TGKtjXnPfZUaAgKLvx0gAAEIQKAQCSCw7GeFCCx7ZkRgeWBGFQhAAAIQgECQBEpZYJk8ldvufqC89GTXLYQJqV2m8qrNTZ6efiV0z5+JiHLFlp5AqL+ierKhk1PLqCuT1iqZ871VRZXjtRJlWku3AupJhAnnuMK0pPD6WVjr7rrnfvLai//q0llC2vTkxEgkv6cPIrCCfMfRNwQgAAEIrIgAAmtFhLp/HYFlzwyB5YEZVSAAAQhAAAJBEihJgeWknnLzT4Ujuj2v0xY9PSdQc04tqF3gHMQSiXjNP2UklRFWRmq5wsq0l+mUYY3DkmtvvEV+d073k46/+uozGTlitUCWABFYgWCnUwhAAAIQWAEBBJb9EkFg2TNDYHlgRhUIQAACEIBAkARKUmA5QGOycNESGTZsJaOW9HfHSYA/3PCH8sIrL0goEWmXT8ubg57ElNum+d09kiu9PfPV6ooKqaqo6tJNSDbfckuZ+/KLgSwBBFYg2OkUAhCAAAQQWDlfAwgsD0jJgeUBGlUgAAEIQAACARIoRYFloq8SibjmplpTFnz7dTe63y34RsrKu8ok/ybBbDOMhEMyoHpAMpdW2pZBjdoyYzW5ssJhr9Fg3saOwPLGjVoQgAAEIOAvASKw7PkisOyZEYHlgRlVIAABCEAAAkESKEWBZfb1xfRXNFKuaLvnl1qwrF4iXRKq+zkHJoLLXL/57YUy/bpru3V15rnnypTLfq+vI7D8nAfahgAEIACB4iCAwLKfJwSWPTMElgdmVIEABCAAAQgESaAUBZaJaBqz1bby9muvKtrOCdVPnXyWXHzBr7ucKuj3DLhbDasqyqSyvDLp1NLFmgo3FWrhTicd+j0mg8AdQ229JrQ3BzF2RuV5AEbYDakZ6NRvbGyUykq9Zy4IQAACEIBAlgQQWFmCSiuGwLJnhsDywIwqEIAABCAAgSAJlJrASkU7OdvxugohFSsNTU3S1NKoX9Lk7nm+EomYrLveprLou3ndej7pjLNkxpTL8zoiBFZecdMZBCAAAQhkSQCBlSUoBJY9qPQa5MDqHT9qQwACEIAABPJNoNQElolkOmPSZLl+2vWKsnNI0cGH/UJuvHG6RMNhieco2shmvsIqsMorq6VKfzvHF6ZfGjWWkm82bfamLAKrN/SoCwEIQAACfhFAYNmTJQLLnhkRWB6YUQUCEIAABCAQJIFSEliOANL/wpH06CuzTc7IooQsa1wmzS2tDu7Uw3F+2Yckonv1hqw8XNqaG8woOkm2pqalmly+Ul81v/y/EFj+M6YHCEAAAhCwJ4DAsmeGwLJnhsDywIwqEIAABCAAgSAJlJLAaku0yb33PSxHHHpQN6RbbruDPP6PB51nlWDklTukUDwk/aorHFHV9YpGo9LiiK1It92PfqwRBJYfVGkTAhCAAAR6SwCBZU8QgWXPDIHlgRlVIAABCEAAAkESKCWBZXJMVVbXqARq6oZ08ZJFmqjcTaa+vCu1jc+UdfJkaZshCSdjonSbn1Y2ZUJh/bpGUyU083kiuR8xWzGWkDYZPmyEtLS0dBlKQsfeKGVlmU9PzPU6QWDlmijtQQACEIBALgggsOwpIrDsmSGwPDCjCgQgAAEIQCBIAqUlsNp0+2Bm+bO4brGKpxUftdeeh8rxXKqu9M+obkk0D9NhFVrGacXaVFrpLyOwmtuanXLZyitnrtWCff7lZzJm4zHdpn78xFPl5uuuycsmQgRWkO88+oYABCAAgZ4IILDs1wYCy54ZAssDM6pAAAIQgAAEgiRQMgJLI6Wuv+VOOfWkYx2h1HGF5Klnn5LNN988I2YjohyjlIhqnJVuLyxLSLw5JnMe+7ucMeFsWbrwm+VPj4qtn2y7rcy6+UZZfc01JRZr07aM7DIta4s9bFmMlEWkpqp/l7GaoeQvmTsCK8h3Hn1DAAIQgAACK3drAIHlgSWnEHqARhUIQAACEIBAgARKQWDF420qiyJSUVGhAinWmaYKofplddIac0/96xopFQ+1SjhRLlWaf2r/I46Wx+6/1xTqLpa6JFx3E8N33Y6oyipaJkuX1Epz3Gw/dBPGd71Uk+loW2WbbXeU995+J9lOx6mELS1NUqbt+H0hsPwmTPsQgAAEIOCFABFY9tQQWPbMiMDywIwqEIAABCAAgSAJlILASqikiivEaKS79DGKaUHdEo2F6hBEDm+zJVBzUYWilbLNNtvLu2/Mzek0lKkQa2xqlPqGpUnXZUaopyPq5eTQ0v4bGpbJyOEju/Qbkt/+4WK56LxztYxb3q8LgeUXWdqFAAQgAIHeEEBg2dNDYNkzQ2B5YEYVCEAAAhCAQJAESkVgvfvBh7Lphht1Q/nyf16S9TfYQMImIirtSkhMTwOskopodXb4VTp1u5xILXOZPzN8XV/da98D5a47bxM9fLD9SgmsSk3WXlVVlaxvvuy2EdHoK5OI3qSOX0HO+ezG3kMpBFav8FEZAhCAAAR8IoDAsgeLwLJnhsDywIwqEIAABCAAgSAJlILAisdj0n/QStK4dEk3lE2tzdLY2NAhiRwRlZD7/vYPOf7oIzKj1zJhjea6/MrLZaddd5EN11vXPW0wmS4rJawWLloiDz54v1xw4WVS+9285NbDlIhKbUNMyOAhw+TzLz6VVs3TFdZoMVE1ZS4jtdZfZwNZ+N38zuPQjmJ6T+F2QebPCkFg+cOVViEAAQhAoHcEEFj2/BBY9swQWB6YUQUCEIAABCAQJIHSEFiaAUtPCnRzV3VcZWVlMn/Bt/qybtlLbt8z8uqxx5+Www45yOzl64b+5FNPlSlXXimNGgHlRj/pVkNNyh432w2TubGckwrNx2YroHMCYULKyyrkmef+Jfvvu6+0tpiTCTtfAwYNkXlffiytaq06xFRC/vKXe2XCSSd2KR2Sr+bPk5Err+Lr0kBg+YqXxiEAAQhAwCMBBJY9OASWPTMElgdmVIEABCAAAQgESaAUBJY+gGguq6gjmzqukOywxz5y/1/vEPVLySuhcqlFVh6qYsh5MbX1LyTrrLu+vPPuW9LS2uJ4LddPpYsqtwmnVvJ1o6+cD00GrpBm2UqeIPjo35+QXx5+aHufqXHtsMtucr8miU+N0ois8vKoVJXrNsYu8m3ajJtkwonHpIm33K8SBFbumdIiBCAAAQj0ngACy54hAsueGQLLAzOqQAACEIAABIIkUAoCa/7338uqqwzvhrExVi9Ny9xTCeOqnsrCUanp16/zKYMqjqZNv0EOU+FUFirTcmaLX0eidQnp5wkjp1IWzOgnI6zc7kJixJlbJ3UlEi0ysP8giWh/RmylX98tmq8nDFa6fYRDUhGKai6u7gJrjfV/KJ++/25Xr5XTpYLAyilOGoMABCAAgRwRQGDZg0Rg2TNDYHlgRhUIQAACEIBAkASKXmCpV3r4icdl3z326oIxIW2trVKv+a/iGqEVVVk07YYZ8pvzzu9U7oprrpDjjj9BtwlqQ7pV0CR3j0q5bhhslQHV/WVR7SI545yL5MNPPpYF8792tgf2HzhY1tKIrQP32V2OO/Jw3W7YKK1tbU5mq3gyEsucIFijYirSHhnmCjDjvRbV1UlExVirE7gVl2GDV5V4W4tRWsnf2pLmy0rouP00WAisIN959A0BCEAAAj0RQGDZrw0Elj0zBJYHZlSBAAQgAAEIBEmguAWWxkup4xk4bIQsXbwgKX+SNHU7X31DvYolNzqqLBpRITWgkxAK62l/CxZ+q94qotsCk5FXKpaaGxtl5CqjejhXsJsnc/rd5mc7yyOPPpDcrujKKnVmsmBBrayz1lqpQTmSbEndIolp5Jd5QE/EE/LLY46TR+6/v3PDKtRMcvrUQ7wfawSB5QdV2oQABCAAgd4SQGDZE0Rg2TNDYHlgRhUIQAACEIBAkASKWWCltvWFwxqx1GWrnomlWrhkcbsAikbDKrBq0lAnpLGpSZraE667+bBimgNr2NCVPU3JiFEj5d333jFp39vrmzGOXHU1aWxY2v5aNBKW7xaZsenGRv36XXf9WRO5T+zWpyOwPI0ku0oIrOw4UQoCEIAABPJLAIFlzxuBZc8MgeWBGVUgAAEIQAACQRIoboFlMlvp+YKdBJabnH3VEavJfz9QmZRMXbXPfmPlhWeebkddVlYu39Yu0BRXaTmv9KuDawa2y7BhmlfryinXyOqjRsg2W26RNk0x3VpYK8+/MFduu2W6PPnPf7pfUxnV0LxMmlvakp/q6DTK6p13/yvbb/PTjvpablFjvYQ0OswIrM8/+0o2G71Jt2WwsH6hDOk3yLflgcDyDS0NQwACEIBALwggsOzhIbDsmSGwPDCjCgQgAAEIQCBIAsUssEzElEldFQ5HuuWKOkYjmq6+4mJny555EB46aIjznJK65s37WqprNHl6UnC5IiwkA/v1Tx5BKLJ42RLd4pd0U0aLuUcTdpuusYceJ8/8w2wB1Kivuu81/qqsUxk9aFATtasYa4+nCkntou9FnPxYIpUVZV1OInSjwa7TnF0TTjpetyL6E4eFwArynUffEIAABCDQEwEElv3aQGDZM0NgeWBGFQhAAAIQgECQBIpZYJnopXi8VT2QnurnbCHskEunnXmWXHzR+fpKWCrLy6WqIlXGpR3XBO9Lmhq1SvoJgiEZPMDkyTJJ1BOyrKlBWrSc6cfJV5X8s+t8bbzZNjLvk/ec/huaOiKwUuVMnNjQmsFp1RLy4twXZMP13KiryrKIVFUmxZkjudwosglnnSPXX3Gpb8sDgeUbWhqGAAQgAIFeEEBg2cNDYNkzQ2B5YEYVCEAAAhCAQJAEilpgqehZonmuBg8elkSYkj8ijz3/jGw55kdGVelpgP3STgM0RU2k1GKJOAcPdkQ3RfTjmv5JgaUCqaFxqTSrwFrelVABtvKQYdIWiznFzImETc3mRMGOy+ioPffcR/794r/aXzz7/Avl/F+d4XxeXlYm/SqruuXx2mqbreTlF15wgr78SOaOwArynUffEIAABCDQEwEElv3aQGDZM0NgeWBGFQhAAAIQgECQBIpZYBkR9c2338uIVVfthnBZ81JpamrVYCqVUlX9NErLbNdLySrNQaXiywir9PgrE2E19pDx8uzjc5z2Xn/zDVlr7dQJgt1nyZQ3CeQHpaSXfl7XuERibgqs9stIrrEHHibPPvl48rWEHHjksXLr9GuczyM6rJr+mmC+SyL6jTcZI++8Nde35YHA8g0tDUMAAhCAQC8IILDs4SGw7JkhsDwwowoEIAABCEAgSALFLbAkKbCGd0PY1NKgEVTNmiBL81qpwIp0EliiAqvWyS3VNaNVS2OTrLKKEWIJOfeC38p5kyfrx1oulQ2+Q0s5kVFVlZW6PVGjp/QKR6KycPHCDHmyQnLA2ENVYD3mtGva22Tr7eT5xx92W1OBNbi/SR7fOdfVRptuJu+88aq+3HGqYS7XCgIrlzRpCwIQgAAEckUAgWVPEoFlzwyB5YEZVSAAAQhAAAJBEih2gTVfI7BWXbW7wGpsbZDGhnSB1TmxuhFYmbblVVeUS0W5Jnd3XFJCauvqktKp+yxpCnl5/tkXZP9993G++NuLfy+Tzjg143SOPeAQeeap5GmFWmL0T3eQZ//xN9dfqZ8a1C8lsFzBZS4jsN598z++LQ8Elm9oaRgCEIAABHpBAIFlDw+BZc8MgeWBGVUgAAEIQAACQRIodoH1zbffZdxCmC6wum8hFKk1AsuJrOpMP5EIyygVYg0NDc4Xnn/xRdl4zIYSioVVV8WdOuYyH1dEy6WfRnelIqdM0vfWFk363iWuyyipsWMP0QislMBKyCHHnCg3XXuF05bZ5jion9lC2HkwG6vAevuN19w+fTiIEIEV5DuPviEAAQhAoCcCCCz7tYHAsmeGwPLAjCoQgAAEIACBIAkUvcCarwJrRPccWM1mC2FLTLf5xTLmwKpdWif6JXVGnTcRJnQb4CDdFmi2A7rWKC6f/u9TGbzyUD2w0KgpPZFQX41GymVAdUfi9UFDV5JP/vex7iOMSVglWOcrLrvtvp+89nJHEvdzfn2hnHeum8Td6LDBA0wEVud6bgTWq/p8ZXJtRXK+TBBYOUdKgxCAAAQgkAMCCCx7iAgse2YILA/MqAIBCEAAAhAIkkBxCyzd4ldbK0NUHrmyqUNG/eedt2SdNdZwcmANqKzuksRdtZRmWl+8bInW6iyGoqadcEK2/9mu8sbc1zqmRhOxhzXiasCw4bJk/hduf07ElDnK0CRvr5dWJyN8SMLx9NTwbpGhQ4Zqn+5JheaFa66/Xsb98ijns7KykPSvTI/ActvdYuut5BU9hdCPEwidkSYjvmrrVeaZ2+maEMzjwjTJ7YfUqJDTq7GxUSpVCHJBAAIQgAAEsiWAwMqWVEc5BJY9MwSWB2ZUgQAEIAABCARJoJgFlpFQRlBFwprfqsv2u3PP/41GOE1WMaMb8PR3+0mBSdixtmapX9bgfD3TFQpFZIuttpYP//uuI5N63MOnYqtFxdQy01byTMPuwikkg2tUUKXtA/z8qy+lpmaA03V5tEy3Ipq8W53HMu7Ek2Xm9GlOGT8kFgIryHcefUMAAhCAQE8EEFj2awOBZc8MgeWBGVUgAAEIQAACQRIoaoGl8sjIpUhYt/s58qdDAI07YYJce9VlEtN9giYiaKUhw5znlNQ1VyO01lpjVLcILPN1U17NmNPchx99IFv/aAv3tXbB5EZdHT/hNLn6yku0Xe0/0dYt91Wqr0g0LDXVRlZ1jG/R4u90x2C5U6SyLCpVJpdWl0RXD/79Edl7t90deYXACvJdQt8QgAAEIJBPAggse9oILHtmCCwPzKgCAQhAAAIQCJJAMQushAosk8MqFDICq3P+qLXWXVfmzv1Pu3PaeMNNZJ5GPaWuXfbeX+b85XaNmep535yRVk6id61UURZx8lCZ/uLxsLTFWyUWUyGW3HvnlO0hmquqokIqKzRfVurSBuuW1Uss7m4p/OKLeTJ6442SX+3YCrmwboEM6T/Yt+VBBJZvaGkYAhCAAAR6QQCBZQ8PgWXPDIHlgRlVIAABCEAAAkESKGqBZSKqTMoqk+C8i8AyEVK1dbXtr//q/AvlpuuntqOORiPyXe3CrPI+OQFZSdFlTgw00sokh3fzYIlm0QolNw9mnsk3335bdtx2+zSBFZfFS5eI5mZ3orpunzVbzjztdLe91KWdxjWqSzNq+bY8EFi+oaVhCEAAAhDoBQEElj08BJY9MwSWB2ZUgQAEIAABCARJoJgFVopbzZDhUq9b8joLoLg0Ni+TJj2J0FzRqCZzrx7ULqL0SEGNgqrTKCh/6ZvIrMOPOEIee+Tv7R1FI0aeLZKIRnPFVGJts92O8n9vvZEcW1Jiab2ESfpuhJlPFwLLJ7A0CwEIQAACvSKAwLLHh8CyZ4bA8sCMKhCAAAQgAIEgCZSCwHrymedl15136pBTSaBtbU1S39DkbO2rKi+XigpzGl6HEKrX0/fanDxa/lxGXoU1NmvwoGHJvFpuPxMnny9/+O1ZKqdM7FZCBg4wJxCmR1q5ObYSxm75F4DFKYT+TDutQgACEIBALwkgsOwBIrDsmSGwPDCjCgQgAAEIQCBIAqUgsBbV1srQocO6YbzrgTmy6+67SKgtJmUSlZoB/ZOiyM17dcpZ58olF/xat+q1aqCT5tHK8WUEVv+qSikvT8t/pX0kNPfVkoZ6zaMlUq25taorzbg6R1r9YOPNNSrr1W6v53KIRGDlkiZtQQACEIBArgggsOxJIrDsmSGwPDCjCgQgAAEIQCBIAqUgsBKaCyscSZ1E2EFztTXXkrfeelNTVrXq76hc+vvLZMoVlxuFpL9NLqu4LFyyRHNo+bNNL6ZbBG+68U759dmndQxK+/x+6WLVaVEVZwlpalgiI4evnvx6RwL3O/70FznqsEMQWEG+OegbAhCAAAQCIYDAsseOwLJnhsDywIwqEIAABCAAgSAJlILAimmy84qKARJra0lD6W7DW9y0RKRVt+Np4vWyaJn079fPlVfJa978r6SqutqnZOmtMmzwcD2t0M3DZa6ttttB/v7IA8nte3E54MBD5dknnuiyBMz2wVZ9zSSn9291EIHlH1tahgAEIAAB7wQQWPbsufFy9AAAIABJREFUEFj2zBBYHphRBQIQgAAEIBAkgVIQWHGNwLpmxm1y1qkndUPZ2KKJ3JtbJJwIa9xVQgYPHJyWjyohK626unzwwVu+CKyqskqp1C2E6VdrW7PUL2twXopoMveB/QfoR10slUZpxWMq45wcWf4lwUJgBfnOo28IQAACEOiJAALLfm0gsOyZIbA8MKMKBCAAAQhAIEgCpSCwEnFVU6G4CqFyRZncHpiEGi2vlO8WzhfdzeeIqyeeflIOPeCg5FfNNsKE1Dcuk9a2Ni2jSak6JVP3ODNGloViMrRmkI6mQ05Fy8rk+wVf62tl2k9cli5ZJquvtlpaJ+7Yt9lhJ3nhycedEwjNL78uBJZfZGkXAhCAAAR6QwCBZU8PgWXPDIHlgRlVIAABCEAAAkESKAWBFYs362a7conoSYMmGqvTpYKqsblBf7vbC8vKojKgSrcRpomqsopq+ebbzyUcrVCv1PtTCeO6pfHzz+fJ5puO7hBlqq2efu4F2fxHG6szi0soFpfV11xP6hYvTkq31KhDsqRuiW51rFKhpvrKp/xcpjcEVpDvPPqGAAQgAIGeCCCw7NcGAsueGQLLAzOqQAACEIAABIIkUAoCK8Xvtj/fI+OPOrwbzu332Fceune2aKp3J3H7K/9+WfbabW8tZ2SVG+F08WWXy8RTTpBoWKOn4iGJa4SU7WWiwEIafVWhWwOrq7ucLKj9GjFloqpieuphjX49GjXbC1MRVuZP7VOFmxFcvia/St4YAst2hikPAQhAAAL5IIDAsqeMwLJnhsDywIwqEIAABCAAgSAJlJLAMlsJw1FNfN5p25172mCDRmE1tbZIRHfpxVRSDemnuae6bBesq69VhWROB9TthB627iV0n2K5tl0zYHCXSLCQfDn/S+lfbfJdJVRgxWX9tdeXRQsXdJv6l155SbbeYsu8LAkEVl4w0wkEIAABCFgSQGBZAtPiCCx7ZggsD8yoAgEIQAACEAiSQCkJLE19Ljvvtpc8+2TXU/1E1t1gQ/nPqy9qbioT6ZSQas2NVVFR1Rm9yq2PvvhAVhqyqhMFZU4udKO0OrbbpVfQYCmnLefST8p0C+MqKw+XhqVLO7W70267y5z77tYyJjeWyICKCimr6JzcPdVGPB5z5Zl/qa/ax4bACvKdR98QgAAEINATAQSW/dpAYNkzQ2B5YEYVCEAAAhCAQJAESklguT6pTcLhiowC6P0PP5Thq67sJHMPSZtc/Psr5Jorr+yG/5fHjpPrpk3T55o2x1+lHqS7z5NuSdRk7eqc5LNPP5MfjRljCncupiJs8bJ61VwqxOJh3cSYkEEDajImiz/r3PPl8ksv1F2GJorM/wuB5T9jeoAABCAAAXsCCCx7Zggse2YILA/MqAIBCEAAAhAIkkDpCayYHHjI4fLAnL8q1q4ySU8cbFkmbS2a0N1EQ6lU2nufA+Wl557uUtbddnj11OvkpOOPdWKsWmIqxlROaYaqZFndrqjbBb/49EvZdJONOp022D6f2kZzS7OzfdG5tP6eex0kr/zL9NflUqlmoq+MXDPt5uNCYOWDMn1AAAIQgIAtAQSWLTG2ENoT0xrm5J+p02fKpInjPdUvtkqpN9a4ceNk1qxZxTZ8xgsBCEAAAhCQUhJYJlzKHCJoRFMorFFMXaOhdL7LddvgNwu+kbDmywqpKIrFYrLrHnvL66+8mFwNGfbumaTq2taglVZTrxWXpuZGaa5fmGw/814/86qRV3XNTSZ1vI4sJM888YQcPPbAjKvuX/9+Rbb9yU/yuiIRWHnFTWcQgAAEIJAlAQRWlqDSihGBZc8MgeWBGVUgAAEIQAACQRIoLYHlkozpr3/969+y48+208/cnFfp16jVV5e333nLyUcVloiEVVA99uRTcujYsRmlV+b5SUVima+m+nBlVmV1P5n/vUqyWJO0JnQ7o25X/P67BbLBeutnaCoh/WoGSX3t9+rI8rN1MDUIBFaQ7zz6hgAEIACBngggsOzXBgLLnhkCywMzqkAAAhCAAASCJFCKAstsDTTOatAqo6RuwXfdBJbhvebaa8mbb7yuJSMqsnR7oP4qKyvTEwSHSLytuYcpSZdW6eIq+bqKsH+//pqss+66TnvuA3hIXnz5Zdl79z3SRFd683oqoUaBaem8JG5P7xmBFeQ7j74hAAEIQACBlbs1gMDywJIthB6gUQUCEIAABCAQIIFSFFgGp8klZSxW2NlKmDmnVLSsQk8MXCwNutXPTQDvqC+pCEVll71+Lq88/5w7M+1bEVORVmkiS+sMHDZcHn7oftlk9EbahhuFlUhoZvdwQn53wWUybcpVGWbYbeP/PvhA1l93nWQXeTh6MG0kCKwA33h0DQEIQAACPRIgAst+cSCw7JkRgeWBGVUgAAEIQAACQRIoVYGVYmqim6LRsp63BqqAuv1Pf5L9999HYuqUjPiKJIVVQv+sqojKN98tkrv/fK/ThnuCYUhGrLaKHHTAPs7mweYWlVXO+YJ60qCWiWg7oUhIBvYfZFRWD9MbkiumXiOTJ5wi4Uh+tw6mBoTACvKdR98QgAAEINATAQSW/dpAYNkzQ2B5YEYVCEAAAhCAQJAESl5gabL2cMhEYkUzRFKlkVfx9Pzzz8uYzTeVtlZNuW7MVFiFldbX/ySiCd/dqC7TjNnup7/VWyWiKrySZRLajym83Q67yn/fnGtKOlFdXQ9DNG0ccvgRcvedtzuCK9RDhJjf6wKB5Tdh2ocABCAAAS8EEFj21BBY9swQWB6YUQUCEIAABCAQJIFSF1gptom45pmKGImVeTth+xxoHqvNttlJHvzrnbLSsKHS0qop4eOtroxKnicocW3D8WFxJ3dVv/Jy+e2ll8sfL7yox3ir9Dk++Iij5J7bZ69wKH6vCwSW34RpHwIQgAAEvBBAYNlTQ2DZM0NgeWBGFQhAAAIQgECQBPqKwIrFzfa+uJSFzXbCFUgsR0Mlo6eSH5uAq4GrrinR8ipZ8u2X0tpY3zFt3dpLP5XQzcWVCsN67e3X5UcbbaqftmkPOpYALwRWgPDpGgIQgAAEeiSAwLJfHAgse2YILA/MqAIBCEAAAhAIkkBfEVgpxvFEq+ywx77yryefUK9kUrbnKXG69tXY2CAVFZXJ0wmDnHW3bwRW8HPACCAAAQhAoDsBBJb9qkBg2TNDYHlgRhUIQAACEIBAkAT6msAyOa3MNe/b+bLGaqvps0t6kvVU5FRqRtJOG+xxkrrW6VJQc2BNm3GjTDhxvCOMTP8hzadVCBcCqxBmgTFAAAIQgEBXAggs+zWBwLJnhsDywIwqEIAABCAAgSAJ9DWB1a6mdEuhScT+zPMvya4776jPMOYkwRxeKq6OP+Vkufn6aVlsWcxhvxZNIbAsYFEUAhCAAATyRgCBZY8agWXPDIHlgRlVIAABCEAAAkES6KsCy+SlMqcKamYsiWgOq8X1dXLQwYfJU/98vFfTMXjoSnLX3XfJrjvtkNycGNwpgyu6EQTWigjxdQhAAAIQCIIAAsueOgLLnhkCywMzqkAAAhCAAASCJNB3BVZm6omERmIlwvLIU8/JRb8+Xz744D1pbm6WttZW3f6XjNLSyK1ItFzC+udGo8fIznvtLn/41XlSoacRmoMKQ/nKq9XLhYPA6iVAqkMAAhCAgC8EEFj2WBFY9swQWB6YUQUCEIAABCAQJAEEVmf6cXNaoUZmhcNx3WEY1Y/N191cWOZ1J4+V+6KW0a8kTA4s94TDcCLqbEsslguBVSwzxTghAAEI9C0CCCz7+UZg2TNDYHlgRhUIQAACEIBAkAQQWEHSD7ZvBFaw/OkdAhCAAAQyE0Bg2a8MBJY9MwSWB2ZUgQAEIAABCARJAIEVJP1g+0ZgBcuf3iEAAQhAAIGVqzWAwPJA0oTdT50+UyZNHO+hdvFVST34jRs3TmbNmlV8N8CIIQABCECgzxNAYPXdJYDA6rtzz51DAAIQKGQCRGDZzw4Cy54ZEVgemFEFAhCAAAQgECQBBFaQ9IPtG4EVLH96hwAEIACBzAQQWPYrA4FlzwyB5YEZVSAAAQhAAAJBEkBgBUk/2L4RWMHyp3cIQAACEEBg5WoNILA8kGQLoQdoVIEABCAAAQgESACBFSD8gLtGYAU8AXQPAQhAAAIZCRCBZb8wEFj2zIjA8sCMKhCAAAQgAIEgCSCwgqQfbN8IrGD50zsEIAABCGQmgMCyXxkILHtmCCwPzKgCAQhAAAIQCJIAAitI+sH2jcAKlj+9QwACEIAAAitXawCB5YEkWwg9QKMKBCAAAQhAIEACCKwA4QfcNQIr4AmgewhAAAIQyEiACCz7hYHAsmdGBJYHZlSBAAQgAAEIBEkAgRUk/WD7RmAFy5/eIQABCEAgMwEElv3KQGDZM0NgeWBGFQhAAAIQgECQBBBYQdIPtm8EVrD86R0CEIAABBBYuVoDCCwPJNlC6AEaVSAAAQhAAAIBEkBgBQg/4K4RWAFPAN1DAAIQgEBGAkRg2S8MBJY9MyKwPDCjCgQgAAEIQCBIAoUhsGIiiYhIaPkk4gktomVWUCxjI3Fpk8v+OEX+eOklctBhR8usm67LWO6qa2+Wi357dvvXbp39Jzlk7D6e+uzaQSKhN6BX6sF8eXebiMUlFA67RbzccBaLCoGVBSSKQAACEIBA3gkgsOyRI7DsmSGwPDCjCgQgAAEIQCBIAoUhsETuvu8hOeyQA5aLIt7WplLHo81RefS7iy+Viy+6QH7xy+Plrtk3ZuwrFFaRlnb96e45cvgh++fEIf1km53kP688J4m4CrvlXgm9z6hsuPEYeffN/zgCKxvpZbuOEFi2xCgPAQhAAAL5IIDAsqeMwLJnhsDywIwqEIAABCAAgSAJFIbASsjdcx6Rww7ef/laJ9bWQzRSSmqZCCfzcepP96NEQqOZkq+bICjzYLx8IZSMlFKJtFyB5XST0PbdYZvoMKd//VxfTevDfJaQISutJosXzu8ksDpG6tYxjYUkLKFIRIauPEK+/+bzZDsd4s4pZ+5IyybMvbTfr1vftJCN8EJgBfnOo28IQAACEOiJAALLfm0gsOyZIbA8MKMKBCAAAQhAIEgChSCwjI65Z45GYB18gCt3jMSJRB0sMZVWM2ffKccfd4wkNAJLNALLCCkNUdJycZl4+mSZfr27HfDCiy6WC35znhstZb6uV0L3HSZUMl1x+RWuXNL/Kquq5YzTTl0hdhON1ZPAcpyV9n/b7D/LaaedLo3LlsiGm/xYHn7wXllzjdXNF3Wo7hjiWu6KK66Ui35/mTQ11Mtll13q9q2NRMsr5KxJZ7if6n1/8ukXct9f75Lzzvu19OtfI785/1eOJDNlNx79I9lrjx31FjRKzDBKtr/7z/eXfz72sISV2eV/vEwmTTpT+15xpBoCa4VLgAIQgAAEIBAAAQSWPXQElj0zBJYHZlSBAAQgAAEIBEmg0ARW3ERZGfkTKXOlTrzNkUTjjz26XWAZefPu/30gm2y0URJdKurK/XTJkiVSM6B/O9ZzfvMHufLS37V/PnSlVWTBt1+vEHvPAqsjQitTI7vtua889sicdsH0t0f+KQfsu2fGsbr36G4pNK0OGbqyLK5d2OPYYrFWjc8Kq5SLy2NPPi977bZLsmbnKvG21o4cWj20hsBa4RKgAAQgAAEIBEAAgWUPHYFlzwyB5YEZVSAAAQhAAAJBEigEgeXef0xiZntfQjfQafLyVC4qI3cSohFX+rq5zENtXAVWJBmhlRJe7ja6iLP1zlzmdadsPK7tJbcSmtgl3RY4dKWVVWB9s0LsmQSWk1w9Epb1N9pMPnr/HRl7yBEy5+7btcO4M8SKyn7S2toijY0NUllR4Y4lEXO2BQ5eaZQsWfStI+Wcy9kC6G4ZdD419+lsdtRfGv2V2kLobFHUyDOHgLMFUksql0i0ynmhJdYiZRqNZcq989/3ZfSmm3Ri0NONIrBWuAQoAAEIQAACARBAYNlDR2DZM0NgeWBGFQhAAAIQgECQBApBYMV1m58jmRxJpYJIZUy6wNLQK3094uZ7Usfz9n/fk9GjN5HpN8+Sk4470o10MkcUquTZd/8D5OGHHlKB1aymR4WWI7bM5UZphcJlvRJYbltuknVzuSItLeeWbhc00mydddaVjz/6IFk8mQNrldVl8YJvOiKulnMqYbvA+vpzvS/lkbZIEnqi4jPPvCg777yzk3fLCL+O3F9m26Ub0dXU2CgVFeU9Li8EVpDvPPqGAAQgAIGeCCCw7NcGAsueGQLLAzOqQAACEIAABIIkUAgCK9P9dxJYXQrcftccGXfEIfLgI4/J3nvu0p7vyeSaOuGUM+W2m65XgdXqSJ2uycwdMdSLCCw3z7oKt6grsHq6Vl5luHz7zbxOXzYRWIsXdggsI+tcaWcuM9aO4imBtWD+5ya4y5FUpl8nIb0Ku6efeUZ22WXX5Y7hu++/l5WGDumxDAIryHcefUMAAhCAQE8EEFj2awOBZc8MgeWBGVUgAAEIQAACQRIoRoHVnuRdjU9Ccz2lzI+z004FlbniGoWUOhQwnW+vBZZ7vqBu7xsptQvmy0cffyLrrr1mpyk0oilkQsVMsvW0yxVY5hTC5BbCpMA69BeHyz133ZXKO+/UMOMcMHCobjn8RtvS6DNt88lnnpdXX5sr559zprOFMFpWoRFgZdLS0tCeMD7VnZF5zlbE5SRzR2AF+c6jbwhAAAIQQGDlbg0gsDywNCHzU6fPlEkTx3uoXXxVUg9+48aNk1mzZhXfDTBiCEAAAhDo8wQKSWClC6iuE+NKn1SIUkJm3DRbTjnZPG90TuBu6r39zrua4P2H+lEyp1Ryu1+myTaiKKY5q8xWw5f//apss802Pa6J31z0R/n9b892ZJK5zKl/7tV9DEOHrSQLvpvfqa1pM26R0yaclLF9R7i1R2AlpF/NEGlYWpex7YTm94przrCrrrlRzj3r9AztuQ19/c1XsqpGgvV0IbD6/NsfABCAAAQKkgARWPbTgsCyZ0YElgdmVIEABCAAAQgESaCQBJbhcPjhRzgZpRyZ5UQ7ifTrP1BuuXG6RiV17LFzHFIoJjvutJs89+yzDsL9999f7p9zr0nV7iRHdyK19NdRRx8jMROp5bTrvpa6jjz6WNlzt52c10ydIw4/MlnOaCk3t1Uqw9Udd9yhEU+aj8oxTWY7n8hJE8+U2TNnSktzgyZVL5Mxm42RE086TY4bd5hJydXpMtv/pky7RS684DeytG6RDB+5uhx15JFy+aUXOwngOzJdmbYTsve+Y+Xvjz7i9DVy9bXkkkv/KL887EDHlzm3lxzZRptsJu+/947T1ygtt/22W8sdd86SiEZudUi/7qsMgRXkO4++IQABCECgJwIILPu1gcCyZ4bA8sCMKhCAAAQgAIEgCRSawAqSRV/rG4HV12ac+4UABCBQHAQQWPbzhMCyZ4bA8sCMKhCAAAQgAIEgCSCwgqQfbN8IrGD50zsEIAABCGQmgMCyXxkILHtmCCwPzKgCAQhAAAIQCJIAAitI+sH2jcAKlj+9QwACEIAAAitXawCB5YEkSdw9QKMKBCAAAQhAIEACCKwA4QfcNQIr4AmgewhAAAIQyEiACCz7hYHAsmdGBJYHZlSBAAQgAAEIBEkAgRUk/WD7RmAFy5/eIQABCEAgMwEElv3KQGDZM0NgeWBGFQhAAAIQgECQBBBYQdIPtm8EVrD86R0CEIAABBBYuVoDCCwPJNlC6AEaVSAAAQhAAAIBEkBgBQg/4K4RWAFPAN1DAAIQgEBGAkRg2S8MBFYPzBKJhPOV1KJKL4bAsl9o1IAABCAAAQgESQCBFST9YPtGYAXLn94hAAEIQCAzAQSW/croowLLyKlQj7Ti8Zjcfd+jcvDB+0pZhmIILPuFRg0IQAACEIBAkAQQWEHSD7ZvBFaw/OkdAhCAAAQQWLlaA31SYMXjbRIOhdVh6e8MVyKekGtmzJSK8jKZcPyRWqJzOQRWrpYf7UAAAhCAAATyQwCBlR/OhdgLAqsQZ4UxQQACEIAAEVj2a6BPCaxEIuZsCZx5532yaFGteqlkeJW7WzDtCks4IlIejcgp44/WjxFYBs64ceNk1qxZ9quMGhCAAAQgAIGACSCwAp6AALtHYAUIn64hAAEIQKBHAggs+8XRxwSWRlZdd6uEoiGJxeNSVVHVAzEjthKyyYY/kO23/Yl+3HkfIRFY9guNGhCAAAQgAIEgCSCwgqQfbN8IrGD50zsEIAABCGQmgMCyXxl9SmCZrYPXTJ8tA6qr5fhjD1MtlTkPViqBu5FYIbN9sEsxBJb9QqMGBCAAAQhAIEgCCKwg6QfbNwIrWP70DgEIQAACCKxcrYE+JbBisTa5bsbtMrCmvxxz1CEZTxh0wSaktTUmUY3UMvmvup5EiMDK1fKjHQhAAAIQgEB+CCCw8sO5EHtBYBXirDAmCEAAAhAgAst+DfQxgRWTq6+/TSLRsBy0z+6y+mqjMkqsRCIuU2fMkvKyMs2BdRQCS/OGmYscWPZvMGpAAAIQgEBhEEBgFcY8BDEKBFYQ1OkTAhCAAARWRACBtSJC3b/epwSWuX2TyP3qaTMlEolIVJO4h/XPblciIS1tbRJVgTXxeARW6o2FwLJ/g1EDAhCAAAQKgwACqzDmIYhRILCCoE6fEIAABCCwIgIIrBURQmDJo489Ix988okk4nr0oIoqcwBh1y2CbtKrhIQ1/dWZE47vRo0thPYLjRoQgAAEIACBIAkgsIKkH2zfCKxg+dM7BCAAAQhkJoDAsl8ZfSoCKxZrlamaxD3WFpOzTj9eBVWG6CujrnQLodk1l0iE9LcRWWqy0i4Elv1CowYEIAABCEAgSAIIrCDpB9s3AitY/vQOAQhAAAIIrFytgT4lsIyMumb6TNlw/TVlj113UoaZTyE0YVkmNiuu2w3DEpGQbjVEYJEDK1dvOtqBAAQgAIH8E0Bg5Z95ofSIwCqUmWAcEIAABCCQToAILPv10LcElkZgXX3DbNVWYTntlKMlGgmbXYQZIqza5Iqpt8hWW2wmO2y7hVItvQgsI/O6b53MvIBMBJopf8wxx8jMmTPtVxk1IAABCEAAAgETQGAFPAEBdo/AChA+XUMAAhCAQI8EEFj2i6NvCSzl09jSIjfd+ieJxdrkhKOPkMrKiMqZzlsJI7q1cNqtt6m2isppJ43r06cQpm+hPP744+Xmm2+2X2XUgAAEIAABCARMAIEV8AQE2D0CK0D4dA0BCEAAAgisHK6BviWwNIro6mm36QmEmtvK3SfoRBZ1jUQyWwZNkvdouQqsE8Z1w13sObCuvvpqOfvss517z/ZKMcq2jilvOHFBAAIQgAAECoEAAqsQZiGYMSCwguFOrxCAAAQgsHwCRGDZr5A+J7Cuuk4jiDSl1WEH7qPiymwNzJQHKyH3zHnEFVgnlp7AmjJlikyePDnr1WLeWNmKq/RGvdTJelAUhAAEIAABCFgQQGBZwCqxogisEptQbgcCEIBAiRBAYNlPZJ8TWNfPmC0tra0y6fTjVF1lPoUwHo/JVdfeIj/50WjZYbutSm4LYbrAmnX7bE1Wn30kVk9LzGhA08xtt94qL734olMMgWX/hqQGBCAAAQj4QyDfAssm1+SK7th8l+7h2JkVVeXrhp05Wlqv2vo60QOmJdT7x57255whNQOdjxsbGzUtRSW8IQABCEAAAlkTQGBljaq9YJ8SWLFYTCKakDyuewfdgwU7J2dPUUkkdOub84TjvtJ1i2GxbyFMCSxzXwuXLDY3qHfZ26e5kD4QJuTYccfIA/ff3/5gZ78kqQEBCEAAAhDIPYF8CyxzB+Y764IFC7I+NKW7pnLVVXW/aqlGjnheFAgsz+ioCAEIQAACPhJAYNnDLXmBZWSUu1Ww++VGCLnyJrVNLpW7KewYrsw/7ywVgWWILKxfImEHQ25+tnvs0eMQWPbvQ2pAAAIQgIDPBPIpsMy31cOOGS/3zNaTe3Py/TUtBkufa8LRcjnmhJPkwt/8SkYOH65dJDTvZPdTlX1GWjTNI7CKZqoYKAQgAIE+RQCBZT/dJSuwjGQKa7RVz+JKZN7X8+XPdz+oD4Jujqe21phsuOHast9ee2g1I7562mIYl6nTZ8qkiePtiRdAjfQthIuW1jkCq7fxV6nbQmAVwAQzBAhAAAIQ6EYgbwIr3iJnXXCZXH3JRV3G0DXa2WZj4PIjpcsqqqRuybdSWV6lfWZ+9unLSwKB1Zdnn3uHAAQgULgEEFj2c1OyAstEXj3xzEvy5lvvyNlnnNQpfD8ei8t102dJwg09kuamFuenl9GyMglHwhJri8uk08ZLQssZCVaqWwjNcjECK1e5IEx7CCz7NyE1IAABCEDAfwL5Elgmr6T7AzQ3snno8JGy7wEHOB+bM5DN5ZyE3PUykVomfYFTzv3TPMvU1tfLh+/9n3z60UfSWL/QrZUxstzUictpZ58vU//4e6cX9/klNxHW/s+Qfz0gsPxjS8sQgAAEIOCdAALLnl0JC6w2ue2OObJEH/wmTTjOfd5LhvHfM+chmTf/WxnQr0bGH31wxxZDfej84JPP5dHHn5JEPCFnTjjG+RoCK/uFhcDKnhUlIQABCEAgfwTyJrBMBHjERHCH9AdjFdLSvMwRUulJ3VcU9ZxROekzirvjP+QcRvPYk0/LUUceLXW133WXVFr2sinXyrlnTOgxjUL+yAffEwIr+DlgBBCAAAQg0J0AAst+VZSswDIobp11tyxZWi+TTz2+E5mrp90iJqH72aeb17sLqq++/kbufeBR6V9VLePHHao/Se28lbCUcmARgWX/pqEGBCAAAQgUH4F8CSxHVCUjsKr6DZCGej0spafL5OJUIZX8YwXFVGAlc3em/2DNRGnd+8BDctghh+gP32Kd2oioSKvX/qsqdWuhRnfFTf6sHtIrFN+MZj9iBFb2rCggfgZJAAAgAElEQVQJAQhAAAL5I4DAsmdd0gJr5qx7ZPEyjcDqkqvqmhtuk9Eb/1B23H7rjCcDGUF11dSb9AE0otsPTZ6rzvkkEFg9LzQisOzfhNSAAAQgAAH/CRSiwDLy6ekXXpIZM2YogNS2wfS875qPU3+tPmo12XzzzWSjjTeWMRtv5CauTIZpmbiskD63aA53+W5Rrayz9jrSsHRpGtCQnPmrX8lVf/i9yqu+uZ0QgeX/+4seIAABCEDAngACy55ZSQus25ICa3IXgWUSsG/xozGyzZabZyQW14fBq6beImVlYTnj5ONUZHV+4ENgIbDs32rUgAAEIACBIAkUosBaadSasuDrLy2xmJNXElIzdBV56unH5MebjnaiqxIhjb5KaFS5tvbsKy/Ljttsm2bCQlLZr7801NW2u6+u6REsB1FUxRFYRTVdDBYCEIBAnyGAwLKf6j4psMwWwmFDhsovD98/Y24Ik//q8qkzNHdFVCZPPJ4cWBbriggsC1gUhQAEIACBvBEoJIFlAqiW1NXJ4EGD9CMT5Z0KqcqUHWtFpxUmZM0NNpWP3n5VT1WO6sEsRnBpm3pQzdCVV5PaBfOTjE2S+JimUGjVSKxo3rgXQkcIrEKYBcYAAQhAAAJdCSCw7NdECQusuNw2+15ZrGH0kyYc6+SNSOWyuuq6mySukurs005IHuTTsUXQyV2hz35TbpjpPORN1jJd80UQgdXzQkNg2b8JqQEBCEAAAv4TKCSBZe72zXfelc1Ga/SUXmeed75c8ttfZzwvMKbbAxsbG+WzLz+TM371O3nx8Ud7OIVQZLW115cvPnrPaTOhmwpDoYg8+Phjsv+eP28HbB6WY20tjjgLmagt6Zzn0/+ZyH8PCKz8M6dHCEAAAhBYMQEE1ooZdS1RsgLL5JUwAqu+YanEY5oZwvwAM7kVMLUlcCfNgTVac0kkDyd0JJf5PefBx+VLTeR+4rGHSHVlPyKwLNYVAssCFkUhAAEIQCBvBApNYL31zn9lzOhNnft/4qknZaef/azbD8yc2CvzbOJkMtBtguaEQ32W0T/kzXfflZ9tv4MsreueJP7uOXPk0P3310cfN0n85199IWutvqbThrnCkbDEWppN9qyMuUDzNil56giBlSfQdAMBCEAAAlYEEFhWuJzCJSuwzM09/OgT8n8ff6ofmQc49+HPuZxTfESOO+pQGTx4gPMTSvflhHz2+Tx54JF/OEW6nl6YwksEVs8LDYFl/yakBgQgAAEI+E+gkAXWk08/KTvvsKMHCAmJ6cmDW2+/o7z20otaP7UdUWSjTcfIO2++pgJMxZd+ZeHiRbLS0JXan4XKyiuksaFeIl1OWvYwiIKvgsAq+CligBCAAAT6JAEElv20l7TAiutDnbv9L/OpO852wVT4VVJg3fmX++XbBYt06+B4DdjKXA+BhcCyf6tRAwIQgAAEgiRQqgLLMHWeZ/RXZf8aaW5saMdcVlYmLU0NEtfHGU2JJV/O/1ZWHzmy/blo9E+2lDf//VKQ05KXvhFYecFMJxCAAAQgYEkAgWUJTIuXtMCyxWEeAMXJGdGz9DJtIrAQWLZri/IQgAAEIBAsgSAEVnX/AbIswxY/QyJ9C6H3CKzuTE88/Uy5edp1aV9ISGtrq0R126CJSH/upVdkh223cz42P+D7l0Zu/XSrrXr4UV+wc5ar3hFYuSJJOxCAAAQgkEsCCCx7mggse2YIrOUwYwuhhwVFFQhAAAIQ8J1AEAKrqt8AaajvnqPKT4Flfsj29vsfyGabbNzBVPOCmvxZbgKFmOx76FHyyH33ul938n9qUq0SvhBYJTy53BoEIACBIiaAwLKfPASWPTMEFgLLw6qhCgQgAAEIBEkgSIFlpJKJ7k7PTOBXBFaK8aLaWhk6ZGjyxMKEVFRVS8OyeidLlhlPJKL5P52Ic5HNt/6pzH3xOSf/Z3pqhSDnK5d9I7BySZO2IAABCEAgVwQQWPYkEVj2zBBYCCwPq4YqEIAABCAQJIF8CaxYLCaRaFRvNSRmC+HSJbXtt50uh/wWWOYEws+/mqenD67R3v+ESZNk2pVXOJKqRbcVVlRUtn+tpbVRyiLlQU6Rb30jsHxDS8MQgAAEINALAggse3gILHtmCCwElodVQxUIQAACEAiSQL4E1r0PPSyH7Ldfl1tNyHkXXiyXXPBr92BkFUh+C6zUAOY89IgctH/HeOqXLZV+la64Gr3FNvLO3Fedj0etsaZ88elHqt3cqKxSuhBYpTSb3AsEIACB0iGAwLKfSwSWPTMEFgLLw6qhCgQgAAEIBEkgXwIrtS0v071uvtXW8p+XXnASpudLYJn8Vquv8wP56rP/OUMqr6ySJpVYJheWidKKOFFX7qnL8bY2HX7mE5iDnLve9o3A6i1B6kMAAhCAgB8EEFj2VBFY9swQWAgsD6uGKhCAAAQgECSBfAusaLRMdv/5z+WZp56UhqVGGLnX8y++KNttvaUKrPdkzOhNnddyeQphN8aa2MqkaI9EzLZG93r1zdfkx5uM0WiwkOyw2x7y/NNPOq//bJfd5Nl//iPIafKlbwSWL1hpFAIQgAAEekkAgWUPEIGVxixhTuLRzxuWNTg/lRzQv78mNE10S2hqkp9OnT5TJk0cb0+8AGpMmTJFJk+e7Ixk0dI6CbnHEuXk4hTCnGCkEQhAAAIQyDEB/wRWQp564kk5aOyB7og1Mfqa624gn3743+QdxOUXx50s98y61fm80pxMWFcrb/9XBdameRBYyVFcdf10Ofu0U80AJao5ulpbmtyvmOcck9DdicJS2aU5vEotkTsCK8dvJpqDAAQgAIGcEEBg2WNEYKUxM2Lq5tv+LA3NzeaHkhKJxeWM007oRhWB1fNCQ2DZvwmpAQEIQAAC/hPwS2Al9IHhqScfl4PHHuTehAqseKzVOXXQ+SGYfj0e16165ckIKBMRFW+Tt00E1pjRThVfI7CSaM3PqsJhzW9lPtAcXIm4biFMGFkVUalWI82Ny5ySrS3NzgmFpSSxEFj+v7/oAQIQgAAE7AkgsOyZIbC6CKwpN9wmEfOAp5cRVWdOOM594OtSjgiszIsNgWX/JqQGBCAAAQj4T8A/gSXy9JNPaQTWAe5NGIGlciikosqIInOZPFSRSJm6I/1cPzbiKG9bCJNozRh+f/nV8rvzf2VGJCuPWEPmf/WxI7RuveMuOeGYo52SG475ifz39Vf8n5A89oDAyiNsuoIABCAAgawJILCyRtVeEIHVhdlV196sx1+bUHojsBIyeYJuE+xyIA8RWD0vNASW/ZuQGhCAAAQg4D8BvwSWUVRPPfGEHJi2hfB3l/xBLjzvvPabev9/n8iG667vfB4OR6WttUnefjdPObCSozDRYE7/7dsF9TknpknbzYv6v5COy/m6SrdYrMV85P+k5KkHBFaeQNMNBCAAAQhYEUBgWeFyCiOw0piZn07OffM9ee6Fl52nud123FY23ugH5MCyWFcILAtYFIUABCAAgbwR8EtgmRtwc2CNde9FI7DMtcOuu8mUq6+UG2++VW6+flr7fV55zbUy+bQJeRdYqQFU9R8oTQ1uUvklS2qlZkCNs9Wxm9hKRo/lbYJ87AiB5SNcmoYABCAAAc8EEFj26BBYacxMZFXIyWieyhFhzu0xSdw7Tu4xxYnA6nmhIbDs34TUgAAEIAAB/wnkW2B13JGTdMr5NFpWLi1Ny5z8WG++865sNjp/ObBS47nhlltl4oknOs83U2bcJGecMN75Qd3oLbeRt1/7t1Ns6dIl0q+6v/+TkqceEFh5Ak03EIAABCBgRQCBZYXLKYzAsmeGwFoOMwSWhwVFFQhAAAIQ8J1AvgTW6B9vKW/Nfa3b/YQiUXn+xec0BZb+YCwcko8/+VSOOeJIp9w106bJj3/8I0cqRTWNwXprryuDB/XX7XxlztdT2/+MCvvw4w9lcX29jFxlpIwaMdztRwWUq8hWfC1avFiGDhnqFKzqP0hPRFzofDzjtllyyvHu6crvvveObLTBhiturEhKILCKZKIYJgQgAIE+RgCBZT/hCCx7Zgis5TBDYHlYUFSBAAQgAAHfCeRLYMU0r1QkasRTSil1RGDZ3qQ5KdBcJsXBU8+/ILvuuGPnJvR1kzDe9GVzamAo7Ob6dBPKu7mx/vPm2/KTzTdzPt730KPkwbtm2w63YMsjsAp2ahgYBCAAgT5NAIFlP/0ILHtmCKzlMENgeVhQVIEABCAAAd8J5EtgxU0+Kef04t4LrJVWXU2+/fIzqVtWL4MGDsrIKKJJ2U1S+GyTric0yits8nSZHFc61pTAam5tlsqKaqeP4WusK998+oHvc5KvDhBY+SJNPxCAAAQgYEMAgdWZlvNMknw+6ekHcwgsmxWWLEsOrJ6hIbA8LCiqQAACEICA7wTyJbDmzZ8vI1cd4d6PPog98ezT0q8qu3xSRi69onmoJp96ejsPE4W13c67ygvPPO28ZqK7Hnzob7L3XnvpZ64ka2ppkIpoRdYMnYdCI7HSIrBM5VRkVvXAobKs9rus2yv0ggisQp8hxgcBCECgbxJAYHWfdxN13toWk/IyN41C1wuB5eG9gsDqGRoCy8OCogoEIAABCPhOIF8C67wL/yCXXXSBcz/PvvCS/GybLbK+t1Q01NBV15Da77526rW0NsrgoSNkWV2tfpaQeCzmaKupN94iZ0442SnzzMsvyQ5bbpl1Px1bCE0Eljmwxr1Sr1dqbqzGZG6srBst4IIIrAKeHIYGAQhAoA8T6FsCy436NgfZuH92zt5pHEtYc4Rede3Nzo63c848yTyZdFsdCCwPbxgEVs/QEFgeFhRVIAABCEDAdwL5EliPPPW07L3LLs79DB85Sr7+8vOsE6yLJnhf2tQgA/oNcEPo9YprTq011/+hfPHJR87n5//uIvnDBb+W6gE10tTQ4Lz2xTdfyWqrrJo1wxVFYCGwskNpHsCH1Ax0Cjc2NkplZWV2FSkFAQhAAAIQUAJ9SWCZ75nLGhtk1h33SVNTkyS6CCzz1JPQ/0VNaoSWFjnnDP0hXYYTahBYBlRMf/qo+SrcvBChNCNofipp8lh0vhBYPf99g8Di72IIQAACEChEAvkSWPFETB8pouaxNA2DmyhdHzPcy3lKSxVJfZIq3lHPPNjGYq3yz6eekT123bUHrPr0Yp5jsj2G0HlgTuXA6kjibpLBR6LlTh+DVhohtd9+WYjT6GlMRGB5wkYlCEAAAhDwmUBfElhfff2t/PWBR5KR38a5dESApx6RnCcifT6KtbbKuZNP6fIs5U4GAkshxDREbcp1N8ukU8dLRI+5jml4/vU3zpKTjh+ney8jGcPbpk6fKZMmusdNF9s1ZcoUmTx5sjPsRUvrJJR6oM7BjSCwcgCRJiAAAQhAIOcE8iawVDiFkyJo+Vapq7hKv2X3G3NTc9P/s3cn8HJUdaLH/919t2w3JIEkgiyKEEAh4AgOT0Q2UWei46AimwayQhIgIYCfmTfvfea9keGJkIQAkQBJAEU2ScCoICQIiAjIKosg+w4h+3aT3O6ud0717eSuuX1O6vSpqv61Igi1dH/PuUnx61qkoU7HMJHdPj1CPnjr9U4ugTz4pz/JkYcfXrGX/gY0vMl8p5u4v/H2u/LpvfYMt/Plr31LHrp7UcXbjPuCBKy4jxDvDwEEEKhNgVoKWJfOmqtu5JmRqZPHqlOE1H/U5YLdvYrqOErf0iD8sq2bV2oD1taipw7Q9H+293r2ry/K/X98RCaMOVX6NKqboKp1Zs2ZJ/XqxmFnTxjdZVXOwOpZk4BVm7/48qkRQACBuAu4Dljf+853wjO4X3vvLdn7k5/qwpFVN18PD8bCJ+yof6y/YcxvCZfL5hrKVwxKRp06f/LoMXLDzy7v8gXaG2+9KYd88UjZsGaVjDzsi/Lwvb9RTw40u2wtry5JrK8v3fBdnylWyG8O//qWO+6Uk7/3nfCvF919t3z7a8fHfUgrfn8ErIqpWBABBBBAoIoCtRSwfjpzrjrGycr554wrHQp1uoSwfGa6fppz+Uys7iJXigNWQeZdf6usWb+hdKMwdZZVT49i1NdaapxiQUmqbyWz6h4UgTrGLAWsHxKwDH6ICVgGWCyKAAIIIFA1AdcB67snnFD6LJlc22cqn9689VpBOfKrx8sDd/9WfbOYkWeff14OPujgcNn77v+9HHvkMeoYRB+yqT/0kZ0+gNNnSrV7qQv+wrOmy1vs6bhme6i333mXnNj2XsefPVWuufyycPF/OfEk+fWvbg/3v0YFsuYB6j5cKXkRsFIykHwMBBBAIGUCtRSwbrx5kaxYuUK+ftxRMmKfPVV26fqUQX0bhsuvWiCt6hLCC6ZOUP2mfEy1beBTG7D0gd+1198s6za2yG7Dh8vmzfobRv3Y6M43oFCn6Ldsko3q5ptDBg8Kjxn1o6U/XrUiPG2fM7DMfpUgYJl5sTQCCCCAQHUEXAUsfdiw9L775HsnlM5e0scQ5ddRKlg9tHSpeppOYevfe+Kpp+TzIw9UAetFOWTkyPDvL7l/iRx71NFOIcIn/qg9fGLPveXDd98K97V8xccyZNBg0XehaGhoUmdjtYZ/P6/ODMup0/fT8iJgpWUk+RwIIIBAugRqKWAF6iShyy6/TrL1Gdl9t91k70/v0WkwS61m6R/+FJ58dMG0id1eSZfqgPWLmxfKx6tXK4BAPv2pPeRb3zhOfbmpz1fLdXh04+NPPCsPP/oXmXD6ydK3X9/wC9AZV81X97+qlymcgWX0qwQBy4iLhRFAAAEEqiTgLGCpMLR0yZIOAWv3T39a3n71la1XC37rpFNk8e23hp+0/8BBsnbVcvnrcy/IwSMPqlrA0qfk67Sm7ytRul5RnW2uDhB12NJ/6HuAlv9+Ud0L1ObsrioNpfFuCFjGZKyAAAIIIFAFgdoKWPq+49eqgFX6giw8cajdq+3WnOGhSOtmdQbWeWd1eyOo9AasNoz1GzbK1dfepJ6soy4RVH/vhG9+Xfbcfdd2B2aBPP7k8/KnRx+XiWecIv1UwFJ3pVC486V/vz4yXt0Xq/NBHPfA6vmnmYBVhV/p2AUCCCCAgLFANQNWoXWLuq9VmItK71Of/aTubVW+PFDfp/PZ59QlhFU8A0vUl3k3LVwkp534vfAt9W8eKOtWrwz/+qkXnpd/OLB0NtjOuwyTjz94r+1yRmPmWK5AwIrlsPCmEEAAgZoXqKWAdcUcdWmgOv753H77yFeP/rL6Qq1jwSrdF2vrXRTabvLe9V7mqQ9YorKVxvjbS6/K3UsfUiiBbG5plfPUzcP0GVb69fiTz3UIWIG69lJfbxmebt/55mJqeQJWz7/WELBq/tdhABBAAIFYCrgKWPogY+mSpbLtHlhZdU9NfSmePoYof8uoznBStyUIv23UZzypM5+efb66Z2Dp46FsrrHtsdWBusXCOunXqL+0C2T/gw6Rl1XE0q8nn/+rHLL/AZyBVcEs1seJg1UI1K8WdSuKpiazG+pXsAsWQQABBBBIsUAtBaxL1FMIs6qtnHf2uNLTkHt8lfpNzT2FsL1HOUTpP990yx2ybMWq8A6o9epgcop6yuATTz8vD//5cfUUwtIZWD2Fq/I2CVgErBT/OspHQwABBFIp4CpgqRwl9+uA9a/lm7hnZe4NC2T8D05T51+ph8gozfUb1qmbou8UuuoDsqK611QpYB2o/47Te2CVLhEUeeCxR+TYLx1Zeg/qj/b35SrdLL70LWfQ7n5daZkInIGVlpHkcyCAAALpEqilgHXp5deo2xXk5Jyzxqg/dz2zqvSAmqLct+QRWbd+nZzw7W90O9g1cAZWx8+tD+Ra1SOjr/zZL8KzsQJVAYfsPFhWrlwlE0af3HYJ4fZ/MAhYBKx0/dLJp0EAAQTSL+AqYOlvxJbe1/EMLK15/KhvyT133SGTpl0oV8+euRX4P3/83/K///1HVbsHln5yYVbf/6quIfyCTr+u/fnPZdypp4R//b8v+on81//69/CvP7nnnvLOG6+nbjIQsFI3pHwgBBBAIBUCtRSwNm3aJHPm/UJ9USYyddIZYcxq/wq/cFN/Y8aV16kv+opy4dSJW+/E0H65GgtYpa5X/t8PP1ohN/7yDqlvUDcuVS99E/d+6r5X3Uq1UyNg9fzrBZcQpuLXUj4EAgggkDoBdwFLP4VwSYdLCLeHp8980t87Prv1Ju6BOgNrqbOnEBaDvHzl2H+Shx9YGr4tfQZYQX2RF56aH4at+q1h66Ply2To4CGpG3sCVuqGlA+EAAIIpEKglgLWb+/9g7z891fDs9P1U/P0/UA7BCz9fzPqdgfq9gv5LXn1FMIJ3XaZGgtYHed56ZvIojz2l2fl4+WrZdQ3jgqRenvyDgGLgJWKXzH5EAgggEANCVQjYOnbZo743MHykrqPVOdX3wEDZcOaFW1/O9MuYInTSwiff+klOfCAz259O6+9+YZ8ag/16Gp1DDRn/o0yZfyY8J/lVMjKb94QPqk5bS8CVtpGlM+DAAIIpEOglgLWPUselBdffkV2Gz5cPVdGhapOzxgshlcVZuSDDz6UfKsKWOdOUDd673qvrJoOWKVp33a1pbqhankCEbDsf0HgDCx7O9ZEAAEEEHAnUJ2AlZFCoaBull564qCOQuPPOlvmzPqJ+r+lM57KxxjbzsByFbACde+tjTKg/4C2E8szctw/jZJ7F9+p/r869gnUd6BZ9T7bHlbz0KOPypcPPbS3k9DdDZDDLROwHOKyaQQQQAABa4FaClgP/PExeeqvz8m0SWNDr+6aS75QlJlXXKPOMQrk/PPO6pS4SswELIvpxhlYPaMRsCwmFKsggAACCDgXqEbA0h8ifBBM203R+/TrLxvXqQfH6NPlO71cBazyg2haNm+WvvqpeDqc6ZiWy6pvNDfrZyOGIW3Q0E/KmhUfhu+qvr5RNm9SZ1/1cEDpfHAc74CA5RiYzSOAAAIIWAnUUsDSJw7ppzBn9Jdn3bxKD51RtzYIv+/TV8WFRyVdliRgWUw1AlbPaAQsiwnFKggggAACzgW8BKz+KmCtrW7A0pD6LLA6dfZX6ehPB6tC+PfCA2X132eff14OOejgreYbN66XPk36HqDpfBGw0jmufCoEEEAg6QK1FLBK97za/u2adGfRlxaqftXjbZ0IWBaznoBFwLKYNqyCAAIIIOBRwEvA6jdAnYG1uttPHf0ZWKWboV5/86/kjFNP3rZPdcC4RZ2NVVdfHx4M5ot5qa9r3PrPfzB+vNxw9ZzSTd1T+iJgpXRg+VgIIIBAwgXSGLDCL8z0rdrVmd/hPcfD/267hUJvt2vqbUgJWL0JdfPPCVgELItpwyoIIIAAAh4FqhWwwm8P2+6B1aeKAauo7hex12f2lXfefH2rsj7/Sj/1MLxZqgpURXUAWZer01cQtr306fyFtr/uepq+x+GKdNcErEg52RgCCCCAQEQCaQxYgTrr+8NlK+Xm2+5SlwuW7g06fOgu8i///FXp379frw/M642WgNWbEAHLSIhLCI24WBgBBBBAoEoC1QpYHe+B5fAMLH2vCGWn//c//u9/ycX/+X+23pBdkw4cNEhWrVgW3qw9fKk/NfXpr87G2rQ1XrVuUWdm6UsNU/4iYKV8gPl4CCCAQEIF0hiw9FB8uGy53Hz7nbLHbrvJa2++pY416sIDER2zdhrYLF8/5kjZfY/h4RdqpTPASw/Wq+RFwKpEqdMynIHVMxoBy2JCsQoCCCCAgHOBagWs6pyBFUjLpk1y2hkTZOEtN3UIVxpy0tRpctWMS9XZV+rMK3U3VH3mVWNjH3UT99atzq3qhu5Z9c1oNtP9zVSdD0gVd0DAqiI2u0IAAQQQqFggzQHrl7+6UyaN/YE0NjSEHr9f8qA8/+LL4Rnh+tk2+sxx/dff+ufjZe9PfbLiWxkQsCqeXtsWJGARsCymDasggAACCHgUqFbAqvQMrGeee0EOGXlQKPLbe38n3zj2+G5Oq1fpKbyTaVE2b87Lu++9L6eNO0se+8Pv254u2BF0QPMAWbNqZbgdfdmgevagtOa3qINH/TTCbd9s/v2N12SfPffyOBrV3TUBq7re7A0BBBBAoDKBNAYsfS7VR+EZWHfJpHEqYDWWApZ+hffEUq8/P/6UPPLYk5JTTyTUN3fXhzqFTQX52te+Ip89YIR6cnLpGIanEFY2j3pdioDVMxFnYPU6fVgAAQQQQMCDQNwC1mtvvC6f2XtffThXOkBT94zo/hU+iqebf7TtdPswWOXzUsyom6TqA0H9DB/1139RkeyLI7c9bVDv661335U9dt3Vwwj42yUBy589e0YAAQQQ6FkgzQHrl7cskskTR3cIWFpCnRyu7o1VSlO6q3z00Uq5QT2ApqFefdmWzat7cwaypWWT/NuFUwhYUf3wELAIWFHNJbaDAAIIIFAdgbgFLP2pwwNX26f/qVA1+szJcvXMy6SpSX+72S5yqbY1bLdPyrIPP9iGq771XLF6pQweuFN1wGO0FwJWjAaDt4IAAgggsFUg1QHrtjtl8vgfdglYnYc/PHNdfxFXKMraDRvkF7fcIX0b+siY0d/v9rZYXEJo8QNEwCJgWUwbVkEAAQQQ8CgQx4ClL/Pb54CR8vpLLyiZ9jcw7Xgz04w6xX7wsF3l1FO/L9//3nfli4d+QZ9j1aapD/z0DVBLp+ZPOf9HMkdFrdJLL6P+uVq/dfMGtVxdeN+rWnsRsGptxPm8CCCAQDIECFhdclbpMkP9/V54DNP1mIWAZTG3CVgELItpwyoIIIAAAh4FfAWsDetWV/hcHTOcbQd4pdh11jnT5OorZ3c52Jv+b/8ml/z4v9SNUmsvXJVFCVhmc4ulEUAAAQSqI5DmgKWfQjhx7KnSp7ExfNqgfqhMFC8CloUiAYuAZTFtWAUBBBBAwKOAn4DVXzasXdP9Lax2xEIdCBbUf379m3vkpO+frJ5qE/sAACAASURBVO4Vsb7LfbJ2HjZclr3/Tnh2Vvn0/B3ZZZLXJWAlefR47wgggEB6BdIcsG751V0yePAg+fQeu8uXDv9CNw+qsRtXApaFGwGLgGUxbVgFAQQQQMCjQLUCVlF9zVj6lrF0xtOjTz8un9nj0x2vEKzQQX9jmS/kZeP6DbJcPV3wF7fdLtf97BppWbuy072zypccBtKv/wB5+513ZJB6ImH5wLjC3aV2MQJWaoeWD4YAAggkWiCdAasoH364XH6pnkKov8ErtLbKBVMnbr3dwY4OGAHLQpCARcCymDasggACCCDgUaBqAUs9Uefzh/2jPPPkExF82tI9rLa9Ov//8hMMAxm+597ywZsvq6f3lO4boR9JrV9ErG0Gq9atDV3UAxojeekz2wY3Dwy31dLSom6mr56gxAsBBBBAAIEKBVIZsPS3b6IPRnL65pylvw7UnTsjugcnAavCydV+MQJWz2hjRp8uixYuDBcI78/BCwEEEEAAgRgIVC9g5dWnzUquvkHFJHXQ5uIV/v4ayFe+8U257YZ5sssuuzi5z5aLt+5jm5yB5UOdfSKAAAII9CaQ3oBV+vLIxS0MCFi9zapu/jkBi4BlMW1YBQEEEEDAo0DVAlahFJd0UXrymb/Kghtu2BayOj5cUC3X+YyqNqB2y+nLEffa+1NywH77yyd3/YR8Rv11n8Y+4Wn56tAw3FVR/VVEX2x6HCF3uyZgubNlywgggAAC9gJpDFj2GpWtScCqzKnDUgQsApbFtGEVBBBAAAGPAtUKWJx97HGQe9g1ASt+Y8I7QgABBBDYdon7RRdfLJOmTI6MpP0l7osXL5ZRo0ZFtm3fGyJgWYwAAYuAZTFtWAUBBBBAwKMAAcsjvuddE7A8DwC7RwABBBDoVoAzsMwnBgHL3EwIWAQsi2nDKggggAACHgUIWB7xPe+agOV5ANg9AggggAABK6I5QMCygCRgEbAspg2rIIAAAgh4FCBgecT3vGsClucBYPcIIIAAAgSsXuZA+RYMvT09mYBl8cNEwCJgWUwbVkEAAQQQ8ChAwPKI73nXBCzPA8DuEUAAAQQIWNuZA+HTCvWDbTJF9eRC/fRC9XCabJcn34RbIGBZ/DARsAhYFtOGVRBAAAEEPAoQsDzie941AcvzALB7BBBAAAECVg9zIIxX6snKmza1yJzrbgqXasjlZMpZZ3S7BgHL4oeJgEXAspg2rIIAAggg4FGAgOUR3/OuCVieB4DdI4AAAggQsHqZA5fMvFpydbkwZmWyIpPGjZbGhvouaxGwLH6YCFgELItpwyoIIIAAAh4FCFge8T3vmoDleQDYPQIIIIAAAauHORAERfVPMnLJzGukvrGudCmheo0ffZL079+XgBXFzw4Bi4AVxTxiGwgggAAC1RMgYFXPOm57ImDFbUR4PwgggAACWqD8+9NFF18sk6ZMjgxFX5Y3uHlguL3FixfLqFGjItu2qw29v+xjueW2O8OA1draKhdMPXOrT/t9cgaWxQgQsAhYFtOGVRBAAAEEPAoQsDzie941AcvzALB7BBBAAIFuBQhY21j0LduLhYK6F9YW6dNHnYmVrW87F6sjHQHL4oeJgEXAspg2rIIAAggg4FGAgOUR3/OuCVieB4DdI4AAAggQsHqdA+pSwkDd/EryUpSsZPWNsLp5EbB6hey6AAGLgGUxbVgFAQQQQMCjAAHLI77nXROwPA8Au0cAAQQQIGBFNAcIWBaQBCwClsW0YRUEEEAAAY8CBCyP+J53TcDyPADsHgEEEECAgBXRHCBgWUASsAhYFtOGVRBAAAEEPAoQsDzie941AcvzALB7BBBAAAECVkRzgIBlAUnAImBZTBtWQQABBBDwKEDA8ojvedcELM8DwO4RQAABBAhYEc0BApYFJAGLgGUxbVgFAQQQQMCjAAHLI77nXROwPA8Au0cAAQQQIGB1EtBNJZMR9Uf3N2vvacoQsCx+mAhYBCyLacMqCCCAAAIeBQhYHvE975qA5XkA2D0CCCCAAAErojlAwLKAJGARsCymDasggAACCHgUIGB5xPe8awKW5wFg9wgggAACNROwgiAQdWKVFIp59eesZHO5Dp+9KAVp3VyQq+b+QgL115ms+t+CSL/6RjnrrNHhWVm6t2T1mVl6Q51eBCyLHyYCFgHLYtqwCgIIIICARwEClkd8z7smYHkeAHaPAAIIIFBTAWv9ho0y97pfyrlnj5H6toAVhi1Vpxb9+m554933RdUrFbK2SK6+XoqFvNSrP+v0NXL/z8gxRx2hwpauV10LFgHL4oeJgEXAspg2rIIAAggg4FGAgOUR3/OuCVieB4DdI4AAAgjUTsBSGerDj5bLzbffJZPH/1AaGxvCz64D1sfLV8hNt9wl+da8TJ86ITzbSr/079P5fF5mXTFfcg05+ddvfl322mO3bs0IWBY/TAQsApbFtGEVBBBAAAGPAgQsj/ied03A8jwA7B4BBBBAoIYClshHy5bLL2+7s2PAUpcFXnL53PBMq2mTz1DRSl9aqE7DajvLqhDk1QWHGZlx5Xwp5ItywdRxbct0pCNgWfwwEbAIWBbThlUQQAABBDwKELA84nveNQHL8wCwewQQQAABApY6A+tSFbD06/ypZ3ZzcWCg7n0VyA03/UpWrVkj500eq9pW1ycUErAsfpgIWAQsi2nDKggggAACHgUIWB7xPe+agOV5ANg9AggggAABKyjKpbOvk6BYkPPPHS/ZbF0HE32JoX49/uRz8qfHHpczzzhV+vbt08WNgGXxw0TAImBZTBtWQQABBBDwKEDA8ojvedcELM8DwO4RQAABBGo0YJ2m7oHVFH72oNiqLiFU97jKZWT6lLHq5KqOTycs3+T9zt/eJ6+/8aa6zFBfQshN3CP50SFgEbAimUhsBAEEEECgagIErKpRx25HBKzYDQlvCAEEEEBACZR/f7ro4otl0pTJkZnoGDS4eWC4vcWLF8uoUaMi23ZvG9LnUel7YN1yx6/lrDGnbAtYUpQ/PPiYPPPcC3LOmWdIXV3XgKW3PeOK63TukunnTOh2V5yB1dsIdPPPCVgELItpwyoIIIAAAh4FCFge8T3vmoDleQDYPQIIIIBAtwJpDFhFdangRx+vlFtuU08bVJcLqscPlj67Opsqq//IZqV182a58LxJHUwCdf+rVWvWyvU33Sa7fWK4fP873yRgRfVzQ8AiYEU1l9gOAggggEB1BAhY1XGO414IWHEcFd4TAggggEAqA5Z62uCGjRvVzdjvCGOVDlMdXipi7b/Pp+SYo4/o8Lfz+bxcfvUNEhQKMv3s8aWz07peQSicgWXxc0PAImBZTBtWQQABBBDwKEDA8ojvedcELM8DwO4RQAABBLoVSGPAsh3qVavXyoIbb5UJ6rLD/v379bgZApaFMAGLgGUxbVgFAQQQQMCjAAHLI77nXROwPA8Au0cAAQQQIGD1MgcK6swtdcKWOulK/c92XgQsix8mAhYBy2LasAoCCCCAgEcBApZHfM+7JmB5HgB2jwACCCBAwIpoDhCwLCAJWAQsi2nDKggggAACHgUIWB7xPe+agOV5ANg9AggggAABK6I5QMCygCRgEbAspg2rIIAAAgh4FCBgecT3vGsClucBYPcIIIAAAgSsiOYAAcsCkoBFwLKYNqyCAAIIIOBRgIDlEd/zrglYngeA3SOAAAIIELAimgMELAtIAhYBy2LasAoCCCCAgEcBApZHfM+7JmB5HgB2jwACCCBAwIpoDhCwLCAJWAQsi2nDKggggAACHgUIWB7xPe+agOV5ANg9AggggAABK6I5QMCygCRgEbAspg2rIIAAAgh4FCBgecT3vGsClucBYPcIIIAAAgSsiOYAAcsCkoBFwLKYNqyCAAIIIOBRgIDlEd/zrglYngeA3SOAAAIIELAimgMELAtIAhYBy2LasAoCCCCAgEcBApZHfM+7JmB5HgB2jwACCCBAwIpoDhCwLCAJWAQsi2nDKggggAACHgUIWB7xPe+agOV5ANg9AggggAABK6I5QMCygCRgEbAspg2rIIAAAgh4FCBgecT3vGsClucBYPcIIIAAAgSsiOYAAcsCkoBFwLKYNqyCAAIIIOBRgIDlEd/zrglYngeA3SOAAAIIELAimgMELAtIAhYBy2LasAoCCCCAgEcBApZHfM+7JmB5HgB2jwACCCBAwIpoDhCwLCAJWAQsi2nDKggggAACHgUIWB7xPe+agOV5ANg9AggggAABK6I5QMCygCRgEbAspg2rIIAAAgh4FCBgecT3vGsClucBYPcIIIAAAgSsiOYAAcsCkoBFwLKYNqyCAAIIIOBRgIDlEd/zrglYngeA3SOAAAIIELAimgMELAtIAhYBy2LasAoCCCCAgEcBApZHfM+7JmB5HgB2jwACCCBAwIpoDhCwLCAJWAQsi2nDKggggAACHgUIWB7xPe+agOV5ANg9AggggAABK6I5QMCygCRgEbAspg2rIIAAAgh4FCBgecT3vGsClucBYPcIIIAAAgSsiOYAAcsCkoBFwLKYNqyCAAIIIOBRgIDlEd/zrglYngeA3SOAAAIIELAimgMELAtIAhYBy2LasAoCCCCAgEcBApZHfM+7JmB5HgB2jwACCCBAwIpoDhCwLCAJWAQsi2nDKggggAACHgUIWB7xPe+agOV5ANg9AggggAABK6I5QMCygCRgEbAspg2rIIAAAgh4FCBgecT3vGsClucBYPcIIIAAAgSsiOYAAcsCkoBFwLKYNqyCAAIIIOBRgIDlEd/zrglYngeA3SOAAAIIELAimgMELAtIAhYBy2LasAoCCCCAgEcBApZHfM+7JmB5HgB2jwACCCBAwIpoDhCwLCAJWAQsi2nDKggggAACHgUIWB7xPe+agOV5ANg9AggggAABK6I5QMCygCRgEbAspg2rIIAAAgh4FCBgecT3vGsClucBYPcIIIAAAgSsiOYAAcsCkoBFwLKYNqyCAAIIIOBRgIDlEd/zrglYngeA3SOAAAIIELAimgMELAtIAhYBy2LasAoCCCCAgEcBApZHfM+7JmB5HgB2jwACCCBAwIpoDhCwLCAJWAQsi2nDKggggAACHgUIWB7xPe+agOV5ANg9AggggAABK6I5QMCygCRgEbAspg2rIIAAAgh4FCBgecT3vGsClucBYPcIIIAAAgSsiOYAAcsCkoBFwLKYNqyCAAIIIOBRgIDlEd/zrglYngeA3SOAAAIIELAimgMELAtIAhYBy2LasAoCCCCAgEcBApZHfM+7JmB5HgB2jwACCCBAwIpoDhCwLCAJWAQsi2nDKggggAACHgUIWB7xPe+agOV5ANg9AggggAABK6I5QMCygCRgEbAspg2rIIAAAgh4FCBgecT3vGsClucBYPcIIIAAAgSsiOYAAcsCkoBFwLKYNqyCAAIIIOBRgIDlEd/zrglYngeA3SOAAAIIELAimgMELAtIAhYBy2LasAoCCCCAgEcBApZHfM+7JmB5HgB2jwACCCBAwIpoDhCwLCAJWAQsi2nDKggggAACHgUIWB7xPe+agOV5ANg9AggggAABK6I5QMCygCRgEbAspg2rIIAAAgh4FCBgecT3vGsClucBYPcIIIAAAgSsiOYAAcsCkoBFwLKYNqyCAAIIIOBRgIDlEd/zrglYngeA3SOAAAIIELAimgMELAtIAhYBy2LasAoCCCCAgEcBApZHfM+7JmB5HgB2jwACCCBAwIpoDhCwLCAJWAQsi2nDKggggAACHgUIWB7xPe+agOV5ANg9AggggAABK6I5QMCygCRgEbAspg2rIIAAAgh4FCBgecT3vGsClucBYPcIIIAAAgSsiOYAAcsCkoBFwLKYNqyCAAIIIOBRgIDlEd/zrglYngeA3SOAAAIIELAimgMELAtIAhYBy2LasAoCCCCAgEcBApZHfM+7JmB5HgB2jwACCCBAwIpoDhCwLCAJWAQsi2nDKggggAACHgUIWB7xPe+agOV5ANg9AggggAABK6I5QMCygCRgEbAspg2rIIAAAgh4FCBgecT3vGsClucBYPcIIIAAAgSsiOYAAcsCkoBFwLKYNqyCAAIIIOBRgIDlEd/zrglYngeA3SOAAAIIELAimgMELAtIAhYBy2LasAoCCCCAgEcBApZHfM+7JmB5HgB2jwACCCBAwIpoDhCwLCAJWAQsi2nDKggggAACHgUIWB7xPe+agOV5ANg9AggggAABK6I5QMCygCRgEbAspg2rIIAAAgh4FCBgecT3vGsClucBYPcIIIAAAgSsiOYAAcsCkoBFwLKYNqyCAAIIIOBRgIDlEd/zrglYngeA3SOAAAIIELAimgMELAtIAhYBy2LasAoCCCCAgEcBApZHfM+7JmB5HgB2jwACCCBAwIpoDhCwLCAJWAQsi2nDKggggAACHgUIWB7xPe+agOV5ANg9AggggAABK6I5QMCygCRgEbAspg2rIIAAAgh4FCBgecT3vGsClucBYPcIIIAAAgSsiOYAAcsCkoBFwLKYNqyCAAIIIOBRgIDlEd/zrglYngeA3SOAAAIIELAimgMELAtIAhYBy2LasAoCCCCAgEcBApZHfM+7JmB5HgB2jwACCCBAwIpoDhCwLCAJWAQsi2nDKggggAACHgUIWB7xPe+agOV5ANg9AggggAABK6I5QMCygCRgEbAspg2rIIAAAgh4FCBgecT3vGsClucBYPcIIIAAAgSsiOYAAcsCkoBFwLKYNqyCAAIIIOBRgIDlEd/zrglYngeA3SOAAAIIELAimgMELAtIAhYBy2LasAoCCCCAgEcBApZHfM+7JmB5HgB2jwACCCBAwIpoDhCwLCAJWAQsi2nDKggggAACHgUIWB7xPe+agOV5ANg9AggggAABK6I5QMCygCRgEbAspg2rIIAAAgh4FCBgecT3vGsClucBYPcIIIAAAgSsiOYAAcsCkoBFwLKYNqyCAAIIIOBRgIDlEd/zrglYngeA3SOAAAIIELAimgMELAtIAhYBy2LasAoCCCCAgEcBApZHfM+7JmB5HgB2jwACCCBAwIpoDhCwLCAJWAQsi2nDKggggAACHgUIWB7xPe+agOV5ANg9AggggAABK6I5QMCygCRgEbAspg2rIIAAAgh4FCBgecT3vGsClucBYPcIIIAAAgSsiOYAAcsCkoBFwLKYNqyCAAIIIOBRgIDlEd/zrglYngeA3SOAAAIIELAimgMELAtIAhYBy2LasAoCCCCAgEcBApZHfM+7JmB5HgB2jwACCCBAwIpoDhCwLCAJWAQsi2nDKggggAACHgUIWB7xPe+agOV5ANg9AggggAABK6I5QMCygCRgEbAspg2rIIAAAgh4FCBgecT3vGsClucBYPcIIIAAAgSsiOYAAcsCkoBFwLKYNqyCAAIIIOBRgIDlEd/zrglYngeA3SOAAAIIELAimgMELAtIAhYBy2LasAoCCCCAgEcBApZHfM+7JmB5HgB2jwACCCBAwIpoDhCwLCAJWAQsi2nDKggggAACHgUIWB7xPe+agOV5ANg9AggggAABK6I5QMCygCRgEbAspg2rIIAAAgh4FCBgecT3vGsClucBYPcIIIAAAgSsiOYAAcsCkoBFwLKYNqyCAAIIIOBRgIDlEd/zrglYngeA3SOAAAIIELAimgMELAtIAhYBy2LasAoCCCCAgEcBApZHfM+7JmB5HgB2jwACCCBAwIpoDhCwLCAJWAQsi2nDKggggAACHgUIWB7xPe+agOV5ANg9AggggAABK6I5QMCygCRgEbAspg2rIIAAAgh4FCBgecT3vGsClucBYPcIIIAAAgSsiOYAAcsCkoC1nYB1+umy6I6F4QJBEFjosgoCCCCAAALRCxCwojdNyhYJWEkZKd4nAgggUFsC5d+fLrr4Ypk0ZXJkH17/e/jg5oHh9hYvXiyjRo2KbNu+N0TAshgBAtZ2AtZoFbAWErAsphWrIIAAAgg4FCBgOcSN+aYJWDEfIN4eAgggUKMCBCzzgSdgmZsJAWv7AevORYvCs684A8ticrEKAggggIATAQKWE9ZEbJSAlYhh4k0igAACNSdAwDIfcgKWuRkBaztm5559ttx4/Q3hEgQsi8nFKggggAACTgQIWE5YE7FRAlYihok3iQACCNScAAHLfMgJWOZmBCwClsWsYRUEEEAAAZ8CBCyf+n73TcDy68/eEUAAAQS6FyBgmc8MApa5GQGLgGUxa1gFAQQQQMCnAAHLp77ffROw/PqzdwQQQAABAlZUc4CAZSHJPbB6RuMSQosJxSoIIIAAAs4FCFjOiWO7AwJWbIeGN4YAAgjUtABnYJkPPwHL3IwzsLZjRsCymFCsggACCCDgXICA5Zw4tjsgYMV2aHhjCCCAQE0LELDMh5+AZW5GwCJgWcwaVkEAAQQQ8ClAwPKp73ffBCy//uwdAQQQQKB7AQKW+cwgYJmbEbAIWBazhlUQQAABBHwKELB86vvdNwHLrz97RwABBBAgYEU1BwhYFpLcA6tnNC4htJhQrIIAAl4EgiCQ8r/YenkDMdtpmj30Z9MBa+DAgaH6yrVrIh37pfctke+ecEK4bb0vXnYCruYgActuPFgLAQQQQMCtAGdgmfsSsAzMAimIFLMSqP/MmjNfpk0eGx4Alw9Wk/IvQjNmzJDp06eXDuLXr5VMhMfa/+vf/6fcduutHMQbzCsWRQABPwL61+wPP/ww0pDh55Ps+F733HNP2bRpU2rjix5r/eXT8uXLnQesXXbZZccHpJst9O3bV958800n247DRocNG+bk2EGP/bJly8Jtr1q3VoKMRHbco4//BjeXomhLS4s0NTXFgZL3gAACCCCQEAEClvlAEbAMzJYs+aMcc8wRao2OAeuBh/4kRx5xuGSzWYOt+VvUZcBqfwaWv0/InhFAAIHKBDhbpuS08847y4oVKypDS8FSLs/AcsXT3Nwsa9ascbV579stH0O5+Jksf9lIwPI+zLwBBBBAAIF2AgQs8+lAwDIwe+vtd+SRR56UE08cJbOumifnTRkv1y24WU76/r/KgH59w2+uk3AWlsuANX3qNLnpF79I7bf4BtOFRRFAIKYC+kycfD4fvjsX/7Ic04+93bc1ZMgQWblyZbhMQ0NDEj+C0XtetmK5+ioqmpeeQ39YslROPumkaDbYaSutra3hPNWXP65evdrJPuKw0fLxUy6XE/1H1C+9/Q8+XhaegZUV9T8RvDgDKwJENoEAAgjUsAABy3zwCVgmZkV15tXPFqhvqneSZctXSJ/GPrKhZZNMn1K6lDApL5cBS12jEVokySMp48b7RACBaAQWzFeXgKvYrv/lk4BVMm0fsPTZSbkE/Z5mNCvU7+OSVZf+q5WiDFj69zwX52AX1fvcddhwadm4UdJ+Blb5uOHQww6Te5cuidyzPOaFoKjmdzSjRcAy+uljYQQQQACBTgIELPMpQcAyMNMHKpfMvFoaGkvfTgfqQDhfyMsF505MVLBxGrAMPFkUAQQQ8CFww4IFMvWcc0u/jnPD7S4BS19mleZXUQWMbEQBoxpOu6mAtbGmAtah8vslSxJxXEXAqsZPAPtAAAEE0itAwDIfWwKWiZn6F53rb14oq1aVTuFX5xnJ5w4YIccd/T/C/5eUFwErKSPF+0QAARcCBKyuqu3PwEp7wErK5f7lUdp16LDwBuE1cwbWoSpgqTOwknAmNwHLxa/QbBMBBBCoHQEClvlYE7AMzPR9U/Slgzff/uuta4057UR1X4oBBlvxvygBy/8Y8A4QQMCfAAGrtgOWv5lnt+daDFj33r/UDqvKaxGwqgzO7hBAAIGUCRCwzAeUgGVgVr7UZNac+eHjuNW1JzL97LHq5KvobzZq8LaMFyVgGZOxAgIIpEiAgEXAStJ0JmDFd7QIWPEdG94ZAgggkAQBApb5KBGwDMzCW6Wo//nJ5VdLk7oP1ubNrXLh1IkqYOmLCZPzImAlZ6x4pwggEL0AAYuAFf2scrdFApY72x3dMgFrRwVZHwEEEKhtAQKW+fgTsAzMymdgzb3+Ftm4YYMc/LkD5OivHB5uIQn3aih/VAKWwaCzKAIIpE6AgEXAStKkJmDFd7QIWPEdG94ZAgggkAQBApb5KBGwzM1kvXoa0DULbpLxo0+RAf37WWzB7yoELL/+7B0BBPwKELAIWH5noNneCVhmXtVcmoBVTW32hQACCKRPgIBlPqY1G7D0Payy2ay5mFpDH7DMmHOdTJ88Tv0/dxcPunpSEgHLathZCQEEUiJAwCJgJWkqE7DiO1oErPiODe8MAQQQSIIAAct8lGoyYBWLgWRUu7K9c5U+YLnk0qvkRxdMMRevcI0gUDeJ1+9Q3V8r6hcBK2pRtocAAkkSIGARsJI0XwlY8R0tAlZ8x4Z3hgACCCRBgIBlPko1GbBWrV0j82+8XWnpu7LvwEuvHn1fCt+Q3qy+afx5U8ZFHrEIWDsw5qyKAAKJFyBgEbCSNIkJWPEdLQJWfMeGd4YAAggkQYCAZT5KNRmw9OWDerJYn91UDlcOA5ZIUeW1rJM+RsAy/0FhDQQQSI8AAYuAlaTZTMCK72gRsOI7NrwzBBBAIAkCBCzzUarJgGXO1HUNV/eniuK99bYNAlZvQvxzBBBIswABi4CVpPlNwIrvaBGw4js2vDMEEEAgCQIELPNRImCZmyV+DQJW4oeQD4AAAjsgQMAiYO3A9Kn6qgSsqpNXvEMCVsVULIgAAggg0I0AAct8WhCwzM3CpxD+7Lqfy6RxP1A3q3J0EyyL91XpKgSsSqVYDgEE0ihAwCJgJWleE7DiO1oErPiODe8MAQQQSIIAAct8lAhY5mbq3lTqKYQzfiY/mjbJ2U3cLd5WxasQsCqmYkEEEEihAAGLgJWkaU3Aiu9oEbDiOza8MwQQQCAJAgQs81EiYJmbSb41L1dcfb1MPXususk6Z2BZJORg2gAAIABJREFUELIKAggg4E2AgEXA8jb5LHZMwLJAq9IqBKwqQbMbBBBAIKUCBCzzgSVgmZvJ3155Q+6+d6mcduK/ytBdhlhswe8qnIHl15+9I4CAXwECFgHL7ww02zsBy8yrmksTsKqpzb4QQACB9AkQsMzHlIBlZKYuHgxELpl1tTTWN8iQITvJaSedoG6DlayzsFwGLMUTvpIlYjQJYrtw1E/GLBaLks1mY/t5eWMI2ApcP3++TDt3ari6/rnhJer3syGycuXKkGLl2jWJ+30tbWPY/tfzWgtYhx12mNyz5L5wDkb9+1rU80T/Pjlk4E7hZltaWqSpqSnqXbA9BBBAAIEUCxCwzAeXgGVgpu99pf972eXXSF1DvWzevEUunDohzDVJilguA5bOHfqAM0hY1DOYBrFcNDRXf0QZnHJt//JQjOUn5k0hYC9ww/X6EvBzCFjtCDsErHVr+RLCZHqpb2x0Bs04aqG7DhsuLRs3SnNzs6xZs8bknSVq2fJxVPuAFfcPoAPWzjsNCn//JWDFfbR4fwgggED8BAhY5mNCwDIwK6pD1Hxrq1x1zc+3rjV10hkErHaGZ02YIIsXLy4dzfOqmsDuu+8ujzz+WKQh9ZPDP7H1G/CqfRB2hEAVBPKFgmzetImA1UPA6tevXxVGgV1UKrBRxSsdSGolYOVyOenTp08yzo5UX/Rs3LCBgFXpZGY5BBBAAIEOAgQs8wlBwDIw0weQL738utyz9IGta33nX74he3xyV4Ot+F/U5RlYY08/XRYtXJSMA0//QxHZO9h3333lkScel1wmukv+BjcP5F/wIxshNhRXAS4hLI1M+zOw4jpWtf6+aiVgJXWcOQMrqSPH+0YAAQT8CRCwzO0JWEZmgcy4Yl54gyc92fR9nnYZuouc+r1vqr9Kzl2fXAasMaN1wFoY+uh7QfAvh0YTzGhhbawPmPVLB6xHn3oi0ktYBg1oDret99PY2Gj03lgYgSQI6Lmtz27hVQpY+tcTfs2O72zQZ8YtX748vm9wB9+ZPusqya/Vq1fze2WSB5D3jgACCHgQIGCZoxOwDMz0gf1PL58rdfX1+kZPklVnu2zZou6DNW0iAavNsRyw9P/V94ZI0r3BDKZCbBYNQ6r6Y5999nEWsA4++GB5+umnY/OZeSMIRCVQjjX8OhWVKNtBwF6gfTxN4s9k3G84bz8yrIkAAggg4EqAgGUuS8AyMCuq+6bM/NkCmTZ5rMy6cp58+5vfkLt+83uZOvl0FRGysX9aTvmjVuMMLL0vvsk3mFyWi5Z/0XN5BhYBy3JwWA0BBBBAAAEEEEAAAQQQ6EGAgGU+NQhYBmbPvfii7DviM1KvYtWsOdfLOVPGyXtvvSvqVKyt98FKwreGBCyDQY/5ogSsmA8Qbw8BBBBAAAEEEEAAAQQQ6EaAgGU+LQhYBmYbWzZJn6bG8Myiy9vOxNKXyW3Y2CID+ifnqU0ELINBj/miBKyYDxBvDwEEEEAAAQQQQAABBBAgYEUyBwhYBozl+xvoaFUOWEm85wEBy2DQY74oASvmA8TbQwABBBBAAAEEEEAAAQQIWJHMAQKWBaMOWLPmzJfz1CWESXwRsJI4at2/ZwJWesaST4IAAggggAACCCCAAAK1I8AlhOZjTcAyNwufrkfA6h6u/VMIuYm7xeQyXIWAZQjG4ggggAACCCCAAAIIIIBADAQIWOaDQMAyNyNgbceMgGUxoXZgFQLWDuCxKgIIIIAAAggggAACCCDgSYCAZQ5PwDI3I2ARsCxmjZtVCFhuXNkqAggggAACCCCAAAIIIOBSgIBlrkvAMjcjYBGwLGaNm1UIWG5c2SoCCCCAAAIIIIAAAggg4FKAgGWuS8AyNyNgEbAsZo2bVQhYblzZKgIIIIAAAggggAACCCDgUoCAZa5LwDI3I2ARsCxmjZtVCFhuXNkqAggggAACCCCAAAIIIOBSgIBlrkvAMjcjYBGwLGaNm1UIWG5c2SoCCCCAAAIIIIAAAggg4FKAgGWuS8AyNyNgEbAsZo2bVQhYblzZKgIIIIAAAggggAACCCDgUoCAZa5LwDI3I2ARsCxmjZtVCFhuXNkqAggggAACCCCAAAIIIOBSgIBlrkvAMjcjYBGwLGaNm1UIWG5c2SoCCCCAAAIIIIAAAggg4FKAgGWuS8AyNyNgEbAsZo2bVQhYblzZKgIIIIAAAggggAACCCDgUoCAZa5LwDI3I2ARsCxmjZtVCFhuXNkqAggggAACCCCAAAIIIOBSgIBlrkvAMjcjYBGwLGaNm1UIWG5c2SoCCCCAAAIIIIAAAggg4FKAgGWuS8AyNyNgEbAsZo2bVQhYblzZKgIIIIAAAggggAACCCDgUoCAZa5LwDI3I2ARsCxmjZtVCFhuXNkqAggggAACCCCAAAIIIOBSgIBlrkvAMjcjYBGwLGaNm1UIWG5c2SoCCCCAAAIIIIAAAggg4FKAgGWuS8AyNyNgEbAsZo2bVQhYblzZKgIIIIAAAggggAACCCDgUoCAZa5LwDI3I2ARsCxmjZtVCFhuXNkqAggggAACCCCAAAIIIOBSgIBlrkvAMjcjYBGwLGaNm1UIWG5c2SoCCCCAAAIIIIAAAggg4FKAgGWuS8AyNyNgEbAsZo2bVQhYblzZKgIIIIAAAggggAACCCDgUoCAZa5LwDI3I2ARsCxmjZtVCFhuXNkqAggggAACCCCAAAIIIOBSgIBlrkvAMjcjYBGwLGaNm1UIWG5c2SoCCCCAAAIIIIAAAggg4FKAgGWuS8AyNyNgEbAsZo2bVQhYblzZKgIIIIAAAggggAACCCDgUoCAZa5LwDI3I2ARsCxmjZtVCFhuXNkqAggggAACCCCAAAIIIOBSgIBlrkvAMjcjYBGwLGaNm1UIWG5c2SoCCCCAAAIIIIAAAggg4FKAgGWuS8AyNyNgEbAsZo2bVQhYblzZKgIIIIAAAggggAACCCDgUoCAZa5LwDI3I2ARsCxmjZtVCFhuXNkqAggggAACCCCAAAIIIOBSgIBlrkvAMjcjYBGwLGaNm1UIWG5c2SoCCCCAAAIIIIAAAggg4FKAgGWuS8AyNyNgEbAsZo2bVQhYblzZKgIIIIAAAggggAACCCDgUoCAZa5LwDI3I2ARsCxmjZtVCFhuXNkqAggggAACCCCAAAIIIOBSgIBlrkvAMjcjYBGwLGaNm1UIWG5c2SoCCCCAAAIIIIAAAggg4FKAgGWuS8AyNyNgEbAsZo2bVQhYblzZKgIIIIAAAggggAACCCDgUoCAZa5LwDI3I2ARsCxmjZtVCFhuXNkqAggggAACCCCAAAIIIOBSgIBlrkvAMjcjYBGwLGaNm1UIWG5c2SoCCCCAAAIIIIAAAggg4FKAgGWuS8AyNyNgEbAsZo2bVQhYblzZKgIIIIAAAggggAACCCDgUoCAZa5LwDI3I2ARsCxmjZtVCFhuXNkqAggggAACCCCAAAIIIOBSgIBlrkvAMjcjYBGwLGaNm1UIWG5c2SoCCCCAAAIIIIAAAggg4FKAgGWuS8AyNyNgEbAsZo2bVQhYblzZKgIIIIAAAggggAACCCDgUoCAZa5LwDI3I2ARsCxmjZtVCFhuXNkqAggggAACCCCAAAIIIOBSgIBlrkvAMjcjYBGwLGaNm1UIWG5c2SoCCCCAAAIIIIAAAggg4FKAgGWuS8AyNyNgEbAsZo2bVQhYblzZKgIIIIAAAggggAACCCDgUoCAZa5LwDI3I2ARsCxmjZtVCFhuXNkqAggggAACCCCAAAIIIOBSgIBlrkvAMjcjYBGwLGaNm1UIWG5c2SoCCCCAAAIIIIAAAggg4FKAgGWuS8AyNyNgEbAsZo2bVQhYblzZKgIIIIAAAggggAACCCDgUoCAZa5LwDI3I2ARsCxmjZtVCFhuXNkqAggggAACCCCAAAIIIOBSgIBlrkvAMjcjYBGwLGaNm1UIWG5c2SoCCCCAAAIIIIAAAggg4FKAgGWuS8AyNyNgEbAsZo2bVQhYblzZKgIIIIAAAggggAACCCDgUoCAZa5LwDI3I2ARsCxmjZtVCFhuXNkqAggggAACCCCAAAIIIOBSgIBlrkvAMjcjYBGwLGaNm1UIWG5c2SoCCCCAAAIIIIAAAggg4FKAgGWuS8AyNyNgEbAsZo2bVQhYblzZKgIIIIAAAggggAACCCDgUoCAZa5LwDI3I2ARsCxmjZtVCFhuXNkqAggggAACCCCAAAIIIOBSgIBlrkvAMjcjYBGwLGaNm1UIWG5c2SoCCCCAAAIIIIAAAggg4FKAgGWuS8AyNyNgEbAsZo2bVQhYblzZKgIIIIAAAggggAACCCDgUoCAZa5LwDI3I2ARsCxmjZtVCFhuXNkqAggggAACCCCAAAIIIOBSgIBlrkvAMjcjYBGwLGaNm1UIWG5c2SoCCCCAAAIIIIAAAggg4FKAgGWuS8AyNyNgEbAsZo2bVQhYblzZKgIIIIAAAggggAACCCDgUoCAZa5LwDI3I2ARsCxmjZtVCFhuXNkqAggggAACCCCAAAIIIOBSgIBlrkvAMjcjYBGwLGaNm1UIWG5c2SoCCCCAAAIIIIAAAggg4FKAgGWuS8AyNyNgEbAsZo2bVaoRsA455BB58sknpbwvN5+ErXYnEAQB7kwNBBBAAAEEEEAAAQRSKEDAMh9UApa5GQGLgGUxa9ysUo2A9fnPfz4MWLyqK0C8qq43e0MAAQQQQAABBBBAoJoCBCxzbQKWuRkBi4BlMWvcrFKNgFXehw4qUb8OP/xweeSRR6LebGq2t3r1ahk0aFBqPg8fBAEEOgqMGDFCXnrpJVgcC1TjDOKWlhZpampy/EnYPAIIIIBAmgQIWOajScAyNyNgEbAsZo2bVaoRsNy889JWjz76aLn//vtd7iLR216zZo3stNNOif4MvHkEEOhZ4KCDDpJnn30WIscCBCzHwGweAQQQQMBKgIBlzkbAMjcjYBGwLGaNm1VcBqz/+Ld/F3UDpsjfeFZt88orrgi3e9RRRxGwtiPcPmBNOHOiNNQ3SPTnwUU+xGwQAQR6ECj/ilr+NZCAVZ2pUv69csrZZ0ugByGiX0gb6utk5oyZ4YfgDKzqjCV7QQABBNIkQMAyH00ClrkZAYuAZTFr3KziMmDpg/xMRAf57T+93uSQ5oEErAqmRPuA9dIrr8iw4cMqWItFEEAgzgL619YhA0q/Bh544IGcgVWFwSr/Xrly3ZowXkV1RlaxWJQhA0tnyRKwqjCQ7AIBBBBImQABy3xACVjmZgQsApbFrHGzisuA5eYdl7Y6aEBz+GcuIdy+cvuA9fKrr8guQ4dG9i9eLseXbSOAwPYFyr8GcgZWdWZK+ffKVevWhmdgRfXlDAGrOuPHXhBAAIG0ChCwKhnZQIKgqP4dKBcu3Dlgxf3BVxn1Bh2cE1IJ3LZl9AHLrDnz5bwp48xWjMnSM2bMkOnTp4fvZuX6tZEdyOntjRl9uixauDDcdgyGKibi7t4GAcudbRy23PEMrL+rM7CGx+Ft8R4QQGAHBHRAGdy/FPEJWDsAabCqq4Clj3MGt51RzBlYBgPCoggggAACoQABq5KJUApYJa9ch4AV93gVvmcCViWDvP1lCFg7bhiXLRCw4jISbt5H5zOwhg7jEkI30mwVgeoJELCqZ13eEwGr+ubsEQEEEECgdwECVu9GeolrF9ws4884SYrqVKYZV10n0yeNDe/V/Mqrb8s+n9ld/WW2sg15WIqAFQE6ASsCxJhsgoAVk4Fw9DYIWI5g2SwCHgUIWNXHJ2BV35w9IoAAAgj0LkDA6t1I37yyUAjk0suvlQunTZAZV86TaVPGyozZ18j0c8eqs7OykiVgbR+SSwh79uESwkp+CKNbhoAVnWUct0TAiuOo8J4Q2DEBAtaO+dmsTcCyUWMdBBBAAAHXAgSsCoXVmVeXqTOvioWC5HK58M+ibslw/jnjRYrqL7Ll5zxXuL0qLsYZWBFgcwZWBIgx2QQBKyYD4ehtELAcwbJZBDwKELCqj0/Aqr45e0QAAQQQ6F2AgNW7UbhEkJefzl6g4lVbqFJ/ampokknjT6twA/4WI2BFYE/AigAxJpsgYMVkIBy9DQKWI1g2i4BHAQJW9fEJWNU3Z48IIIAAAr0LELB6NyovcfNtd8n7y5aFN77XGev4446Wz47Yu/INeFqSgBUBPAErAsSYbIKAFZOBcPQ2CFiOYNksAh4FCFjVx3cdsPT2jzvuOMlm43sT2eqrs0cEEEAAgd4Efv/734eLXHTxxTJpyuTeFq/4n7d/Su7ixYtl1KhRFa8bvwXV9YMqWeXzRZk9d76+JVYYsaZOOj18KmHcXwSsCEaIgBUBYkw2QcCKyUA4ehsELEewbBYBjwIErOrjuwpYBXUPjp13GlT9D8QeEUAAAQRSI6B/j/rxRT+Ws6ZMCT9T+fesHfmA6QpYWqKo/sjKZVdeG96wXf/+e/7Z4xRW/L84ImDtyExuW5eAFQFiTDZBwIrJQDh6GwQsR7BsFgGPAgSs6uO7Cljq0UcyqHlg9T8Qe0QAAQQQSJXAj//7InUGFgGrt0G9bLYKWLmsDOjXX8aOPjGS2NfbPnf0nxOwdlRQrU/AigAxJpsgYMVkIBy9DQKWI1g2i4BHAQJW9fFdBSz9DTcvBBBAAAEEdlQgirOu2r+H9J2BVfp0v7rzt/Luex/KV48+Ug7Yb291AhZnYFU094rFosyaM1/Om6JOW0vgi4CVwEHr4S0TsNIzlt19EgJWuseXT1ebAgSs6o+7q4BV/U/CHhFAAAEE0iagYxMBq7JRXbd+o1x3w80ybdIYfa1lZSt5XoozsCIYAAJWBIgx2QQBKyYD4ehtELAcwbJZBDwKELCqj0/Aqr45e0QAAQQQ8CeQ1jOw9Oe6ZOZcuXDaRHVbdxWwEtCwCFgR/BwQsCJAjMkmCFgxGQhHb4OA5QiWzSLgUYCAVX18Alb1zdkjAggggIA/gbQGrGIxkPk33KLuf3VSGK+iPnPNxYgRsCJQJWBFgBiTTRCwYjIQjt4GAcsRLJtFwKMAAav6+ASs6puzRwQQQAABfwJpDVhatLU1L/X1df5wDfdMwDIE625xAlYEiDHZBAErJgPh6G0QsBzBslkEPAoQsKqPT8Cqvjl7RAABBBDwJ+AsYAVF0ccxGYn/zdNN9V3ci0y/BwKW6Uh0szwBKwLEmGyiQ8B68i+la4Fj/mr/C+rRRx8t999/f8zfsb+3R8DyZ8+eEXAlQMByJdvzdglY1TdnjwgggAAC/gScBSz1kX46e66KMn7/nbMUm3REi/JpwBn56jFHysgDR0Q6cASsCDgJWBEgxmQT7QPWY08+EZN31fPbKD9yfHDzwPCa5aOOOoqAtZ1RI2DFfkrzBhEwFiBgGZPt8AoErB0mZAMIIIAAAgkScBawgrys37BFsjkVjzJRxiNDXBWwAsmpf58sGq7Yw+LqowTFjDQ11kmuLtrLEwlYEQwRASsCxJhsonxQvt9++8kjjz8mkvVbwyth0b+gDhkwMFyUM7C2L9YhYL32qgwdOjQ8bZcXAgjER8D0+I2AVf2xI2BV35w9IoAAAgj4E3AWsMIznjLqf9UZUB6v/Fm9eo0079SsLmSM7l+M1P3h1StQ/zod3Tb1FglYEfwcELAiQIzJJsoH5frP5bObYvLWKnobxxxzjCxdurSiZWtxofYBqxY/P58ZgTgIjBgxQh75y+ORHdAQsKo/qgSs6puzRwQQQAABfwLuApa/z9R+z3944BEZoALWFw7+XDze0HbeBQErgiEiYEWAGJNNJOHRod1Rld+3PgOLgNXzZCJgxeQHjbdR0wL7qYD1JwJWoucAASvRw8ebRwABBBAwFEh7wPp/s34m/fv0kykTf2goU/3FCVgRmBOwIkCMySZuvPFGyWaT+xSIYcOGyVe/+tWYaMbvbbS2tsott9wS3i+MFwIIVFdg9OjR4Zmt++67r/z5iccjO1WeM7CqO456bwSs6puzRwQQQAABfwJpD1iXXXGtutovkPPOHq9/k4/wQsLox4yAFYEpASsCxBhtwtUjP6v1EZP+/l06YeNSl20jsH0BHT30HwSs5M8UAlbyx5BPgAACCCBQuUBaA5b+XOvXb5Rrb7w5fADheZPHlu7KFeMv+wlYlc/bHpckYEWAyCYQQAABBFItUD4Y0vfA4gysZA81ASvZ48e7RwABBBAwE0hrwCoWi3Lf/X+UF156JQQ57pgvy4H776MCVnyvSCJgmc3dbpcmYEWAyCYQQAABBFItQMBKz/ASsNIzlnwSBBBAAIHeBdIasIKgIJddMU9yuVyIkM/n5fxzJ3IJYW9TQpe/WXPmy3lTxvW2aCz/OQErlsPCm0IAAQQQiJEAAStGg7GDb4WAtYOArI4AAgggkCiBtAYs3WFmXnVdeMaV/r29WCiE98HiEsJepicBq2egMaNPl0ULF4YL6B8cXggggAACCCRRgICVxFHr/j0TsNIzlnwSBBBAAIHeBdIasDZv3iJzrvv51s6gb301ZeLpUl9X1zuKpyW4hDACeM7AigCRTSCAAAIIpFqAgJWe4SVgpWcs+SQIIIAAAr0LpDVg3fW7JfL6G2+pu7YH4dOhi8VA/vn4Y2XEvp/qHcXTEgSsCOAJWBEgsgkEEEAAgVQLELDSM7wErPSMJZ8EAQQQQKB3gbQGrMuuuFaOOeIf5dEnn5Pm5n4ydOdB8sxzf5ML1H2w4voiYEUwMgSsCBDZBAIIIIBAqgUIWOkZXlcBq3yrhDjfeyM9o8gnQQABBNIpoH8vUVfCqbOKwv+N5JXWgPXkU8/KIQd/TuZef6s09+8np574L3L37/8gXz/+qNAtjr8fE7AimNIErAgQ2QQCCCCAQKoFCFjpGV5nAUvdTPbrxx+fHig+CQIIIICAF4EJE8+U73zvu5HtO60BKwiKYey7et4tMmBAXzn1+99WlxEWJZvNbv1zZIgRbYiAFQEkASsCRDaBAAIIIJBqAQJWeobXWcBS35oPbh4YfuPLg2vSM1/4JAgggEC1BS66+L9l0pQpke02vQGr9JC4ufNvlgH9SwErPIMtwrPXIhuEtg0RsCIQJWBFgMgmEEAAAQRSLUDASs/wugpY+lvfIQN3CqHK+yBkpWfe8EkQQAAB1wLlL0AIWGbSV8/75daAZbZm9ZcmYEVgTsCKAJFNIIAAAgikWoCAlZ7hdRWwyt9w6+1v2rRJGhoa0oPGJ0EAAQQQcC5Q/v3poosvVmdgTY5sf2k9A6sMRMAynCr6G7dZc+bLeVPGGa4Zj8UJWPEYB94FAggggEB8BQhY8R0b03fmOmDp99PS0iJNTU2mb43lEUAAAQRqWEDfu0nHJgKW2SQgYJl5hTcII2B1jzZm9OmyaOHC8B9yGr3hxGJxBBBAAIHYCBCwYjMUO/xGCFg7TMgGEEAAAQQcCHAGlh0qAcvQjYDVMxgBy3AysTgCCCCAQCwFCFixHBarN0XAsmJjJQQQQAABxwIELDtgApahGwGLgGU4ZVgcAQQQQCBhAgSshA3Ydt4uASs9Y8knQQABBNIkQMCyG00ClqEbAYuAZThlWBwBBBBAIGECBKyEDRgBKz0DxidBAAEEakSAgGU30AQsQzcCFgHLcMqwOAIIIIBAwgQIWAkbMAJWegaMT4IAAgjUiAABy26gCViGbgQsApbhlGFxBBBAAIGECRCwEjZgBKz0DBifBAEEEKgRAQKW3UATsAzdCFgELMMpw+IIIIAAAgkTIGAlbMAIWOkZMD4JAgggUCMCBCy7gSZgGboRsAhYhlOGxRFAAAEEEiZAwErYgBGw0jNgfBIEEECgRgQIWHYDTcAydCNgEbAMpwyLI4AAAggkTICAlbABI2ClZ8D4JAgggECNCBCw7AaagGXoRsAiYBlOGRZHAAEEEEiYAAErYQNGwErPgPFJEEAAgRoRIGDZDTQBy9CNgEXAMpwyLI4AAgggkDABAlbCBoyAlZ4B45MggAACNSJAwLIbaAKWoRsBi4BlOGVYHAEEEEAgYQIErIQNGAErPQPGJ0EAAQRqRICAZTfQBCxDNwIWActwyrA4AggggEDCBAhYCRswAlZ6BoxPggACCNSIAAHLbqAJWJ3cgiCQfKEguVwgEtRJNpvpsAQBi4Bl96PGWggggAACSREgYCVlpHp/n+WxXLVurQTqkC6jDu+ieOnjxcHNA8NNtbS0SFNTUxSbZRsIIIAAAjUiQMCyG2gCVie3YrEgs+feIPW5Ojlr3KkqYOUIWBXOrTGjT5dFCxeGS+sDO14IIIAAAggkUaAaAWvkyJHyzDPPJJEnUe+ZgJWo4eLNIoAAAjUjQMCyG+qaCVhBUJBAitLaWpBrF9wum7ds6lYsUEvlVLRqaKiXyeN/2GUZzsDqeaIRsOx+CFkLAQQQQCBeAgSseI3HjrwbAtaO6LEuAggggIArAQKWnWwNBaxAfve7pfLym2+q08ez6hShYkms0yWCoiKXZLKilpBzzhoj5YlV5iVgEbDsftRYCwEEEEAgKQIErKSMVO/vk4DVuxFLIIAAAghUX4CAZWdeQwGrKJddOU+K+bxMP2eCusdVx0sDu+PTl8ERsCqfWJyBVbkVSyKAAAIIxFeAgBXfsTF9ZwQsUzGWRwABBBCohgABy065hgJWIDPmzJPPjdhHvnbsl8OzrLqPVuoftd23vVjMq3tg1XVYjDOwep5oBCy7H0LWQgABBBCIlwABK17jsSPvhoC1I3qsiwACCCDgSoCAZSdbIwFL3dlKnU0144r54RNopk8Z06aV6XKGlV7ukplXy+GHHyZHHv4PXVQJWAQsux811kIAAQQQSIpANQLWQSMPkmeeejr81qzz2d7df8PW/u+qB6WEX7Z1fFJyUnyr+T4JWNXUZl8IIIAAApUKELAqleq4XA0FrKK898FyuW3RYgnyGfnBKd8uHTB2OvbTN3G/6db6zj6QAAAgAElEQVQ7pa4uJ1PGj+YSQoN5xRlYBlgsigACCCAQW4FqBKwjDj1UHnz1HcnkC6FDpoKH9+ov4SSvFpw7S+S0U7eeMR5byBi8MQJWDAaBt4AAAggg0EWAgGU3KWokYKl7tqszq7a0tspV19xYilb6y0sVsHSw6vrKSGN9TiYRsIxmFQHLiIuFEUAAAQRiKuA6YGWzWcn321mdFV4sPVhGByz1n0A9YCajKlWQVX/OqHt1FtVRSqcv2jLqYTNF9bTkzP33iBwyMjyKyZbvfRBTT59vi4DlU599I4AAAgj0JEDAspsbNROwwkv/rlqgjhCL8oV/OFgO3H+/UsXq5lVUsau5uZ/U5zre/0ovyiWEPU80ApbdDyFrIYAAAgjES8B1wPpSvwHygDRKLqOOM3TE0l+otW6WzLqPRX44UYo/v1ayA4eqeNXdA2fU05L14YuKV5kH72s7dav7+3rGS9XPuyFg+XFnrwgggAAC2xcgYNnNkNoIWOpArxgUZNacBXLAfvuWbuKuXt3dc6L05EF9xpY6QJQslxAazCsClgEWiyKAAAIIxFbAecBq7Ct/bOjf9vnbzrZa/b4U1QFI9rf3SuH4YyQ36BMiuaw6Hul8nyt9fKLO1xqxr8hfHo6tYVzeGAErLiPB+0AAAQQQaC9AwLKbD7URsEIbdRP3K+dJQd1r4vxzxm991GDniKUD1uLfLpFR/3Ssilc6ZnX89pMzsHqeaAQsux9C1kIAAQQQiJdANQNWRh13yGFfEFn6GxWr1OHJO++KDBoiwSf2UA9MruvmXHEClslsIWCZaLEsAggggEC1BAhYdtI1ErACdQZWUe5Y9Ht55/33pW9Tk0wYc4roe1B0fukzr/SZWjl1D6yzuQeW0awiYBlxsTACCCCAQEwFqhqw9L2v9t9HMo8+pE//Fhl5mMhbb6tw1dMTBglYJtOGgGWixbIIIIAAAtUSIGDZSddIwNLHhAW5ZMZcaWhqUFLqFqjqxqht93LvIKdv6p5VN0et1wFrwuguqpyB1fNEI2DZ/RCyFgIIIIBAvASqGbDCG1r1HyDy3qvhmd9Bv13CSwf1bQy6fxGwTGYLActEi2URQAABBKolQMCyk66hgCVy6exrJKcOCrPhs6r1pYH6zx2/4VR3n5C8+k9jfYNMGvcDFbM6/nMCFgHL7keNtRBAAAEEkiJQ3YClVDZtlMzmtaXbG3zpaAmee56AFdFkIWBFBMlmEEAAAQQiFSBg2XHWTMDS4WnGFddJoVCUC6eN73JvqzJfsahv9n6DNNXVy6QzT+1yAEnAImDZ/aixFgIIIIBAUgSqHrBE3ch9jXoCof6CbeMmKer7XwWcgRXFfCFgRaHINhBAAAEEohYgYNmJ1kzA0jw6TqkrB6Uu1/HG7KUnD24702pjS4v0UffJ0q/ON3knYBGw7H7UWAsBBBBAICkC1Q9Y6nhjzmyRU08M732V6TtIAnUmuD5TPPz/HeC4hNBkHhGwTLRYFgEEEECgWgIELDvpmgpY3RLpG6aWSlVFggQsAlZFE4WFEEAAAQQSK+AjYEl9ncgK9QRCdTaWXH+TyDkXlPzCRxPqY5XyGVkELJOJRcAy0WJZBBBAAIFqCRCw7KRTG7DC4z3VpDqfXdX+/7/4t1flb39/NTwza689dpfPH/w5yap7ZG0vZRGwCFh2P2qshQACCCCQFAEvAUsffbzxnGQG71w6gOm3swTqPpyZU0+Swi9va3dLdwKWyTwiYJlosSwCCCCAQLUECFh20qkMWEFQlA3qMsAXXvi7HHboweG3l5lM6ZtL/c+ee/EVue/+hySTVX+vfAaW/ofqeLFPQ5OcOe7k7dwjq6jukTVfzpsyzk7c81ozZsyQ6dOnh+9i5fq1pS91I3rxFMKIINkMAggggIBXAT8BS4WpugbJrHgv/OzF99+R7O13SnDidyQ48FDJtObbTAhYJpODgGWixbIIIIAAAtUSIGDZSac0YAUy74ZbZc36dTJdhabS2Vil86re/+AjufWO30hBhazvfuvrsucenwz/2fqNLXLdgpvCe2SpO73LeedO7FaUM7B6nmgELLsfQtZCAAEEEIiXgI+AlQkyEmQKkvmPfxO58LzSc5LVsYoM2VWCj9SlhYN3bbvdAQHLZLYQsEy0WBYBBBBAoFoCBCw76VQGLE0xb8GtsnpDKWC1f116+TXqzKtMeAZVqWmVwpY+M0uHrptuvVM+XrFSjj36cDnogAO4ibvBvCJgGWCxKAIIIIBAbAXcBqyB8qWmfvJQtkHdtiAX3qS9/SuTUYHqg7fVKeF9SocoQUHkU59T98darm6DpR5Co79p08vsf4AEjz0YrlrZXTxjy+30jRGwnPKycQQQQAABSwEClh1cagPWfBWwVqlL5KafPb6DzIyrrpU9dt1dvvPtr4XP9sm2XVoY3jRV3WFCR6yZV82TLZtb5cJpEySrLzNs9+IMrJ4nGgHL7oeQtRBAAAEE4iXgNGANaJYG9YTBzY3NqjypgNX+VgZtDPrMq9LfLz2BMMjVhV+0ZdSxijpRS52Zpf7+3NkSnHxieOxCwOp5/hCw4vWzxbtBAAEEECgJELDsZkJqA1ZPZ2DpOPXlww+VL3z+oB7F/t/MOVKvDhanqbO0CFiVTywCVuVWLIkAAgggEF8BpwGrvwpX6nX6kV+R+U+om7bn6sMv1Mr77ElFBy39R1ZfVnjklyX43SLCVQVTiIBVARKLIIAAAghUXYCAZUdecwHrsiuvk3322ku+Neq4bsX0weEll8+VOnWa/vRzOp69pVfgDKyeJxoBy+6HkLUQQAABBOIlUI2AddBBB8kzzzy99SEzvQqUTsjadsaWegpLpt2zCXtdv0YXIGDV6MDzsRFAAIGYCxCw7AYo1QFr1QZ1CeHkMW0Hh6UT7C+dfY26nUQg508dH56On83WdZDTf+/SK68VyQdywbQzu6gSsAhYdj9qrIUAAgggkBSBagSskSNHqoD1TFJIEvs+CViJHTreOAIIIJBqAQKW3fCmOmCt2bhOhgwarG4Poe4Vob+5VK9Va1ZLUQWsSeNPU/egqO9yyv6rr78pi+9eKp/77P5y7JH/yCWEBvOKM7AMsFgUAQQQQCC2AgSs2A6N8RsjYBmTsQICCCCAQBUECFh2yKkMWMViQebfcKus29jSo8qB++8jxx1z5NZ/rs+8UrdGlZmzF6iH/GRk6qQzusQrvTBnYPU80QhYdj+ErIUAAgggEC+BagSsgw8+WJ5++ukOxyEZ9WAZfSuDzIzZUvzPiyS7375SfPAeyQzbRzLr3mtbtuPDZeIlF793Q8CK35jwjhBAAAEE2t/E/b/lrMmTIyEJ75WpHkI3SD0wRr8WL14so0aNimTbcdlIKgNWePBXFs50/2yeQEUuvVBGPQFIv3TAuvLqG6VV/f3RJ39HBg8a2O0NVQlYBKy4/PDyPhBAAAEE3AhUI2B1voQw/CJNBazswGHqQ6kzx9Wp48G+KlxdeZkUv/pNyTzxJ8l8Zp/w2IVX5QIErMqtWBIBBBBAoHoC+vcn/UddXV34R5SvlpbSiTwErChVzbeVUWGq7UJA85UrWSNfKMi69Rtk0MBSsezuRcDqWZIzsCqZZSyDAAIIIBB3gWoELH0T92effXYrRfjl2xHHSvD88yI33yhy0mjJ7DdC5PGHJGgeKjJiX8k8/jABy3DyELAMwVgcAQQQQMC5QPlMqUp3VP69zCSH6HV+/etfcwZWpcgOlnMasMIDx7aztdr/defPQcAiYDmY22wSAQQQQCBGAt4Cljr7qtinUTIfvS3SPLwtYD0owcDh6o9myb79SoyUkvFWCFjJGCfeJQIIIFBLAjsSsPTva5WELH0p4V133UXA8jixnAasSj8XAYuAVelcYTkEEEAAgWQKeAlY6j6c0vwJyew6XORvz6hgNawUsB57KIxZQd9GkQ/elIx6MA2vygUIWJVbsSQCCCCAQDwFTjjhBFm0aFF4wo3uEbX8SuU9sFwOKAGLgOVyfrFtBBBAAAH/Aj4Clu5X+kwrGTBAMu+9oi4bbAtY6hJCUTErGDxEMq+/yCWEhtODgGUIxuIIIIAAArETIGBtGxICluH0JGARsAynDIsjgAACCCRMwEfA0jdxzwzdU2RLq8ibL0iw536SGbG/BN/+J5GfzBa5ZqZkTvqekuQphCbTiYBlosWyCCCAAAJxFCgHLP3eKrl8MI6fIar3RMAylCRgEbAMpwyLI4AAAggkTMBHwAoPSvUTknfaVYJMUbLF8FHJ6u+qSwXqGyRY8Y5kAhWvuILQaDYRsIy4WBgBBBBAIIYCBKxtg0LA6jRBy0WzfMDTef4SsAhYMfw1jbeEAAIIIBChgK+AFUasfKs6E2sv9ed8+Ikyx3xF5M5b9V9F+AlrZ1MErNoZaz4pAgggkFYBAhYBq8vcLoerQN2EQh/s6P909zRCAhYBK62/MPK5EEAAAQRKAj4Dljr4KJ15Ff5Z/0mHq21PSmaMzAQIWGZeLI0AAgggED8BAhYBq8usLKp7T7z62lvy698uCQ8Uv/vtr8tee+zR5QtPAhYBK36/pPGOEEAAAQSiFPARsEpfpLWFKh2tMvorNf0n9YWa/r9RfsAa2hYBq4YGm4+KAAIIpFSAgEXA6jK19YHjpbOvkbq6utKN0YqBTJs8VjK5jjdLJWARsFL66yIfCwEEEECgTcBLwFL3ugrPtQqrlf6vClfr14s8/GfJfO2rbffDYohMBQhYpmIsjwACCCAQNwECFgGra8AqFuWyq+ZJLlsKVjpiTZ10hmSzuQ7LErAIWHH7BY33gwACCCAQrYCPgKXu4C7BwE9IQcWruiAnxfdflsxun2m7klCdmbV2mTojS0cunkJoMtoELBMtlkUAAQQQiKMAAYuA1TVgFYoy++ob1aFhIYxXrVu2yAVTz1QBizOwKv0hHjP6dFm0cOHWAFjpeiyHAAIIIIBAnAR8BKzw7G8VsDLqz/m/PyV1nz9Cgg0tIs/+WWTkFyWYOEGyP/2/ikmfp8UFhZXOFwJWpVIshwACCCAQVwECFgGr27mpDx4//OhjKaqYteuuw7bexLX9wpyB1fOPNQErrr/k8b4QQAABBEwEfAQsfQZWUQUsGdBP5L1XJdO8q2S+cZwEt/5CpHkXkZ12kszbr5h8DJbVqU/fEF+9Vq1bW7qXmL5EM4KXPmYc3Dww3FJLS4s0NTVFsFU2gQACCCCAQFcBAhYBy/rngoBFwLKePKyIAAIIIJAIAX8Ba1eR3YZL9sWnpbiT+iJtxiUiY0ergDVUpE9fyXz0ViL84vQmCVhxGg3eCwIIIICAjQABi4BlM2/CdQhYBCzrycOKCCCAAAKJEPARsMJnDjYPl0zfviJv/k1kl91FHn1Ags9+thSwhu4smVde5OpBwxlEwDIEY3EEEEAAgdgJELAIWNaTkoBFwLKePKyIAAIIIJAIAR8BqxgUJHPYkSIvv1oy0pe7rf5Qgh9OkODOX0vm+mslOOGfJZvp+HCZRIB6fJMELI/47BoBBBBAIBKBWglY+vL88u/bPcFdPe+XMqB/Xzn1+9+OxNblRtR9TcOHS3t9EbAIWF4nIDtHAAEEEHAu4CNgSVEd4qgbNAUjDpJg+XIJHn1QcvuqpxAOUPfFymQlGD9aMpf9hNu3G44+AcsQjMURQAABBGInUBsBS6ce9UegHqK3nWfVELAMpycBi4BlOGVYHAEEEEAgYQJeAtZWo6I+fFOvTPhEwkDfhLyoG1ag/hRIVjgDy2Q6EbBMtFgWAQQQQCCOAkkPWFvPQyqWnqaSyXYsVPqf685y+VXzJL+lVS6YPqnHM7EIWIYzlIBFwDKcMiyOAAIIIJAwAZ8BS8erjE5V+hvI8K/L/1MOWKW/z6syAQJWZU4shQACCCAQX4HkByz1TZw6olm3foO8+da7Kk51PJYJdNRSjwq+9w8PSZDPy/lTz+xxMGo+YJVqYFEhlr7RLBYL4Z+z2Zw6eOx6DSYBq+cf7DGjT5dFCxeGC8Tgas/4/grEO0MAAQQQiLWAz4DVGaaoj1M+Xi6ZXXZRZ2Op45NYy8XvzRGw4jcmvCMEEEAAATOB5Aesglxy+bXSUF8XxqueWoF+oE1+S14unEbA6nGGaLzly1fIzjsPCU9T0/9/44ZN0q9/n27XIWARsMx+uWFpBBBAAIGkCcQpYIUHeQPV0wnHj5Hg0ou6fGuZNNtqv18CVrXF2R8CCCCAQNQCSQ9YV8y5XlqDvBx80IFy8Gf3CU8W6vDSZ2TpywjV39SRq1/fPrV1CWEQ6I8e3j0i/N/tvZ59/gW5/6FHZcIZp0jfpqbwmsyZ6trLxqZGmTzuh11WJWARsKL+BYntIYAAAgjES8BHwApD1dq1ktl9hPr+sXQcU35l9OWEp3xXZO6V8YJKwLshYCVgkHiLCCCAAALbFUh6wLpk1tUqWmXlvCnjws+p/7r9K9BPYlZXxJU6TvnquO47TiovIdQf/Hf33C/Pv/RaGKS298qqs67q6nLS2toaBi99/Finql9TY6OcNe60LuWPgEXA4tdXBBBAAIF0C3gJWPrW7c3DQtjMid8T2am5DVkdm1wzTzInq79HwDKeeAQsYzJWQAABBBCImUDSA9als+ZKti4rUyePC5uLfj5N55f+Iu/Pjz0jGzdulOOO+R/6aKjbUUhpwApkwQ23yur160vfYqqbRpQvD+yskMvlpFDQxU9XQHXVZfgYa3XqmgpYZ0/gDCyTn13ugWWixbIIIIAAAnEV8BOw1OHHQBWwhg4XeeXZbTT628gvHSPy8FL1lWX5zPLtn10eV1cf74uA5UOdfSKAAAIIRCmQ9IC1fuMmuXbBTeFTlSedeao01qsr3zq99D0/L5t9jboneSA/qrV7YOl6N18FrLUbVMBSSFPPHquwSjdkLx/IlL3+8tRz8vCjj8v40SeH11rq18w586W+vp6AZfhTR8AyBGNxBBBAAIFYCvgIWBoiaN5FMjsPk+C157Yer+gbmoZniKt/Hp5UTrsymjMELCMuFkYAAQQQiKFA0gNWUCzKr+66W959/0P9nOXwiYPtX4G+F7l6mF5OfVHXuqUgF0ydUFv3wNJpL1AoP7/5V7Jy1drwWsrmfgNkzBnfb3PSB4Ol6y4fe+Kv8qfHHpeJp58i/fr1DZ9COHPOAqnPZeWcs87ocqTIJYQ9/0QTsGL4qx1vCQEEEEDAWKC6AUslKnXMEj5CunwJ4Yr3RH2TFr5v/aVcoM7Myl41S4LTTun2tHvjD1hDKxCwamiw+agIIIBASgWSHrDuvvdBeem1V2XLpi3yieG7qObS+ds4fRykv6MLpEHd3unk732rx4fWpPISwvBSQHXAp7+x3LR5s1x59c8lV68uFcwX5IuHjpQjDv9CGKb0QU0YsNQZWBPVTdx1wArU3fHvWHSPfP1rx6ozspq4B5bBLwIELAMsFkUAAQQQiK1AVQNW8/BSvNI34dRfrrWdZaXPvCq/wpu4n6pu4n715aVleFUsQMCqmIoFEUAAAQRiKpD0gPXTmdeEp5GfP3V8+LRBfcP27l76ZCF9pnlW/093N8pSK6U0YG3jCJ/qo15vv/O+3LboN6LveZVvzcsP1NN8hg8dJH956gV5+M/bAlZvc5YzsHoWImD1Nnv45wgggAACSRCoZsAK2s66KpWrbl7hV5LqiTzhTdznJIEvVu+RgBWr4eDNIIAAAghYCCQ+YM26RvQtx6efPS482smG9x9v12zawlVB/bm1tSB9mhp7VEp9wOoAUyjKPff/UV58+ZXw0Y1FFbKOO+4rsvSBB9UlhKeFZ2D19iJgEbB6myP8cwQQQACBZAtUNWANUDduP+ZIydx1ew8BS6UtdQlhZvEdEhx5eI/fWiZb3N27J2C5s2XLCCCAAALVEUh6wHrq2eflDw8/KpIvynlTxkpGnVTU/qUbi+4zl86+VoqFvFwY3sS9hp5CuL1ppHH0wcwVc26QvLpcsPT0waKM1/fAUjdx73yT987bImARsKrzyxR7QQABBBDwJVDNgKWfNhPoywLDez+0/XVQUB9dH5/o2x2ULibUt0XgZS5AwDI3Yw0EEEAAgXgJJD1gPfnkX+WhP/8lPNbJt7aGt3bq8FI3b9dHPXWNjeHVchdOndjjANTUGVhaoXxJof7rLVtaZcbs6yRbn1VPHBwtTepUNV3+tvciYBGw4vXLGe8GAQQQQCBqgWoGrK0PFtQ3a2/7IOFdPMMrB1XQ+utz6obujZL57H5Rf8ya2B4BqyaGmQ+JAAIIpFog6QHrnnsfkJdefV1dHtiqxkl/Idfxtgn6mEff2D2nukxBXUJIwKpgOoc3fe/hRmHtVydgEbAqmE4sggACCCCQYIFqBqxtTCpgDfqkOoJTZ4fr+3f+4noJvvmN0hMI9VMK132k73/a0xn1CdZ2+9YJWG592ToCCCCAgHuBpAes3937B3n5ldfk3LPGqhOGup5RHhQL6h5ZOfnp5XPDE44unDpBoXZ/YlHNnYG1o9OLgEXA2tE5xPoIIIAAAvEW8Bawvn2iZO5/UIoHHSjZ+34jQZ8mkfXrRXbdWzJfPEwC9fe4kNBs7hCwzLxYGgEEEEAgfgJJD1it+c3y8CNPyVeO+GK3V7yVTyZ674MPZVPLZtn703v2OAgELMP5ScAiYBlOGRZHAAEEEEiYgJ+ApZAGDlfRqkHkgze23qw9vPWBOgtLBg2SzFsvqYVIWCbTiYBlosWyCCCAAAJxFEhywArUvT7Lr9L9x7e99M0T9NnlpZso6CvicuEZWNu7Mo6AZThDCVgELMMpw+IIIIAAAgkT8BWwggHDRXZTTxx86dmtYuGBnApYxT59JfvRmwmT9P92CVj+x4B3gAACCCCwYwLJDFgqS5W6VBioMurSwfIDaYrqkkF1o09ZvXpjeF+swYObpS7XED64prcv6ghYhnOJgEXAMpwyLI4AAgggkDABHwGrGIaqT0hm0EAJ3vpbKFZ6Jo86mGseKoUhgyX7+ksV3a8zYdxO3y4ByykvG0cAAQQQqIJAEgPWpi2b5GfX3iStm1olW5eTM8eeKv379w21XnjpVblnyQPqHp/qKEcd6uiH1+RbNskF089SRz6lJzP39CJgGU44AhYBy3DKsDgCCCCAQMIEfAQsffhWHKAuFdQPlFnznmTD0+yzErz6qsghX5LMySdIYe5Vkut0+n3CaKv+dglYVSdnhwgggAACEQskJWCFtz1Qr3ffXya33bFY1BWBki8UpD5XF14a+Gl1b6vddt1FHvrTE+qZNYEcecShsv8++6jQdaM0NNXL5s15ueDcceo+Wbkev7AjYBlOLgIWActwyrA4AggggEDCBLwELHVgF3y0TDL7HKRSVlYy++4VnnqfUU/tCb+JXLssYYrxeLsErHiMA+8CAQQQQMBeIEkBS4eqy392vRRUoDr7rB9KQ31Oiv+/vfMAjKO6FvaZleRuyb3SQrFNC+URSjCEGnpxMMWmd7BNNWkv/3t5vEeoxqHYgOkBHoGXUIIpoXdMiw0mEDqmu+OGjS1r5z/3zq6KJVm6q9XO3N1vjLE0e3fmznePVrPfnntuuFomXnWrlHes0HubtD6WlvFnn6SiqiKCovc7017/h7zy5gzp27O3HDv60NrphmtSQ2A5xhECC4HlGDI0hwAEIAABzwjEIbDsp5ZGVH3xlcjmP7G1IaJKEPrnG5VY3bp5RjEZ3UVgJWMc6AUEIAABCOROwBeBZa7wsSeelX/ph29jTzlWOnTQhWnslraZWJNuvFOLtgdy/DGHS4/KrpplFRV1t/dA+t+Ea2+0tbIuOOtUewfU1IbAcowjBFbzwE46/gR54P7764LQkS3NIQABCEAAAkkgEI/Ayt6rmUoQgf2E0tzYZdPx17YiTxKYJbUPCKykjgz9ggAEIACB1hLwRWCFYY1cec0tVkKdP+YUUwnBTgWM7mUCueLaKfbe5oJxp9iKCXWSSssopEN59Mln5cOPPpVzx5ys2VkNVyzMskJgtTZqMu0QWAgsx5ChOQQgAAEIeEYgDoHVPKJocensyj2eoYy9uwis2IeADkAAAhCAQBsJeCWwrr1VylRgnaeSqv5mJNaEa26SGs3E+s35ZzZJZNrrM2TaG/+QM046Rrp07tRkGwSWYzAhsBBYjiFDcwhAAAIQ8IxAkgSWueELqgaIfPOpTiM0q/esZWkezzgXorsIrEJQ5hwQgAAEINCeBHwRWKZ45733PyzfzJ4rZ51+gpTr6oP1t//760PSu09P2XO3XRrJLbPjrnsflPkLFsp5Y09uFicCyzHSEFgILMeQoTkEIAABCHhGIA6BlTbp9SMO1yWlGwoqWxrrueckHH2kBDdcoySbTqn3DHHBuovAKhhqTgQBCEAAAu1EwBeBZT50W7Z8udx0272ahRXK2WeeYO9bWiqDYBxLKgjlCp1+GOpUwl+eexqrEOYrlhBYCKx8xRLHgQAEIACBZBKIQ2CZmldSOUhtVbQEdd1mphAGkjpqpMgNk/Q+kAwsl6hBYLnQoi0EIAABCCSRgE8Cy/C7bML10qlrR9l8yMay15671BZrb46tqZ21YMEiuePeB2TToUNkv712bXYYyMByjFAEFgLLMWRoDgEIQAACnhGIQ2AZRGFlPwnMij1zv5LQiCzjqo48Xpf0eVxk9ucSdq5Qf9UwHd8ztAXvLgKr4Mg5IQQgAAEI5JmALwIre9mhVMuEP94iG/5oPRlx8L7NFmSvxaSZWxMn32qLvZ8/7iTdrZU/oyrvjTYElmNwIbAQWI4hQ3MIQAACEPCMQBwCy5Zq32kPkfXWEblXl5nOMLP5V1UDJRw8UIJ3Z1ACyzGWEFiOwGgOAQhAAAKJI+CdwDJZ5Xr/EpqyCIGZHli+VqZhukYeePBx2fvnu0m3rp2jeyAEVn7iEIGFwMpPJHEUCEAAAhBIKoFYBJYtdmXu91RY1b9pMzMKe7l2jbMAACAASURBVPSXdKfOktIsLGq4u0UNAsuNF60hAAEIQCB5BHwTWO1JkAwsR7oILASWY8jQHAIQgAAEPCMQj8BSNzV3jvFXDQRWuHChyA67SrpXTymb9YFnJOPvLgIr/jGgBxCAAAQg0DYCCKw6fggsx1hCYCGwHEOG5hCAAAQg4BmBOASWRaQ1sNKaYlWjfyrCqNZVmNI96XJJL/lWU/BNSj6rELqEEwLLhRZtIQABCEAgiQQQWAisnOMSgYXAyjl4eCIEIAABCHhBIFaBVVEuqbde1TSsbLH2tIQDB6nWKhPjtFiD0C2EEFhuvGgNAQhAAALJI4DAQmDlHJUILARWzsHDEyEAAQhAwAsCsQms/Q+RcJNNJLj6CuWEqspHsCCw8kGRY0AAAhCAQJwEEFgIrJzjD4GFwMo5eHgiBCAAAQh4QSAOgWVqtZsVeyJxVWMzrtjaTgCB1XaGHAECEIAABOIlgMBCYOUcgQgsBFbOwcMTIQABCEDACwKxCCxbvN0uOi3Bcy9J+B8XinTpKvL/fi3B8J2aXU7aC6AxdhKBFSN8Tg0BCEAAAnkhUAoCK8yswpz9tzlwFHF3DCkEFgLLMWRoDgEIQAACnhGIRWAZRmYJwqr++kVKgrBGwsAUbA8k3GA9Sc183TOKyeguAisZ40AvIAABCEAgdwJFL7D0nue6G+6UZSuWy2G/OEA2Wn+9Zj+4Q2A5xhECC4HlGDI0hwAEIAABzwjEIbAsooOPkvTzT0uw8y4SPnq/MVoS7LGfBP+YIfL84yJbbU1pLMdYQmA5AqM5BCAAAQgkjkCxC6zrb75Llq9YIalUtNLyeWNPbnYMEFiO4YnAQmA5hgzNIQABCEDAMwJxCaywsp8EHTqKzP9SwnRUFcvMK0z36CdlvfpI+rN3NDeL2lgu4YTAcqFFWwhAAAIQSCKBYhdYl068Xjp0qKi97znpmCOlR1W3JocCgeUYoQgsBJZjyNAcAhCAAAQ8IxCLwDLTB3sMFBk0QORf05VY9CmkrYrVXfd16Swy+zP1WaxO6BJOCCwXWrSFAAQgAIEkEih2gfWXB/4uX33zlRZN0A/t9M95Y0+xXze1IbAcIxSBhcByDBmaQwACEICAZwTiEFjGX0kPrX9VUSHB3C/UX0UCyxR1l6p+In01O+vjd+qJLc+gxtRdBFZM4DktBCAAAQjkjUCxCyxzt/PY35+Rz774Ro4+coRUNZN9ZYAisBzDCoGFwHIMGZpDAAIQgIBnBAotsMyKO3YJwnHnidxxlwRHjJTw5usiageN1PpXL4l8+LZI//5kYDnGEgLLERjNIQABCEAgcQSKX2BFyFtagRCBlUNoIrAQWDmEDU+BAAQgAAGPCBRSYNV07yspXW0wqnilRdv1/+b8YWj21ehqhOYRzcYaNVKCGyd7RDEZXUVgJWMc6AUEIAABCOROoFQEVmsIkYHVGkr12iCwEFiOIUNzCEAAAhDwjEAhBZZo4XYpL5ewV68mKQXptMi8+RKOVoE1ZVIks9haTQCB1WpUNIQABCAAgYQSQGDVDQwCyzFIEVgILMeQoTkEIAABCHhGoKACSzOw5ID9RO65o2lKmoAVVg2UYMLFEp52YjMlTT0DXMDuIrAKCJtTQQACEIBAuxBAYCGwcg4sBBYCK+fg4YkQgAAEIOAFgYIKrEZENOOqXpaVLeJuZhHqtMIgrV+kWIXQJYgQWC60aAsBCEAAAkkkgMBCYOUclwgsBFbOwcMTIQABCEDACwJxCixT98oIrOzy0WGYlqDHQAkvvlhkzMm21jtb6wkgsFrPipYQgAAEIJBMAggsBFbOkYnAQmDlHDw8EQIQgAAEvCAQh8CKirhrotUW24l88bkmXUW1royvMolXwdGHS3DDtZk9XmBMRCcRWIkYBjoBAQhAAAJtIOCnwLLp4y1cdf02rWkvQg0sx0BCYCGwHEOG5hCAAAQg4BmBOASWaKZV2H9DkRXLJOyjKxOmIoFl5dW8BSIqsOT6a+wKhWytJ4DAaj0rWkIAAhCAQDIJ+Cawamo0m1xXUU6Vm3zyzP2MLkqTSpVZwKF+vXDxUnn2hZdl2dLlss1WW8pWWw41j7QovRBYjjGKwEJgOYYMzSEAAQhAwDMCsQgsc9NW2V+kp65GOOv9ug8tjdjqPViCZx8X2WpzJRnd/LG1jgACq3WcaAUBCEAAAskl4JvAMs7k2RemyYyZ70mqLJC0Cq11Bw6WI0bup14rkGuvu11qUnrfo5/SGWWV0g/njPM67cQjpbJ7t7UOBALLMU4RWAgsx5ChOQQgAAEIeEYgDoFlbuGC7v1EBg+U9Psz9PPKrKjSou56s7daE6/KTJt6Bd49wxpLdxFYsWDnpBCAAAQgkEcCvggs40rM792rJ91sBdXqVSIdK8qlevVqKa9ISc2q1UpFs7I66D1OTSjnn3WKTbr6cvZcue/BR/S5KTnnjOMz9T6bzjhHYDkGFgILgeUYMjSHAAQgAAHPCMQlsEwGlrl5k8Wza4mZIu7Se30JXn9JVm+8npS3WE/CM9jt3F0EVjsD5vAQgAAEINDuBPwRWNWydOkPcstdf5bqH6rlV+ePsUIr1OmEd//lbzJ7znxbIiFcnZbzjLwK9IM5k4ilrqp6VbVMuvEOCTUV64JzT2+WKQLLMdwQWAgsx5ChOQQgAAEIeEYgDoFlakXItj8V+WSW1HRISWrjjS0105f0u5qCf/SREl5HDSzXUEJguRKjPQQgAAEIJI2ALwLLiKo77nlAFixcKOeceaKUZWte6X7zgdwfr7/VrrM87vQTpLysrLaup11xWVOxrr7+T2J8y7ljzarLZGDlJQ4RWAisvAQSB4EABCAAgcQSiENgmRoQoU4htKVOzaeVoplXdtNPKs3UwVFaxH3KJJN4n1huSewYAiuJo0KfIAABCEDAhYBPAuvyq6dIeXmZnG8lVFTA3WxGUl1+9U3261+fe5rNyqp7XO96tB7WC9PelBlvvyNjTjlOOnaoaBIRGVgukaNtEVjNAzvp+BPkgfvvzwRodkFwR8A0hwAEIAABCMRMIA6BZVYhlMoBElZq8dKvPqn7VFJZBGb/Rf8hcvZY9JVjbCCwHIHRHAIQgAAEEkfAF4FlssmvnHyLXYHw/HENBZaBevlVN+gUwUB+Pb7pKYLPvfS6TH/rbRlz6rHSqWMnBFY+IhGBhcDKRxxxDAhAAAIQSC6BWASWybnSYu0mv8rUg8jWao/S6nWvTbwi+8o1ahBYrsRoDwEIQAACSSPgk8B64eXX5U3Nohp76mjNourSAKUp5m5qYJXp3/pblI0VyHU33SErq1fLeWNOanYIyMByjE4EFgLLMWRoDgEIQAACnhGIR2BlIek60na9QaOrzERCo6/M6oPIq1zCCIGVCzWeAwEIQAACSSLgjcAyRQ9MFtZ1t0l65Wr55Xmn6Aw2vavReldr24xjSUu1XDP5LlmtSxf+6jyTodVQcmWfj8ByjEwEFgLLMWRoDgEIQAACnhGIU2DVGFl18cUS6BLUYoqfXnOFyIgRmSWlPQOZgO4isBIwCHQBAhCAAATaRMAfgWVmD4by+NMvyvsffGTLL5nVBlv6EM485657HpR58xfI/vvsLkOHbNTsx3YILMdQQmAhsBxDhuYQgAAEIOAZgVgElvn00XzYWGkKuUefOpq8KzOFUH60vgRvv2l2SL16qJ5Rjae7CKx4uHNWCEAAAhDIHwGfBFZ01WmZ9tp02WD99WTggL76fUtZ5GmZeO1tsrp6pWZtnZn50I5VCPMSQQgsBFZeAomDQAACEIBAYgnEIbBs/YcDRkj40ssiEy4TOfUEe8MXbD9cwg8+EXnnDZH11iUTyzFqEFiOwGgOAQhAAAKJI+CbwIpqWkUYG6422DRa02bu/PnSr09vU//d1slqbiMDyzE8EVgILMeQoTkEIAABCHhGIBaBpZ9WSuVAkU4dJJzzhaQyd35aTSJahbBvP5FP3mnxM0zPULd7d7NjuXDJYr0jViGYp0WSzf1g76oetv8rVqyQTp2aXi2p3S+QE0AAAhCAQNET8E1gtWVAsgXdEVhtoVjvuQgsBFaeQonDQAACEIBAQgnEI7CMqFKBNUhl1b9m2NV47KbCJaxSedW5q8iczxBYjjFTK7CWLtHpl8o0nR+DhcByHAiaQwACEIBALYGWJM2aqOoLLPP7p/YeYS1MXc/hy/CQgeU4UggsBJZjyNAcAhCAAAQ8IxCPwNIJg937SbprZwlmf54RVWn1V5pGX9lfAk2rT388U9Pqyz2jGW93s2N53HHHRR1pqQxHa7urHuyOO+6wrcnAai002kEAAhCAgCFg5JL5vVRTY1Yebnl78cUX5euvv7YNjzzyyFYJLNP2ggsukG233bblE3jUAoHlOFgIrOaBnXT8CfLA/ffbBuaHkg0CEIAABCDgI4FYBJapF3HoSAmffUGCq6+U8Phjoilv2+ws6U8+luDTt1ViaYYWmxOB1nxK7XTAJhojsNpKkOdDAAIQKD0Cps5Te79nfuihh+Sggw4qKrgILMfhRGAhsBxDhuYQgAAEIOAZgTgElp0rmNb0oB4DtBpWjeZdlelstxpNGNIMrB+tJ8FMLeLO5kygEG8QjMDq2LFjqz8Rd74IngABCEAAAkVHoL0+YMke18ixqVOnyoEHHlhU7BBYjsOJwEJgOYYMzSEAAQhAwDMCcQgsW6xdOdlPYydOFrnwIv1O61xcP0nC0UcgR3KIoULV/yjUeXJAwFMgAAEIQCChBMy9hvl7+RVXyMmnn9qq1fpauhRzL2FqPWYXGUFgtUSsfR8P9AYh9nlpCCwEVvuGOUeHAAQgAIG4CRRSYGVvbdrrk9i4WXJ+CEAAAhCAAAQaE8gKrIsvuVhOHzfWNsjHSrn1FxlBYMUbeQisPPCfOHGijB8/3h5p4TJdkSePSpAaWHkYIA4BAQhAAAKxEyikwJIwbW5Z9b98VRePHR8dgAAEIAABCECgBQLZe40/qMAaM25c3niZD8Z6VVbZ4yGw8oY1pwMhsHLC1vBJCKw8QOQQEIAABCBQ1AQKKrCGbSXpb76V1JLZEq6slqCsXNK60KCpgRVtZiVCo7i0FhYbBCAAAQhAAAJFQaBOYF2iAivKwMrHhsDKB8X8HAOBlQeOCKw8QOQQEIAABCBQ1AQKKbDS3ftp8pUqqsVzJagaIGHHCgnmfVXL19az6D5Agov/S+SsM4uaOxcHAQhAAAIQKBUCCKzcRpoi7o7cqIHVPDCmEDoGE80hAAEIQCCRBAoqsKr6SWrDjUSmT5NQvw7NanbzvrQF3c2W1qkAqaqBIqMOF5lybSJ50SkIQAACEIAABNwIILDceGVbI7AcuSGwEFiOIUNzCEAAAhDwjEAhBVZY2V/Cvr0l9fF7IlX9RVRgped9rhMGMwpLa2SFKrACK7AmeUaS7kIAAhCAAAQg0BQBBFZucYHAcuSGwEJgOYYMzSEAAQhAwDMCBRVY62j21eLFEhx/nMgdd2v9K824OuZoU/qqdgvvuEsF1hEILM/iiO5CAAIQgAAEmiOAwMotNhBYjtwQWAgsx5ChOQQgAAEIeEagkALLlLgyUwdNkXZT78rmXYWB/pdZJlhXJ0zrn7KjEFiehRHdhQAEIAABCDRLAIGVW3AgsBy5IbAQWI4hQ3MIQAACEPCMQKEFlhors8yg1Oh0wqBjJ0nN+6KWmC3iXqlF3HUKYahTCLO1sTxDSnchAAEIQAACEKhHAIGVWzggsBy5IbAQWI4hQ3MIQAACEPCMQEEFVoZNtNpgP0lXVkrqq491ZcJIVZki7kEPFVjjz5LwP35Xu98zpHQXAhCAAAQgAAEEVptjAIHliBCBhcByDBmaQwACEICAZwTiEFg16q/KdNpgWlbrZMJyJRYJLDutcOVKW9w9TAcSpDyDSXchAAEIQAACEGhEgAys3IICgeXIDYGFwHIMGZpDAAIQgIBnBOIQWJ4horsQgAAEIAABCLSBAAIrN3gILEduCCwElmPI0BwCEIAABDwjgMDybMDoLgQgAAEIQMAzAgis3AYMgeXIDYGFwHIMGZpDAAIQgIBnBOIRWDpZUOtdydwFEgzZUucO6vfDhkp4yYUSjDhKZMlsCdL6eIo5hJ6FE92FAAQgAAEINCKAwMotKBBYjtwQWAgsx5ChOQQgAAEIeEYgDoFl5FUwf6GEG20hYaB1sNIpCTcbIvLAvSLDtha57CKRM06liLtnsUR3IQABCEAAAk0RQGDlFhcILEduCCwElmPI0BwCEIAABDwjEIvAMqsQVvbRDKsykYWzRXoMlEAzsOT15yVd1V+C/vr3w3dMq0x5d8+g0l0IQAACEIAABGoJILByCwYEliM3BBYCyzFkaA4BCEAAAp4RiENgWUTdB4j07iXpWTMlqBxcK7DCKt3fqauk53wqqrfYIAABCEAAAhDwnAACK7cBRGA5ckNgIbAcQ4bmEIAABCDgGYE4BJatf6WZVjJwgAQfvC1hpf5rM7Be0K/7SdCli4SzP9XsK2pgeRZOdBcCEIAABCDQiAACK7egQGA5ckNgIbAcQ4bmEIAABCDgGYE4BJZFVNlfwrKUBAu/krBqkBVY6def02ysgSq29O8HbzF90LNYorsQgAAEIACBpgggsHKLCwSWIzcEFgLLMWRoDgEIQAACnhGIQ2DpmoMS/O5/RCZNEtlvH5FHHtfi7cMknDNHZNFiEZ0+GHTqQgEsz2KJ7kIAAhCAAAQQWPmLAQSWI0sEFgLLMWRoDgEIQAACnhGIQ2CldQphKlBQgzeW9NJlEphVCXW2YGhWIzzsYEndfqN+o4+bNmwQgAAEIAABCHhNgAys3IYPgeXIDYGFwHIMGZpDAAIQgIBnBOIQWLWIwrSEX30jwV4jJNxosMijD+hDKrOofeVZFNFdCEAAAhCAQPMEEFi5RQcCy5EbAguB5RgyNIcABCAAAc8IxCmwTDH3IDATCrUWlinsHgSS1j8pBJZnUUR3IQABCEAAAgisfMcAAsuRKAILgeUYMjSHAAQgAAHPCMQpsBqhUollZg5KkNZErEB9FqsQehZOdBcCEIAABCDQiAAZWLkFBQLLkRsCC4HlGDI0hwAEIAABzwgkSWBZfdV9oAQP3C2y1+7GZHlGk+5CAAIQgAAEILAmAQRWbjGBwHLkhsBCYDmGDM0hAAEIQMAzAgUVWC0VZtfH01UDJTXqMJEpukIhGwQgAAEIQAAC3hNAYOU2hAgsR24ILASWY8jQHAIQgAAEPCNQSIEV1bxqPqsqlBqRykESjDocgeVZHNFdCEAAAhCAQHMEEFi5xQYCy5EbAguB5RgyNIcABCAAAc8IFFJgSVV/TbGy5a2a3Ewh93RKS7ofdSQCy7M4orsQgAAEIAABBFZ+YwCB5cgTgYXAcgwZmkMAAhCAgGcECimwwu597UqDzdW2sisSmuLtZGB5FkV0FwIQgAAEINA8ATKwcosOBJYjNwQWAssxZGgOAQhAAAKeESiswOonwdAhIm++1CQlM8XQZGmFo0ZqBtZkSVHE3bNoorsQgAAEIACBxgQQWLlFBQLLkRsCC4HlGDI0hwAEIAABzwgUVGBVqsDaYkuRV55eq8AKRh8h4fXXrrVelmeY6S4EIAABCECgZAkgsHIbegSWIzcEFgLLMWRoDgEIQAACnhEopMCSDz6UcMiQaBZhE5tWwJKwaoAEN0+S4DAt5J5qvuC7Z5jpLgQgAAEIQKBkCSCwcht6BJYjNwQWAssxZGgOAQhAAAKeESiowGqBjVbAsi2MtkprLSz8lWfBRHchAAEIQAACTRBAYOUWFggsR24ILASWY8jQHAIQgAAEPCOQLIGlKxRqHayUpmhpLhY1sDyLJboLAQhAAAIQaIoAAiu3uEBgOXJDYCGwHEOG5hCAAAQg4BmBOAVWlG9lthoJwjJNvdI9mnlF7XbPgojuQgACEIAABNZCAIGVW3ggsBy5IbAQWI4hQ3MIQAACEPCMQKwC6803JNhjfyUWSDhsE5H/91uRY06UYMk8zyjSXQhAAAIQgAAEmiOAwMotNhBYjtwQWAgsx5ChOQQgAAEIeEYgDoFlpgkGH2pB958M12JXKS3Wrgpr2FAJn5wqsq6KrAvOk+A/fqM7KeLuWTjRXQhAAAIQgEAjAgis3IICgeXIDYGFwHIMGZpDAAIQgIBnBGIRWMooqOxr/i+yeE608qARWK8/p/sHS9ivj4Qfva21sNRssUEAAhCAAAQg4DUBBFZuw4fAcuSGwEJgOYYMzSEAAQhAwDMCsQgszcASlVZhn54SfPq+SGX/SGC99rzKrP6S6txFZPYsamF5Fkt0FwIQgAAEINAUAQRWbnGBwHLkhsBCYDmGDM0hAAEIQMAzAvEILIWk0ioc2F/kg5kSqLTKCiyp6idBl24SfvupziBkCqFn4UR3IQABCEAAAo0IILByCwoEliM3BBYCyzFkaA4BCEAAAp4RiENgiVl+UKVVjWZipZbOlaCbZmNtqrWvXn9BpKfKrIHrSvjemzrBkBUJPQsnugsBCEAAAhBAYOUpBhBYjiARWAgsx5ChOQQgAAEIeEYgFoGlBiu89z6RU8+WoFelyIIFEm42TOSjjyVYXS3hojk6fTBFBpZnsUR3IQABCEAAAk0RIAMrt7hAYDlyQ2AhsBxDhuYQgAAEIOAZgdgElkqsYIefaabVh5nVBtNiSmMFN1wjwdFHeUaR7kIAAhCAAAQg0BwBBFZusYHAcuSGwEJgOYYMzSEAAQhAwDMCcQisUE2VqW6VDvTfxctE7vqzSI8eEow+IlO4ndpXnoUR3YUABCAAAQg0SwCBlVtwILAcuSGwEFiOIUNzCEAAAhDwjEAhBZYpfWX+pjKMrMgK0vpdmWfU6C4EIAABCEAAAq0lgMBqLamG7RBYjtwQWAgsx5ChOQQgAAEIeEagkAJLPvhAZMzZmnoVKaxw5+1F/uf3KrGySsszeHQXAhCAAAQgAIEWCSCwWkTUZAMEliM3BBYCyzFkaA4BCEAAAp4RKKTACme8JfKzfdRc6RTBlOZimZpXS7Rge2azGVnTZ4r821ZRqhYzCT2LJroLAQhAAAIQaEwAgZVbVCCwHLkhsBBYjiFDcwhAAAIQ8IxALALrzVdENvmRBFmRVTupUL1VZT+Ro0eJXHe1ZmZ5BpPuQgACEIAABCDQiAACK7egQGA5ckNgIbAcQ4bmEIAABCDgGYH4BNaGKqjWMFSagRVWDZBg1OEiUyZ5RpLuQgACEIAABCDQFAEEVm5xgcBy5IbAQmA5hgzNIQABCEDAMwKxCKwMI12EsOGmO8z6hAgsz4KI7kIAAhCAAATWQgCBlVt4ILAcuSGwEFiOIUNzCEAAAhDwjEAsAmvkCJEePVRWhXbyYJ3H0hUJb75DZNRICW6YTA0sz2KJ7kIAAhCAAASaIoDAyi0uEFiO3BBYCCzHkKE5BCAAAQh4RiAWgfXmyxJssqHWck9JGKYllVmF0BRxl6qBEhz9C0lfP1nlFkWwPAsnugsBCEAAAhBoRACBlVtQILAcuSGwEFiOIUNzCEAAAhDwjEBBBdb0tyXYbW87TdBswaBBIu+/oV+V2+9D0QysdTaW9PvvSlm3zp6RpLsQgAAEIAABCDRFAIGVW1wgsBy5IbAQWI4hQ3MIQAACEPCMQCEFlsyYKeHP9jLqKhJYYUrSS7+pzbRKazaWVsBqXNzdM6Z0FwIQgAAEIACBOgIIrNyiAYHlyA2BhcByDBmaQwACEICAZwQKKrA8Y0N3IQABCEAAAhBoOwEEVm4MEViO3BBYCCzHkKE5BCAAAQh4RgCB5dmA0V0IQAACEICAZwQQWLkNGALLkRsCC4HlGDI0hwAEIAABzwggsDwbMLoLAQhAAAIQ8IwAAiu3AUNgOXJDYCGwHEOG5hCAAAQg4BkBBJZnA0Z3IQABCEAAAp4RQGDlNmAILEduCCwElmPI0BwCEIAABDwjgMDybMDoLgQgAAEIQMAzAgis3AYMgeXIDYGFwHIMGZpDAAIQgIBnBBBYng0Y3YUABCAAAQh4RgCBlduAIbAcuSGwEFiOIUNzCEAAAhDwjAACy7MBo7sQgAAEIAABzwggsHIbMASWIzcEFgLLMWRoDgEIQAACnhFAYHk2YHQXAhCAAAQg4BkBBFZuA4bAcuSGwEJgOYYMzSEAAQhAwDMCCCzPBozuQgACEIAABDwjgMDKbcAQWI7cEFgILMeQoTkEIAABCHhGAIHl2YDF3N0wDCUbMzF3hdNDAAIQgIAnBBBYuQ0UAsuRGwILgeUYMjSHAAQgAAHPCCCwPBuwGLublVdIrBgHgVNDAAIQ8JAAAiu3QUNgOXJDYCGwHEOG5hCAAAQg4BkBBJZnA7aW7rZ3ZpQ5/vfffy+dO3cuHmhcCQQgAAEItDsBBFZuiBFYjtwQWAgsx5ChOQQgAAEIeEYAgeXZgDXTXZMVlUql7PQ+83V7bStWrJBOnTq11+E5LgQgAAEIFCEBBFZug4rAcuSGwEJgOYYMzSEAAQhAwDMCCCzPBmwt3W3PDKysGENgFU+8cCUQgAAECkUAgZUbaQSWIzcEFgLLMWRoDgEIQAACnhFAYHk2YK0QWAuWLLaZWEGeLs3cD/au6mGPhsDKE1QOAwEIQKCECCCwchtsBJYjNwQWAssxZGgOAQhAAAKeEUBgeTZgrRBY3y1dIqHaqyBPMwnNlMRelVUIrOIJFa4EAhCAQEEJILByw43AcuSGwEJgOYYMzSEAAQhAwDMCCCzPBgyBVTwDxpVAAAIQKBECCKzcBhqB5cgNgYXAcgwZmkMAAhCAgGcEEFieDRgCq3gGjCuBAAQgUCIEEFi5DTQCy5EbAguB5RgyNIcABCAAAc8IILA8GzAEVvEMGFcCAQhAoEQIILByG2gEliM3BBYCyzFkaA4BCEAAAp4RQGB5NmAIrOIZMK4EAhCAQIkQQGDlNtAILEduCCwEMqNiogAAIABJREFUlmPI0BwCEIAABDwjgMDybMAQWMUzYFwJBCAAgRIhgMDKbaARWI7cEFgILMeQoTkEIAABCHhGAIHl2YAhsIpnwLgSCEAAAiVCAIGV20AjsBy5IbAQWI4hQ3MIQAACEPCMAALLswFDYBXPgHElEIAABEqEAAIrt4FGYDlyQ2AhsBxDhuYQgAAEIOAZAQSWZwOGwCqeAeNKIAABCJQIAQRWbgONwHLkhsBCYDmGDM0hAAEIQMAzAggszwYMgVU8A8aVQAACECgRAgis3AYageXIDYGFwHIMGZpDAAIQgIBnBBBYng0YAqt4BowrgQAEIFAiBBBYuQ00AsuRGwILgeUYMjSHAAQgAAHPCCCwPBswBFbxDBhXAgEIQKBECCCwchtoBJYjNwQWAssxZGgOAQhAAAKeEUBgeTZgCKziGTCuBAIQgECJEEBg5TbQCCxHbggsBJZjyNAcAhCAAAQ8I4DA8mzAEFjFM2BcCQQgAIESIYDAym2gEViO3BBYCCzHkKE5BCAAAQh4RgCB5dmAIbCKZ8C4EghAAAIlQgCBldtAI7AcuIVhKObvVdfdKuePO8V+nQ08h8PE2nTixIkyfvx424eFy5ZIEOavOycdf4I8cP/99oCGDRsEIAABCEDARwIILB9Hrek+Z8fyu6VLJAwkb/c95j6nV2WVPemKFSukU6dOxQONKykYgRr7XqJGUjXlUqM35WWpGkmnU5JKpRr3wdxaawybLS2hpLLfrNkyrNF2pmGgx0rrscoKdj2+nigM04ospVTNez2RlOXHBoH2JYDAcuNrfj7ND+iUW++R7t26yOiRh+oPa6ivc/oaqq+Z5mc4aVugNwuxWZFQfxkEQZn9RWAE1nljT/ZOXpkBRWAlLazpDwQgAAEIJI0AAitpI5J7fxBYubPjme1P4ILfXijXT/qjLP9+qfQbMFDmfP2F7HvQYfL3hx9odHLzNihVVi7dq3rK4oVz7PuSpjZ1MdKxc2e54sqJcs7Y09VjJe9NXfuTdTvD7y+8SP77wt/LqONOlf+97Xov3+O5XTGtk0AAgeU2CpdOvF5+ff5pMuWWe63AGnX4AXL5H2+W34w/M7GJRbEKrEefeFb22WtXtX6BXHX9LXL+2JOUeCCvvjFTdvzJVt680CGw3H5QaA0BCCSbgI+ZsMkmSu8MgWz2w5AhQ2Tam6/rb/v8fBpvMoB6dau0kLfcckuZOXMmwNuZQCEE1vLly6WzCgM2CLSWQFpl1IYbD5PPP/s48xTzGlP3OX2YXm3fZ9Tfog/TdV860LcjJnOreTEVaNbVBhttKp9++E5M71EyOWJ6neZaA5Md0Qwck/1krlWvqgXZpscMTZaFIZVhZXIbTGal5qO1ZTN9tJvhqi/Ua5thU5dPEc3EibpgO9Fgs8fUazO/T2wb01b/rPn7JHu8bAQEdnpM667HsjP9NVkoRnA2IzXbwobntg8BM+5lZWVWvPzhkktkzLixeTtR/QzhqVOnyoEHHpi3Y8d5oJtu/7N8t3ix9O7dS7ro79yvv5kjG6w3WEYesl+c3VrruWMVWAu/Wyy3/OkeGX/2qXLNDbfJOWNOkCuvulkuOPe0Rr9gEktQO4bASvLo0DcIQMCVAALLlRjtW0OADKzWUCp8m1x+3qM3j6EwhbDw48UZ6wg0FbtGMm37b9vLm2+8ErkrNRidO3eXlStX6IyP1Y3FuZEVGWES+ZKmlVA2U2t9FVizPvpnLMNgp+SphJnwx2vkhxVL5be//bVOjyxvsi/PvvCKvPziM9KjV18Zd4bJGGu+y6uqq2XChCvtlKEtttpODj3g55npkm27TNPfrD5M2fM3L5D+56I/yOjRR8tGG64vl1x6hZRXdJRfjj+70fvB1atr5NLLVEyMGSc9e1Zp28ule2VPOWuMee9YLzbMlzrD54qJV8uqH76XoZttLYf/onXCwZ7j8stkgw2HyNFH/iKRU6jaNjLF/WwysNzG9733P5bHn34+er00flh/Vs84abR06ZLcD5BiFVjGoF856RapqamRigqdp64fjKR1zvqvztYXWo+2Qgksj5DQ1bUQ2GabbWT69OkwgkBiCdT/BCuxnaRj3hGIPlUPZejQoTLtDc3AylM9lPoZWNlztBZOjFUUWtvFgrTr0qWLrTnlurWnwHLtC+1Lj4D5eTfvIbKvJSYTJ6VCZ7Mtfiz/fFvvs0zWjf536ZXXyH///veyYtmiWjFj5EqqrCIjSCLNEqq4WNOxZI+5NrpG/GT90D3/91cZddRR0TtBu7cuA+yAQ4+QqffdrfvMuTvUHjKdrpbvliyV3j161e4L9Zi2TrD+KS/vkKmDW/940dcjDh8l991zZx2DzJTINc9dv/8LFi6QHlU99DmhVPYcIMsWL2jQT9O2X/9BMvubz+3TsllpRg7WbdkrDqVbVW9ZYqdfRvvGnv/vct1Vl9U27dO3v8yb803dtelXt9xyi5x6akPp1PDYEb90TbWccsqpcuttt60xBA3ZGkarViyXoMxkT6Vkm+13lrf+8VqjMfjk449lww03iHK2lNXr02fKDj/ZtrbdsC22lvf/+VbtuSp79pXFC2Y3OLeVmbY2UPQ7jS2ZBMjAat24mNfCidfdVvvSp3mHct4Zp+jPUn6y5FvXC7dW8Qosffm47I83SMcOHaXGFkcU6aAv6GedcbzbVcTculACixfKmAc6T6ffeuutZcaMGXk6GoeBQP4JZG/O8n9kjggBkWHDhskrb7yW9ymELr8js2158xFF5IABA2TOnDmtCs/6nPMtsExN1D49evKmsFUjQSMTiyZmspt5I9ar70BZtHB+7b499v2F/O+tk6V//74NpqSlxWRjldl9WTHTlMBKG9Gl0wpNLpHJdjJTCD/TKYRWgGQcSu0UNv0+K7DC1dXqUUK56bY/y+knH2cFiZ3CqL4jrX/M9/0HrS/z53wt6dXalyhFSU487Wy5/ebJ2lbfF2XaGUfSsXM3qV61Unr26i0L50VCpUyzlIw8MwIsO90vey1njf+dXH35hXYKYYdO+tzqlSrNyuwxTCeiTDNT/6tChm25nbz79jR9A5uSf773oWy5xaZaO2yQzPnmC/1ZzFyn6bEKrLPP+61cNeF/ZOGiJdJHpxyZ7aOPPrGZU3UfSkSTEYO0nkfFUp++/RoIrGiyYlpuuPFPMuaM02TYFtvIe2+/Wiv10prRcNBhx8kjD96t/V6l3FNy1jnny+RJ18juex8gT//9bxn5qMdRpjvt+nN59aVn9esf9Kzlsvc+B8hTT/5d+qqEm/OtXkNNWt794FP5sV6XOXckPY3fzGbfBbLxsC3k04/+Fb0eDhws32rdtD323l9mvv2WzJ9bJ9+ygZWvD2D4KW4/Agis1rE1P40TrrpRsx6jbM6VK6vlN+edsdaszdYduf1axSqwzC+aJ59+RV9UPrBXaAD+fI9dZPNNh+Ttxrb90NUduT0F1onHHS8PPtC46GQhrotz5JdA9qYfgZVfrhytfQiYeHURAu3TC45ajATWWWcdmfneu3nLwDKMenaPamC1tNm3iPU+NUdgRcSMwJo7d66zODICS9/d6/vs/GQhlOnYVHbr3tIw8jgELIFGAsvs01j8y0N/lyPsdLG6LJ3yDp11KtmyJmfSrU1g1Udt2rU8hdDUpjKzSmpkzHm/kSnXXmEPEapkWjO9q+/A9azAimRVtJ142jkqsCY12Gf2d+jUVeXTDypfqq1QM69d2+2yj0x/5ekGbU0fy8vLZdVKzUaytZsyKwBqoXojsGpUCNn+mMQBo6x0f/3t0COOkwfuuTUjrtJ6vqimkOWtx06r/JmtrxWDBg6yx162bKl01QzO5jbznDUzsLJtr59yq4w581RZtGihVOnqo6Ztl2495PslC2T0SWPlz7ffIEsWLdYpgt1k3FnnyuTJ19Zeq2lb1XuALJr3tey1/6EqtaY2eMycw4hB83qfTfZ96OGn5JCD99G6SOfKtddMaLDi5EZDt1SB9Z785b6p8otD9m16xcp6F1lfYHGv1Ozwx/rARX/4g4w9+6y89aFYa2AZQX7rnX+RxUsW29fUfv36yKiRByd61dDYBdbiJcvktrv+Er2Y6p9zzzypxReNvEVing7UngLLfLKUfSOZp+5ymJgIZN9gIbBiGgBO60Qge3O28/CdZeqjj+ZVNjh1hMZFR8DcBJrfbdk3Rfm4wNbWcTJx/YeLLpIrLo2mtyCwIvrZDKwOHTrI7PnznH7eW8u+NeNsj2XupjXjgg0CzRHYbOgwmf3tt/bhhhlYIj/Zcbi88arWc7FTxKKspo0321I++fBf8s4/35UtNhvW6LD5FVjR4fc+4DB56rEHoz6q9LFZT2tMm85FYGUL0VuBNVwF1rTGAmunn+0nrzz7sKnUEhVQN/80ElhR5tqqVaukz4D1dRphXdaa2T/q2BPlrttvavAm1pzztTemy047bm+fu+L75dKpk06FXMt08FwElunL0SePa7PAam4a5fY77CyvTXuhQRxkBZbJ/mpNdlW2zSefz5JeveqmfvJTmwwC9nd7ZqGDfPWoWAWWeW364OPP5OHHnrYO5hx1MWZ68doWtMgX01yPE7PAMnC0CLrWwTKbKZr3y3NOy7wOJnfe5Zqw21Ng5TqwPC95BBBYyRsTetQ8gezN2fDhw2XqY4+CCgJ5I1C7OlSeamCZjrkc8xL9VPZyBFaD8cwKrIqKCpmr9XHi3PIpxOK8Ds7dfgQ2GzJUvlWBtWYG1i4/20NeevF5O6UuWnPOZCql5cuvvpX1119P/njtDXLu2FNtx6LXDDMxUCcS2lpYRjTpVDwzXdAUSzeZO/XytXTimb6561C7CqF5rmlr9ktaM5SsJTLPSMue+x4izzwR/d4MVV6Z6XIdtZD8UaOPlTt0OqNO/rOP9R2gGVhzdQqhKQKc6fHho4+X++69yxacj55vpvml6jKwNKvIJD0aN7fdT38u0199Rtustucw/QlSddeSHYGXp70mu+iHUQ0ysPRDhEefeFIOPfgQWblqhWauGWDR1MLyDl00g2yVzSIzLtmy0vPddff/yXHHjI5YVes5U2nZatudNEtqka78+L5NxLTMM1MfzfTFQNlGGViaaWZremVmJimrKTqF8EyttbNo0XfSvXsXHYcONgOrSYF1tplCeLUdI9OdsvKKKANr7heagTVSnn78IcvRjlomY6ymZpXNVms4FyoSG2k7NTKql2Uk38bDfmynEJrYsXDrbU0Jrey+jz//THr17NUq6dV+PxEcuRAEildgRfQmXnuTTSY6f9zJ5sUg0TEds8CyL81aXPE66dipo7X854wx1s8feWUHfOJEGT9+vB38hcuW2JqR+dpcbsrzdU6O0z4EEFjtw5Wjtg8BBFb7cOWo0ZuhOH/PI7AaR2F9gTVnwfzYxifu2ODn0w8CzQqsXXeXl16KMmtMrarRRxwq9//tEXn/vZl2X/2peutssIl8/cVn9n3ImluHjl3kh+XRdJo6+RFNDTTbqaedLn379JQpN/9JFsw19ahMLSZTdD0tI444Vv523z1NguzVu5+tp5R9/Tvw4BHyyMMPyc677C47bL+NTLxyYuZ8UZ8isRVIzz4DZPF38+y+Mq0ptVpXVJyk0+/OGhPJOLPZqYX654/XXifnn2tW7xP51S8vkCeeeSFTzFzfktafQqgCa/iemqn1/NO2/6eZa+rdU+74833y5ayP9FpTmemG0dJk9z/0uIwccdAa11U3RTM0YinzqJmuGfW98bb3vvvL4488JG+9PVO23dYUT4+25ZrN1aVrNBXxiFHHSFnHbjYDy2x/m/qwHHJQtIKgkXQ11SskVd7Rfj/unPHyrw8+tnWxzGbO+6pmif00kyX2b9v/VPbZ42cq656Rt6abou4ie+y1rwovnXKo3d9nvxHy5OMPN3ldUx99XA7YZ88mXw/rBNYs6U0GVpNjXWw7i1VgZX/vXn7VFClXWX6eFVjmPq3+og3JGs2YBVb0UvfY0y/oi8+HcvA+e8nGG20Q241TrkPTngIr1z7xvOQRQGAlb0zoUfME6qYQDte0YjKwiJXiIXCJLtd++WVMIaw/oknKwCqeSONK2otAcwLrL/dPlWM1Q2ivPfeWRx6JhIbZulf21ILkX0qnzp1q32P0Hbiu1p8y0xDXFFiagVShK9rZelmm0nf0obqpGbV48TLp2bu3zeCJtkA23/LHKoi0ALlmPpnMqJ/8dA9587WG09Oy/TACa4E5Z2aGrMlU6t1nkHy3MJJTFR07y+57HSBPPPJX+302o6hbj97y/dLFtq8mW2x19XK58KIr5b/+8ze115gVWOaYN91uCsebBbGifvbQ8y5aMM9mctXVwArl8aee0Qysg7Vosyl+XrcN2XQL+eDdt2t3hJpaNWnKbXJ2JnutQePMN6FmhkWJS7pqYkUnW1y+qW277XeUN6a9JC+98qrsssvw2ibLli6Tbt272e/33vdA6dN/sPz5T1Ps97f/6S454fhj7Nfm3sQUdi/XDCyzHX3cSVqTa56tgWXPbora6/h89Mks+fGWW2otsIarq266+Vby7sx/aMuogPuOO+0mr7/28hpdjcb87nv/Kkcddkhtgf36jRBYTQ5vUe8sVoGVHbRb7viLvlZ2lSMO3T/x4xirwMrSWanzr6+/+S4Zd9rx+sKc7JS1pkYUgZX4OE9EBxFYiRgGOtFKAgisVoKimXcEEFiNhwyB5V0Yl3SHmxNYRlxEE/90aqBdrMG4omgyoZ0saHxUZlpgNJ3NrDDYOMvATCE0jfUdSR1nzVhKq6Gq3Wcllh7D1pgy54ratpRdWj/LMJpQZ6YYah/MlDYzdVEzn+yRVRqZ6Xs1uoJemS5nH83IiKa72StUUZMKNCMs00Uj2EzGhD2+6Y8RNHWeza7aZ6SPKQRvNjNF0V67Hi/ycZm1FDNz/MxRzMyY2q127l/j0LPXof+Z1RXLQu2DnY8YLQRTfzMZatEcwrr92TbR9dmz1nK1z7V9qztWWnnYfmVWbTQN0hlWktbrNoiiK9TrqntPaYvWm+91mqRpkQ7N9MKKTLH6NfuZBRe1XfsUQjKwGkdEce4pdoH12awvZLAuztChY8OFHZI4mnkRWG1N+Ta/VK646gb59blnthuj6LW5faYtILDabdiK6sAIrKIazqK/GARW0Q9xyV4gAqvx0COwSvbHwcsLb05geXkx+e60yhxdO1CnGkZT7Oq2QF5+7U356U+2zvcZS/J4ZGCV3rC3l8AyC1HYWm0xV1Bqv4Xj1mK/cwyjvAisbJpoSpc0zWnTF9srr7lexp87Jqent/ZJkWgzrfMbIQis1o5AabdDYJX2+Pt29Qgs30aM/raWAAILgdXaWKFdMgkgsNY2LqEsWrJUevbomXm/E2UTzfryc1lv0CBbQ4qt7QQQWG1n6NsR2ktg6YoImrVosgXXXHCgsITampDUbG9DXRhBsx3zueVFYH23ZIncfJsWLMzxNdEUPbfQNB20cSnFPF2u2k2TlnvBWabgIQIrT1Q5jAOBrMDaZpttZPr06Q7PpCkECk8AgVV45pyxMAQQWAiswkQaZ2kvAgis9iLLcVtLAIHVWlLF0669BJaZ3nrlpFvsJN58OwoX+tHU4/yamECnRu+95y6y1ebDXLrSYtu8CCwzp9nMdi5LsNXPLpfbHstCkoHVYpzRQAlkBdbQoUNlwoQJMIFAogkcdFC02tDOwyninuiBonPOBBBYCCznoOEJiSJQX2A99NBDieobnSkNAgdr8Xvz3vLjz6mBVRojHiXb9Kqsspc7depUOfDAaGXMtm+mDp2ZJZZjJlDbO9BuRzC1/ERr4uV7RcM8Caz2qS2VT5qRwGq5uGIu50Rg5UKt9J6TFVjmU5tsPJYeBa7YNwIILN9GjP62RACBhcBqKUZ4PNkEsgIre1/PPVWyx6sYe5e9l0dgFePoNn1N7SewzIIDZrEA+4pWdEDbY2piXgRW0ZF2vCAEliOwEm2eFVjccJVoAHh02fVXBUJgeTRwdLVVBBBYCKxWBQqNEksAgZXYoSmZjiGwSmaoay+0/QRW6bFs6xUjsNpKUJ+PwMoDxBI4RFZg7bDDDvLqq6+WwBVziT4ToAaWz6NH39dGAIGFwOInxG8C1MDye/yKoffUwCqGUXS7BgSWG6/2bI3AygNdBFYeIJbAIViFsAQGuUgu0fySTumiF2YjA6tIBpXLqCWAwEJg8ePgNwEElt/jVwy9N/dI1MAqhpFs/TUgsFrPqr1bIrDyQBiBlQeIJXAIBFYJDHIRXSIZWEU0mFxKAwIILAQWPxJ+E0Bg+T1+xdB7MrCKYRTdrgGB5carPVsjsPJAF4GVB4glcAgEVgkMchFdIgKriAaTS0FgtRADAwYMkDlz5khFRYXMXbiAiIFAogkgsBI9PCXROQRWSQxzg4tEYCVnzBFYeRgLBFYeIJbAIRBYJTDIRXSJCKwiGkwuBYGFwOKnoIgIILCKaDA9vRQElqcD14ZuI7DaAC/PT0Vg5QEoAisPEEvgEAisEhjkIrpEBFYRDSaXgsBCYPFTUEQEEFhFNJieXgoCy9OBa0O3EVhtgJfnpyKw8gC0gcBaukSCPByTQxQfAQRW8Y1pMV8RAquYR7e0r+2SP/xBLr/0MgvB3JCyiTCFkCjwiQACy6fRKs6+IrCKc1zXdlUIrOSMOQIrD2PRQGAtWSzZF7U8HJpDFBGBXpVV9s3S1ltvLTNmzCiiK+NSipFA9nVs+PDhMvWxR4vxErmmEiSQTqflsosvkcsvQ2DVH/41BZb5XcW9TAn+gHhyyQgsTwaqiLuJwCriwW3i0szvRPNxV5+qHva93NSpU+XAAw8sLQgJuloEVh4GY02BJSlysPKAtegO0bt7lb2mrbbaCoFVdKNbfBfUlMAKeWkrvoEusSsK9A6UVQgbD3p9gTXnO4q4l9iPhXeXu8XQTeWbr7+2ktVIaTYIFJpArcCa9Zn06dNH0lZvsBUtAR1eo7Cy7+UQWPGONAIrD/zrCyzzgsaUhDxALeJDkIFVxINbRJdmXst4PSuiAeVSmiTA7+sIS1ZgESYQ8IVAViAgsHwZseLqJxmqxTWerleDwHIllt/2CKw88KwvsPJwOA5R5AQQWEU+wEVyeQisIhlILmOtBBBYCCx+RPwlQAaWv2Pne88RWL6PYNv6j8BqG7+2PhuB1VaC+vw777xTJk+eTOZVHliWwiEGDx4s9913H/VFSmGwPb7GHXbYwePe03UItI7Aa6+91rqGRdzKSLzddttNfvjhhyK+Si6tWAlMmzZNUqlUsV4e15VQAjvuuCPv+xI6NoXo1qWXXiq77757IU7FOZoggMDKQ1hQ7DQPEDkEBCCQGAK8piVmKOhIOxEgxtsJLIeFQAEJZDMoyYYpIHROZeuuZbPUwVF6BMz4I83jHXcEVrz8OTsEIAABCEAAAhCAAAQgAAEIQAACEIBACwQQWIQIBCAAAQhAAAIQgAAEIAABCEAAAhCAQKIJILASPTx0DgIQgAAEIAABCEAAAhCAAAQgAAEIQACBRQxAAAIQgAAEIAABCEAAAhCAAAQgAAEIJJoAAivRw0PnIAABCEAAAhCAAAQgAAEIQAACEIAABBBYxAAEIAABCEAAAhCAAAQgAAEIQAACEIBAogkgsBI9PHQOAhCAAAQgAAEIQAACEIAABCAAAQhAAIFFDEAAAhCAAAQgAAEIQAACEIAABCAAAQgkmgACK9HDQ+cgAAEIQAACEIAABCAAAQhAAAIQgAAEEFjEAAQgAAEIQAACEIAABCAAAQhAAAIQgECiCSCwEj08dA4CEIAABCAAgXwRCNOhhEEoqSDV7CFDfSSQ6P/1tzBM2301+lCqhWPkq78cBwIQgAAEIAABCECgjgACi2iAAAQgAAEIQKAkCKTTNaqgUhKkGsqp+hefTqclCAL7t8Gm8isoL7e7alZXSyrVvAQrCZhcJAQgAAEIQAACECgwAQRWgYFzOghAAAIQgAAE4iEQhqF89MlnMnTIJmvtQFhTU5eAlUnGMhlYffr2t8+bP2+2Cq6yBscINTXLSC+T4aU3V5qmVV9wmeytxsIrDPU89fcbcSZp/aPyTIVZVpKZfptHQt1ttJr53mxrSra6dpppZo+szzFt7fNMXpkReA37rUez/5k2tmlQo+cvs+3NA9G/bBCAAAQgAAEIQCB+Agis+MeAHkAAAhCAAAQgUCACRujMnTNHBgwaLGXlFfLVF7NqRdBDjz4hp518gtSowMomaWVlkQTRFEKTwZVWmbXmNMSonTFFRggZmaX/pDPyR5+7pvAyl5sVWFY8ZTK+jChLpdaQY/q4aZs9RqDniGTTmlIsNN4rOn9K5VhoHo/aZJ/fKLPMPprWx00fy+vkWHY81sxEK9A4cRoIQAACEIAABCCwJgEEFjEBAQhAAAIQgECJEKirbRWoJDICq3rVD/Lv/3mRfLdwgeyxxx5y5MgRKp5W1/Iwz+jdp78+Pr923/z586V3r54NmC1fsUK6du1uVJHsud+h8vRjD9Y+vsNOw+WVl5+L3JbuzUqk4bv8TPe/VNtu3/0Pkr8/OtUeo6JDZ1n1w/e2/Zy582XTzbaQRQvn1Z1TxdJ77/1LNtVsMpP1pZ2WnXbZU1575UXbZp11N5CvvpyVaR/IJ59+KhtusF69PtdoPlZKunTqKqtWrbLnNEJs4HqbyDeff2DbXX3tJDl77JklEhtcJgQgAAEIQAACSSeAwEr6CNE/CEAAAhCAAATyTsAIrECn+Z15+ulyw5QbxdTHqqmJxJXJs8omHpnsqM1/vK38692ZtX2YN2++9OndUGCtqq6Wjh071bbp1KW7XHnFxfKbf79Qli6eL/c/+JAcetABenDN5FLfVNWrv+5fKB07d5OJEy6R//yvi2XBvG9rhVO3yp6ydFEkrB57/CnZf799rPi68soJ0rFDRxk77iz7WNqZx/emAAAID0lEQVT02U7/S8tpY86VW6ZMru3DHj/fX35xyP4ybuw4e1Vh2oiqTNaWyegq62DbHnHUsbL5ppvI73//e/0ump5otieffEr22nP3vLPngBCAAAQgAAEIQCAXAgisXKjxHAhAAAIQgAAEvCZgBNaam828ilKkoofM1L1MIyOPpk+fIf+23XbSlMCKphBq3aqyCtlyq21l5vQ3MmLJ7CuXXv3Wlfmzdbqitpkzd6EMGNBP+vQbLHNnf25OaCtNjRg5Wh68/17ZevvdZMarT9n90Wam+AUy9e9PyayP39cjhPLgg4/Kc88+Kdl6XdnVE7tW9pHlyxbJV19/LYMH9tHnlsuxJ42Ru26fksksi47ZuWs3+UGzxj7/4gtZd/CgzOxH7UdZxCXMyLxaFl6PNp2HAAQgAAEIQKAYCCCwimEUuQYIQAACEIAABJwI1J9C2FmzpVb+sFyzmUzdKFOA3eYr6fEa1pham8DKntwc99bb/yQnHndMbX/Mvt4ZgWUk1+NPPC377ruPrFi+zGZt1a9LFaTKVWDtqgLrGaORjLqSv97/kE5tPMx+Xye1osOHmjlWf+ta2dsKrPr7TzrjXLntxmsb7AtUqpnDpWuq7dOzfeig/amuXt1gGqUTWBpDAAIQgAAEIACBdiKAwGonsBwWAhCAAAQgAIHkEogEVgdZvep7W+w8WuHPFD+vkJ69esnC+XMbdb71AusOFVhH1z6/ocASee3NGbLj9tvJX//2mBx20F7aLhJlL778uuy6y04qsH6WEVhmRUBdN1D7ZFYkrK5epcXjTb2rlBx97Aly9913Niuw0quro7wurUbflMAq12mINatVVGmmVVRDK8rMKqvooMdUbbaGGEvuSNIzCEAAAhCAAARKhQACq1RGmuuEAAQgAAEIlDyBzOp9ysFkINki7itXZGbJmUJSZn+ZCqw+KrDmWFrRJEJbZEqmz/iHbLfdDjqFcJ7WwOql+7WeVY1qL304rRJINZhOF+wgt952p5xw3Cj7PKOFzLl6919H5n8zS78zWV5af6tcM6C0/edffCnrrjNQli5dJlVVPew5swJLy1rJrC+/lA1/tIHsssfP5YWnHlGxFMqZ5/5Opky6Iupf2mRQRQIsrX3sXmWmEC7O7A+lRtufcub5cvtNk7TOl5kiGa2Q+PTz02Sv3XeVDiqyflj+vd236TY7yfszdeqjPW7DzK6SDx0AQAACEIAABCAQOwEEVuxDQAcgAAEIQAACECgEAVOn6qNPZsnQIRuv9XQ9e/WuzcAa8YvDtN5U3YqCaz7x9jvvleNHHyYHjDxWHn3gz7UP/2jjYfLph+/YjK5oC6SiY2etO7XESq2ly1RYVRphla1zVVc8vTYDy+7SFQm10PtqXS2x/rbxkM3k4w/fs7v6DlhX5nz9ma21VX8zWVi77z9Snn/ib7W70yq8TMJVWovJ77nPCHnuyUebZIHAKkREcg4IQAACEIAABFwIILBcaNEWAhCAAAQgAAFvCZiV+ky6VKDT6lra0jqNLlDTY/KqjPBp6jlGiGUrZZl/bRZWZipedHyT7RRlR9m2JvvJ1tfK7kvL8y++KrM+/VD6D15f9ttrN5utZYq4T5/2VG1dKjOl743pb8t7uhLioHU2kL332LW2GpapXWWPa5LENNvK+DBzfLvP9Mn2wayqGF1zaFYftH2KssrMv3f+7906nbBaDjzoYNli6+1Vhn1KBlZLAcLjEIAABCAAAQgUnAACq+DIOSEEIAABCEAAAnEQiARPnVRquQ+Ztf1UfGVFVPY5kTQyVbP0X1NCyqgg80Vt4ffs5MOsOIoyrOykwuwih+ZZmSwr89iPVR79850ZMk/rb/XpVaV7ooyqtDm/+WOPb7aMoMo4KLvfyKigbmXFqH9aBN46LfN1ZnVBM+0xI9nMMXWSYS2Ghx97Sg4+cH/7PRlYLUcHLSAAAQhAAAIQKCwBBFZheXM2CEAAAhCAAAQgYAl07NRFVq1a2YDG8F13l+efMdlXjaVZPrEZ32UUW9ka0w7NOebNnSN9+vTJ5+k4FgQgAAEIQAACEGgzAQRWmxFyAAhAAAIQgAAEIOBOIJsllc3aMt+bLcqMijK82mvLlKa3hzfTDO2kxmgpRvOF7QUbBCAAAQhAAAIQSBIBBFaSRoO+QAACEIAABCAAAQhAAAIQgAAEIAABCDQigMAiKCAAAQhAAAIQgAAEIAABCEAAAhCAAAQSTQCBlejhoXMQgAAEIAABCEAAAhCAAAQgAAEIQAACCCxiAAIQgAAEIAABCEAAAhCAAAQgAAEIQCDRBBBYiR4eOgcBCEAAAhCAAAQgAAEIQAACEIAABCCAwCIGIAABCEAAAhCAAAQgAAEIQAACEIAABBJNAIGV6OGhcxCAAAQgAAEIQAACEIAABCAAAQhAAAIILGIAAhCAAAQgAAEIQAACEIAABCAAAQhAINEEEFiJHh46BwEIQAACEIAABCAAAQhAAAIQgAAEIIDAIgYgAAEIQAACEIAABCAAAQhAAAIQgAAEEk0AgZXo4aFzEIAABCAAAQhAAAIQgAAEIAABCEAAAggsYgACEIAABCAAAQhAAAIQgAAEIAABCEAg0QQQWIkeHjoHAQhAAAIQgAAEIAABCEAAAhCAAAQggMAiBiAAAQhAAAIQgAAEIAABCEAAAhCAAAQSTQCBlejhoXMQgAAEIAABCEAAAhCAAAQgAAEIQAACCCxiAAIQgAAEIAABCEAAAhCAAAQgAAEIQCDRBP4/LsQLtG+FejoAAAAASUVORK5CYII=;" vertex="1" parent="1">
          <mxGeometry x="-5120" y="-2882" width="1708.71" height="1689" as="geometry" />
        </mxCell>
        <mxCell id="duBOL_cTbDVCa7UtEUWw-5" value="Sekretariat &amp;amp; HR" style="text;html=1;align=center;verticalAlign=middle;whiteSpace=wrap;rounded=0;fontSize=50;fontColor=#FFFFFF;" vertex="1" parent="1">
          <mxGeometry x="-4792" y="-1512" width="257" height="107" as="geometry" />
        </mxCell>
        <mxCell id="duBOL_cTbDVCa7UtEUWw-6" value="Sitzungszimmer" style="text;html=1;align=center;verticalAlign=middle;whiteSpace=wrap;rounded=0;fontSize=50;fontColor=#FFFFFF;" vertex="1" parent="1">
          <mxGeometry x="-3990" y="-1554" width="257" height="219" as="geometry" />
        </mxCell>
        <mxCell id="duBOL_cTbDVCa7UtEUWw-7" value="Buchhaltung" style="text;html=1;align=center;verticalAlign=middle;whiteSpace=wrap;rounded=0;fontSize=50;fontColor=#FFFFFF;" vertex="1" parent="1">
          <mxGeometry x="-3992" y="-2060" width="257" height="219" as="geometry" />
        </mxCell>
        <mxCell id="duBOL_cTbDVCa7UtEUWw-8" value="Juristische Abteilung" style="text;html=1;align=center;verticalAlign=middle;whiteSpace=wrap;rounded=0;fontSize=50;fontColor=#FFFFFF;" vertex="1" parent="1">
          <mxGeometry x="-3998" y="-2614" width="257" height="219" as="geometry" />
        </mxCell>
        <mxCell id="duBOL_cTbDVCa7UtEUWw-9" value="Geschäftsleitung" style="text;html=1;align=center;verticalAlign=middle;whiteSpace=wrap;rounded=0;fontSize=50;fontColor=#FFFFFF;" vertex="1" parent="1">
          <mxGeometry x="-4740" y="-2552" width="257" height="67" as="geometry" />
        </mxCell>
        <mxCell id="duBOL_cTbDVCa7UtEUWw-10" value="Sekretariat" style="text;html=1;align=center;verticalAlign=middle;whiteSpace=wrap;rounded=0;fontSize=50;fontColor=#FFFFFF;" vertex="1" parent="1">
          <mxGeometry x="-4810" y="-2138" width="257" height="219" as="geometry" />
        </mxCell>
        <mxCell id="duBOL_cTbDVCa7UtEUWw-12" value="" style="shape=mxgraph.cisco.routers.router;sketch=0;html=1;pointerEvents=1;dashed=0;fillColor=#036897;strokeColor=#ffffff;strokeWidth=2;verticalLabelPosition=bottom;verticalAlign=top;align=center;outlineConnect=0;rotation=-90;" vertex="1" parent="1">
          <mxGeometry x="-4318" y="-1619" width="55" height="31" as="geometry" />
        </mxCell>
        <mxCell id="duBOL_cTbDVCa7UtEUWw-13" value="&lt;font color=&quot;#ffffff&quot; style=&quot;font-size: 20px;&quot;&gt;Router1&lt;/font&gt;" style="text;html=1;align=center;verticalAlign=middle;whiteSpace=wrap;rounded=0;" vertex="1" parent="1">
          <mxGeometry x="-4266" y="-1619" width="78" height="30" as="geometry" />
        </mxCell>
      </root>
    </mxGraphModel>
  </diagram>
</mxfile>
